NotoSansSinhala-Condensed.ufo
<glyph name="exclam.sinh" format="2">
  <advance width="268"/>
  <unicode hex="0021"/>
  <outline>
    <contour>
      <point x="162" y="201" type="line"/>
      <point x="182" y="714" type="line"/>
      <point x="84" y="714" type="line"/>
      <point x="104" y="201" type="line"/>
    </contour>
    <contour>
      <point x="80" y="55" type="curve" smooth="yes"/>
      <point x="80" y="13"/>
      <point x="99" y="-9"/>
      <point x="134" y="-9" type="curve" smooth="yes"/>
      <point x="165" y="-9"/>
      <point x="188" y="11"/>
      <point x="188" y="55" type="curve" smooth="yes"/>
      <point x="188" y="100"/>
      <point x="167" y="119"/>
      <point x="134" y="119" type="curve" smooth="yes"/>
      <point x="98" y="119"/>
      <point x="80" y="97"/>
    </contour>
  </outline>
</glyph>
<glyph name="quotedbl.sinh" format="2">
  <advance width="388"/>
  <unicode hex="0022"/>
  <outline>
    <contour>
      <point x="156" y="799" type="line"/>
      <point x="62" y="799" type="line"/>
      <point x="79" y="541" type="line"/>
      <point x="140" y="541" type="line"/>
    </contour>
    <contour>
      <point x="326" y="799" type="line"/>
      <point x="232" y="799" type="line"/>
      <point x="249" y="541" type="line"/>
      <point x="310" y="541" type="line"/>
    </contour>
  </outline>
</glyph>
<glyph name="quotesingle.sinh" format="2">
  <advance width="218"/>
  <unicode hex="0027"/>
  <outline>
    <contour>
      <point x="156" y="799" type="line"/>
      <point x="62" y="799" type="line"/>
      <point x="79" y="541" type="line"/>
      <point x="140" y="541" type="line"/>
    </contour>
  </outline>
</glyph>
<glyph name="parenleft.sinh" format="2">
  <advance width="308"/>
  <unicode hex="0028"/>
  <outline>
    <contour>
      <point x="55" y="287" type="curve" smooth="yes"/>
      <point x="55" y="113"/>
      <point x="102" y="-80"/>
      <point x="204" y="-216" type="curve"/>
      <point x="278" y="-216" type="line"/>
      <point x="180" y="-71"/>
      <point x="129" y="96"/>
      <point x="129" y="288" type="curve" smooth="yes"/>
      <point x="129" y="479"/>
      <point x="180" y="654"/>
      <point x="279" y="799" type="curve"/>
      <point x="204" y="799" type="line"/>
      <point x="110" y="668"/>
      <point x="55" y="477"/>
    </contour>
  </outline>
</glyph>
<glyph name="parenright.sinh" format="2">
  <advance width="308"/>
  <unicode hex="0029"/>
  <outline>
    <contour>
      <point x="253" y="296" type="curve"/>
      <point x="253" y="470"/>
      <point x="206" y="663"/>
      <point x="104" y="799" type="curve"/>
      <point x="30" y="799" type="line"/>
      <point x="128" y="654"/>
      <point x="179" y="487"/>
      <point x="179" y="295" type="curve" smooth="yes"/>
      <point x="179" y="104"/>
      <point x="128" y="-71"/>
      <point x="29" y="-216" type="curve"/>
      <point x="104" y="-216" type="line"/>
      <point x="198" y="-85"/>
      <point x="253" y="106"/>
    </contour>
  </outline>
</glyph>
<glyph name="asterisk.sinh" format="2">
  <advance width="527"/>
  <unicode hex="002A"/>
  <outline>
    <contour>
      <point x="305" y="799" type="line"/>
      <point x="219" y="799" type="line"/>
      <point x="236" y="621" type="line"/>
      <point x="59" y="670" type="line"/>
      <point x="46" y="587" type="line"/>
      <point x="217" y="572" type="line"/>
      <point x="109" y="425" type="line"/>
      <point x="187" y="381" type="line"/>
      <point x="261" y="544" type="line"/>
      <point x="342" y="381" type="line"/>
      <point x="418" y="425" type="line"/>
      <point x="309" y="572" type="line"/>
      <point x="481" y="587" type="line"/>
      <point x="467" y="670" type="line"/>
      <point x="289" y="621" type="line"/>
    </contour>
  </outline>
</glyph>
<glyph name="plus.sinh" format="2">
  <advance width="429"/>
  <unicode hex="002B"/>
  <outline>
    <contour>
      <point x="180" y="319" type="line"/>
      <point x="180" y="119" type="line"/>
      <point x="249" y="119" type="line"/>
      <point x="249" y="319" type="line"/>
      <point x="398" y="319" type="line"/>
      <point x="398" y="387" type="line"/>
      <point x="249" y="387" type="line"/>
      <point x="249" y="588" type="line"/>
      <point x="180" y="588" type="line"/>
      <point x="180" y="387" type="line"/>
      <point x="30" y="387" type="line"/>
      <point x="30" y="319" type="line"/>
    </contour>
  </outline>
</glyph>
<glyph name="comma.sinh" format="2">
  <advance width="255"/>
  <unicode hex="002C"/>
  <outline>
    <contour>
      <point x="182" y="114" type="line"/>
      <point x="96" y="114" type="line"/>
      <point x="89" y="42"/>
      <point x="72" y="-51"/>
      <point x="51" y="-132" type="curve"/>
      <point x="113" y="-132" type="line"/>
      <point x="145" y="-60"/>
      <point x="169" y="19"/>
      <point x="189" y="103" type="curve"/>
    </contour>
  </outline>
</glyph>
<glyph name="hyphen.sinh" format="2">
  <advance width="308"/>
  <unicode hex="002D"/>
  <outline>
    <contour>
      <point x="38" y="281" type="line"/>
      <point x="270" y="281" type="line"/>
      <point x="270" y="352" type="line"/>
      <point x="38" y="352" type="line"/>
    </contour>
  </outline>
</glyph>
<glyph name="period.sinh" format="2">
  <advance width="255"/>
  <unicode hex="002E"/>
  <outline>
    <contour>
      <point x="73" y="55" type="curve" smooth="yes"/>
      <point x="73" y="13"/>
      <point x="93" y="-9"/>
      <point x="127" y="-9" type="curve" smooth="yes"/>
      <point x="159" y="-9"/>
      <point x="181" y="11"/>
      <point x="181" y="55" type="curve" smooth="yes"/>
      <point x="181" y="100"/>
      <point x="160" y="119"/>
      <point x="127" y="119" type="curve" smooth="yes"/>
      <point x="92" y="119"/>
      <point x="73" y="97"/>
    </contour>
  </outline>
</glyph>
<glyph name="zero.sinh" format="2">
  <advance width="429"/>
  <unicode hex="0030"/>
  <outline>
    <contour>
      <point x="387" y="357" type="curve" smooth="yes"/>
      <point x="387" y="603"/>
      <point x="331" y="724"/>
      <point x="214" y="724" type="curve" smooth="yes"/>
      <point x="98" y="724"/>
      <point x="41" y="604"/>
      <point x="41" y="357" type="curve" smooth="yes"/>
      <point x="41" y="71"/>
      <point x="106" y="-10"/>
      <point x="214" y="-10" type="curve" smooth="yes"/>
      <point x="337" y="-10"/>
      <point x="387" y="124"/>
    </contour>
    <contour>
      <point x="117" y="357" type="curve" smooth="yes"/>
      <point x="117" y="557"/>
      <point x="145" y="656"/>
      <point x="214" y="656" type="curve" smooth="yes"/>
      <point x="281" y="656"/>
      <point x="311" y="555"/>
      <point x="311" y="357" type="curve" smooth="yes"/>
      <point x="311" y="157"/>
      <point x="278" y="58"/>
      <point x="214" y="58" type="curve" smooth="yes"/>
      <point x="146" y="58"/>
      <point x="117" y="154"/>
    </contour>
  </outline>
</glyph>
<glyph name="one.sinh" format="2">
  <advance width="429"/>
  <unicode hex="0031"/>
  <outline>
    <contour>
      <point x="290" y="0" type="line"/>
      <point x="290" y="714" type="line"/>
      <point x="222" y="714" type="line"/>
      <point x="62" y="557" type="line"/>
      <point x="108" y="507" type="line"/>
      <point x="171" y="569" type="line" smooth="yes"/>
      <point x="193" y="591"/>
      <point x="211" y="612"/>
      <point x="219" y="623" type="curve"/>
      <point x="217" y="578"/>
      <point x="215" y="530"/>
      <point x="215" y="487" type="curve" smooth="yes"/>
      <point x="215" y="0" type="line"/>
    </contour>
  </outline>
</glyph>
<glyph name="two.sinh" format="2">
  <advance width="429"/>
  <unicode hex="0032"/>
  <outline>
    <contour>
      <point x="381" y="0" type="line"/>
      <point x="381" y="67" type="line"/>
      <point x="120" y="67" type="line"/>
      <point x="120" y="70" type="line"/>
      <point x="235" y="233" type="line" smooth="yes"/>
      <point x="314" y="345"/>
      <point x="367" y="436"/>
      <point x="367" y="541" type="curve" smooth="yes"/>
      <point x="367" y="651"/>
      <point x="303" y="724"/>
      <point x="196" y="724" type="curve" smooth="yes"/>
      <point x="133" y="724"/>
      <point x="84" y="700"/>
      <point x="37" y="667" type="curve"/>
      <point x="73" y="612" type="line"/>
      <point x="112" y="640"/>
      <point x="149" y="656"/>
      <point x="189" y="656" type="curve" smooth="yes"/>
      <point x="253" y="656"/>
      <point x="290" y="615"/>
      <point x="290" y="540" type="curve" smooth="yes"/>
      <point x="290" y="442"/>
      <point x="244" y="367"/>
      <point x="171" y="261" type="curve" smooth="yes"/>
      <point x="32" y="57" type="line"/>
      <point x="32" y="0" type="line"/>
    </contour>
  </outline>
</glyph>
<glyph name="three.sinh" format="2">
  <advance width="429"/>
  <unicode hex="0033"/>
  <outline>
    <contour>
      <point x="364" y="550" type="curve" smooth="yes"/>
      <point x="364" y="657"/>
      <point x="301" y="724"/>
      <point x="194" y="724" type="curve" smooth="yes"/>
      <point x="128" y="724"/>
      <point x="76" y="700"/>
      <point x="30" y="668" type="curve"/>
      <point x="66" y="612" type="line"/>
      <point x="100" y="634"/>
      <point x="137" y="656"/>
      <point x="186" y="656" type="curve" smooth="yes"/>
      <point x="254" y="656"/>
      <point x="288" y="611"/>
      <point x="288" y="541" type="curve" smooth="yes"/>
      <point x="288" y="460"/>
      <point x="239" y="402"/>
      <point x="147" y="402" type="curve" smooth="yes"/>
      <point x="108" y="402" type="line"/>
      <point x="108" y="335" type="line"/>
      <point x="144" y="335" type="line" smooth="yes"/>
      <point x="251" y="335"/>
      <point x="300" y="285"/>
      <point x="300" y="200" type="curve" smooth="yes"/>
      <point x="300" y="119"/>
      <point x="265" y="58"/>
      <point x="172" y="58" type="curve" smooth="yes"/>
      <point x="115" y="58"/>
      <point x="79" y="67"/>
      <point x="33" y="86" type="curve"/>
      <point x="33" y="12" type="line"/>
      <point x="70" y="-3"/>
      <point x="118" y="-10"/>
      <point x="180" y="-10" type="curve" smooth="yes"/>
      <point x="307" y="-10"/>
      <point x="376" y="73"/>
      <point x="376" y="196" type="curve" smooth="yes"/>
      <point x="376" y="290"/>
      <point x="329" y="353"/>
      <point x="243" y="371" type="curve"/>
      <point x="243" y="375" type="line"/>
      <point x="324" y="404"/>
      <point x="364" y="466"/>
    </contour>
  </outline>
</glyph>
<glyph name="four.sinh" format="2">
  <advance width="429"/>
  <unicode hex="0034"/>
  <outline>
    <contour>
      <point x="413" y="157" type="line"/>
      <point x="413" y="225" type="line"/>
      <point x="336" y="225" type="line"/>
      <point x="336" y="720" type="line"/>
      <point x="251" y="720" type="line"/>
      <point x="20" y="221" type="line"/>
      <point x="20" y="157" type="line"/>
      <point x="262" y="157" type="line"/>
      <point x="262" y="0" type="line"/>
      <point x="336" y="0" type="line"/>
      <point x="336" y="157" type="line"/>
    </contour>
    <contour>
      <point x="262" y="225" type="line"/>
      <point x="94" y="225" type="line"/>
      <point x="228" y="525" type="line" smooth="yes"/>
      <point x="240" y="552"/>
      <point x="251" y="580"/>
      <point x="262" y="611" type="curve"/>
      <point x="265" y="611" type="line"/>
      <point x="264" y="583"/>
      <point x="262" y="529"/>
      <point x="262" y="498" type="curve" smooth="yes"/>
    </contour>
  </outline>
</glyph>
<glyph name="five.sinh" format="2">
  <advance width="429"/>
  <unicode hex="0035"/>
  <outline>
    <contour>
      <point x="206" y="437" type="curve" smooth="yes"/>
      <point x="179" y="437"/>
      <point x="156" y="435"/>
      <point x="128" y="428" type="curve"/>
      <point x="143" y="646" type="line"/>
      <point x="346" y="646" type="line"/>
      <point x="346" y="714" type="line"/>
      <point x="76" y="714" type="line"/>
      <point x="55" y="384" type="line"/>
      <point x="87" y="354" type="line"/>
      <point x="119" y="364"/>
      <point x="150" y="370"/>
      <point x="185" y="370" type="curve" smooth="yes"/>
      <point x="258" y="370"/>
      <point x="309" y="324"/>
      <point x="309" y="223" type="curve" smooth="yes"/>
      <point x="309" y="122"/>
      <point x="264" y="58"/>
      <point x="176" y="58" type="curve" smooth="yes"/>
      <point x="120" y="58"/>
      <point x="87" y="69"/>
      <point x="49" y="88" type="curve"/>
      <point x="49" y="13" type="line"/>
      <point x="84" y="-1"/>
      <point x="123" y="-10"/>
      <point x="176" y="-10" type="curve" smooth="yes"/>
      <point x="313" y="-10"/>
      <point x="385" y="85"/>
      <point x="385" y="230" type="curve" smooth="yes"/>
      <point x="385" y="354"/>
      <point x="320" y="437"/>
    </contour>
  </outline>
</glyph>
<glyph name="six.sinh" format="2">
  <advance width="429"/>
  <unicode hex="0036"/>
  <outline>
    <contour>
      <point x="46" y="303" type="curve" smooth="yes"/>
      <point x="46" y="102"/>
      <point x="109" y="-10"/>
      <point x="223" y="-10" type="curve" smooth="yes"/>
      <point x="335" y="-10"/>
      <point x="390" y="93"/>
      <point x="390" y="222" type="curve" smooth="yes"/>
      <point x="390" y="349"/>
      <point x="341" y="449"/>
      <point x="238" y="449" type="curve" smooth="yes"/>
      <point x="185" y="449"/>
      <point x="145" y="422"/>
      <point x="122" y="372" type="curve"/>
      <point x="118" y="372" type="line"/>
      <point x="125" y="557"/>
      <point x="179" y="656"/>
      <point x="279" y="656" type="curve" smooth="yes"/>
      <point x="306" y="656"/>
      <point x="331" y="652"/>
      <point x="353" y="645" type="curve"/>
      <point x="353" y="714" type="line"/>
      <point x="332" y="720"/>
      <point x="307" y="724"/>
      <point x="279" y="724" type="curve" smooth="yes"/>
      <point x="112" y="724"/>
      <point x="46" y="568"/>
    </contour>
    <contour>
      <point x="222" y="58" type="curve" smooth="yes"/>
      <point x="149" y="58"/>
      <point x="122" y="157"/>
      <point x="122" y="254" type="curve" smooth="yes"/>
      <point x="122" y="319"/>
      <point x="157" y="381"/>
      <point x="222" y="381" type="curve" smooth="yes"/>
      <point x="283" y="381"/>
      <point x="315" y="325"/>
      <point x="315" y="221" type="curve" smooth="yes"/>
      <point x="315" y="115"/>
      <point x="280" y="58"/>
    </contour>
  </outline>
</glyph>
<glyph name="seven.sinh" format="2">
  <advance width="429"/>
  <unicode hex="0037"/>
  <outline>
    <contour>
      <point x="93" y="0" type="line"/>
      <point x="176" y="0" type="line"/>
      <point x="393" y="658" type="line"/>
      <point x="393" y="714" type="line"/>
      <point x="31" y="714" type="line"/>
      <point x="31" y="643" type="line"/>
      <point x="312" y="643" type="line"/>
    </contour>
  </outline>
</glyph>
<glyph name="eight.sinh" format="2">
  <advance width="429"/>
  <unicode hex="0038"/>
  <outline>
    <contour>
      <point x="219" y="724" type="curve" smooth="yes"/>
      <point x="116" y="724"/>
      <point x="51" y="658"/>
      <point x="51" y="556" type="curve" smooth="yes"/>
      <point x="51" y="486"/>
      <point x="87" y="426"/>
      <point x="155" y="373" type="curve"/>
      <point x="73" y="318"/>
      <point x="34" y="260"/>
      <point x="34" y="173" type="curve" smooth="yes"/>
      <point x="34" y="64"/>
      <point x="101" y="-10"/>
      <point x="219" y="-10" type="curve" smooth="yes"/>
      <point x="326" y="-10"/>
      <point x="396" y="66"/>
      <point x="396" y="176" type="curve" smooth="yes"/>
      <point x="396" y="267"/>
      <point x="341" y="322"/>
      <point x="266" y="373" type="curve"/>
      <point x="340" y="418"/>
      <point x="380" y="479"/>
      <point x="380" y="557" type="curve" smooth="yes"/>
      <point x="380" y="659"/>
      <point x="319" y="724"/>
    </contour>
    <contour>
      <point x="109" y="171" type="curve" smooth="yes"/>
      <point x="109" y="248"/>
      <point x="140" y="293"/>
      <point x="207" y="338" type="curve"/>
      <point x="230" y="322" type="line"/>
      <point x="292" y="275"/>
      <point x="321" y="228"/>
      <point x="321" y="175" type="curve" smooth="yes"/>
      <point x="321" y="97"/>
      <point x="280" y="56"/>
      <point x="215" y="56" type="curve" smooth="yes"/>
      <point x="151" y="56"/>
      <point x="109" y="98"/>
    </contour>
    <contour>
      <point x="215" y="658" type="curve" smooth="yes"/>
      <point x="275" y="658"/>
      <point x="305" y="612"/>
      <point x="305" y="554" type="curve" smooth="yes"/>
      <point x="305" y="495"/>
      <point x="272" y="446"/>
      <point x="214" y="409" type="curve"/>
      <point x="159" y="447"/>
      <point x="126" y="491"/>
      <point x="126" y="555" type="curve" smooth="yes"/>
      <point x="126" y="618"/>
      <point x="160" y="658"/>
    </contour>
  </outline>
</glyph>
<glyph name="nine.sinh" format="2">
  <advance width="429"/>
  <unicode hex="0039"/>
  <outline>
    <contour>
      <point x="383" y="417" type="curve" smooth="yes"/>
      <point x="383" y="614"/>
      <point x="322" y="724"/>
      <point x="211" y="724" type="curve" smooth="yes"/>
      <point x="94" y="724"/>
      <point x="39" y="621"/>
      <point x="39" y="492" type="curve" smooth="yes"/>
      <point x="39" y="362"/>
      <point x="86" y="265"/>
      <point x="193" y="265" type="curve" smooth="yes"/>
      <point x="242" y="265"/>
      <point x="282" y="292"/>
      <point x="307" y="342" type="curve"/>
      <point x="311" y="342" type="line"/>
      <point x="306" y="197"/>
      <point x="264" y="58"/>
      <point x="146" y="58" type="curve" smooth="yes"/>
      <point x="115" y="58"/>
      <point x="92" y="61"/>
      <point x="71" y="69" type="curve"/>
      <point x="71" y="0" type="line"/>
      <point x="90" y="-5"/>
      <point x="124" y="-10"/>
      <point x="148" y="-10" type="curve" smooth="yes"/>
      <point x="312" y="-10"/>
      <point x="383" y="150"/>
    </contour>
    <contour>
      <point x="210" y="656" type="curve" smooth="yes"/>
      <point x="289" y="656"/>
      <point x="307" y="544"/>
      <point x="307" y="467" type="curve" smooth="yes"/>
      <point x="307" y="398"/>
      <point x="270" y="333"/>
      <point x="208" y="333" type="curve" smooth="yes"/>
      <point x="152" y="333"/>
      <point x="114" y="375"/>
      <point x="114" y="490" type="curve" smooth="yes"/>
      <point x="114" y="602"/>
      <point x="151" y="656"/>
    </contour>
  </outline>
</glyph>
<glyph name="colon.sinh" format="2">
  <advance width="270"/>
  <unicode hex="003A"/>
  <outline>
    <contour>
      <point x="81" y="55" type="curve" smooth="yes"/>
      <point x="81" y="13"/>
      <point x="100" y="-9"/>
      <point x="135" y="-9" type="curve" smooth="yes"/>
      <point x="166" y="-9"/>
      <point x="189" y="11"/>
      <point x="189" y="55" type="curve" smooth="yes"/>
      <point x="189" y="100"/>
      <point x="168" y="119"/>
      <point x="135" y="119" type="curve" smooth="yes"/>
      <point x="99" y="119"/>
      <point x="81" y="97"/>
    </contour>
    <contour>
      <point x="81" y="470" type="curve" smooth="yes"/>
      <point x="81" y="427"/>
      <point x="100" y="405"/>
      <point x="135" y="405" type="curve" smooth="yes"/>
      <point x="166" y="405"/>
      <point x="189" y="426"/>
      <point x="189" y="470" type="curve" smooth="yes"/>
      <point x="189" y="512"/>
      <point x="170" y="534"/>
      <point x="135" y="534" type="curve" smooth="yes"/>
      <point x="99" y="534"/>
      <point x="81" y="512"/>
    </contour>
  </outline>
</glyph>
<glyph name="semicolon.sinh" format="2">
  <advance width="270"/>
  <unicode hex="003B"/>
  <outline>
    <contour>
      <point x="185" y="114" type="line"/>
      <point x="100" y="114" type="line"/>
      <point x="92" y="42"/>
      <point x="76" y="-50"/>
      <point x="54" y="-132" type="curve"/>
      <point x="116" y="-132" type="line"/>
      <point x="148" y="-60"/>
      <point x="173" y="19"/>
      <point x="192" y="103" type="curve"/>
    </contour>
    <contour>
      <point x="81" y="470" type="curve" smooth="yes"/>
      <point x="81" y="427"/>
      <point x="100" y="405"/>
      <point x="135" y="405" type="curve" smooth="yes"/>
      <point x="166" y="405"/>
      <point x="189" y="426"/>
      <point x="189" y="470" type="curve" smooth="yes"/>
      <point x="189" y="512"/>
      <point x="170" y="534"/>
      <point x="135" y="534" type="curve" smooth="yes"/>
      <point x="99" y="534"/>
      <point x="81" y="512"/>
    </contour>
  </outline>
</glyph>
<glyph name="question.sinh" format="2">
  <advance width="341"/>
  <unicode hex="003F"/>
  <outline>
    <contour>
      <point x="107" y="201" type="line"/>
      <point x="172" y="201" type="line"/>
      <point x="172" y="221" type="line" smooth="yes"/>
      <point x="172" y="275"/>
      <point x="183" y="307"/>
      <point x="223" y="359" type="curve" smooth="yes"/>
      <point x="280" y="434"/>
      <point x="306" y="474"/>
      <point x="306" y="563" type="curve" smooth="yes"/>
      <point x="306" y="660"/>
      <point x="252" y="724"/>
      <point x="154" y="724" type="curve" smooth="yes"/>
      <point x="103" y="724"/>
      <point x="60" y="708"/>
      <point x="21" y="687" type="curve"/>
      <point x="52" y="624" type="line"/>
      <point x="80" y="639"/>
      <point x="110" y="652"/>
      <point x="145" y="652" type="curve" smooth="yes"/>
      <point x="201" y="652"/>
      <point x="228" y="618"/>
      <point x="228" y="554" type="curve" smooth="yes"/>
      <point x="228" y="496"/>
      <point x="207" y="455"/>
      <point x="160" y="394" type="curve" smooth="yes"/>
      <point x="119" y="342"/>
      <point x="107" y="298"/>
      <point x="107" y="230" type="curve" smooth="yes"/>
    </contour>
    <contour>
      <point x="87" y="55" type="curve" smooth="yes"/>
      <point x="87" y="13"/>
      <point x="107" y="-9"/>
      <point x="141" y="-9" type="curve" smooth="yes"/>
      <point x="173" y="-9"/>
      <point x="195" y="11"/>
      <point x="195" y="55" type="curve" smooth="yes"/>
      <point x="195" y="100"/>
      <point x="174" y="119"/>
      <point x="141" y="119" type="curve" smooth="yes"/>
      <point x="106" y="119"/>
      <point x="87" y="97"/>
    </contour>
  </outline>
</glyph>
<glyph name="bracketleft.sinh" format="2">
  <advance width="336"/>
  <unicode hex="005B"/>
  <outline>
    <contour>
      <point x="291" y="-216" type="line"/>
      <point x="291" y="-153" type="line"/>
      <point x="151" y="-153" type="line"/>
      <point x="151" y="736" type="line"/>
      <point x="291" y="736" type="line"/>
      <point x="291" y="799" type="line"/>
      <point x="78" y="799" type="line"/>
      <point x="78" y="-216" type="line"/>
    </contour>
  </outline>
</glyph>
<glyph name="backslash.sinh" format="2">
  <advance width="405"/>
  <unicode hex="005C"/>
  <outline>
    <contour>
      <point x="108" y="799" type="line"/>
      <point x="34" y="799" type="line"/>
      <point x="297" y="-216" type="line"/>
      <point x="371" y="-216" type="line"/>
    </contour>
  </outline>
</glyph>
<glyph name="bracketright.sinh" format="2">
  <advance width="336"/>
  <unicode hex="005D"/>
  <outline>
    <contour>
      <point x="45" y="-153" type="line"/>
      <point x="45" y="-216" type="line"/>
      <point x="258" y="-216" type="line"/>
      <point x="258" y="799" type="line"/>
      <point x="45" y="799" type="line"/>
      <point x="45" y="736" type="line"/>
      <point x="185" y="736" type="line"/>
      <point x="185" y="-153" type="line"/>
    </contour>
  </outline>
</glyph>
<glyph name="braceleft.sinh" format="2">
  <advance width="389"/>
  <unicode hex="007B"/>
  <outline>
    <contour>
      <point x="344" y="-216" type="curve"/>
      <point x="344" y="-151" type="line"/>
      <point x="268" y="-150"/>
      <point x="226" y="-123"/>
      <point x="226" y="-58" type="curve" smooth="yes"/>
      <point x="226" y="167" type="line" smooth="yes"/>
      <point x="226" y="235"/>
      <point x="195" y="276"/>
      <point x="124" y="289" type="curve"/>
      <point x="124" y="295" type="line"/>
      <point x="194" y="308"/>
      <point x="226" y="349"/>
      <point x="226" y="417" type="curve" smooth="yes"/>
      <point x="226" y="640" type="line" smooth="yes"/>
      <point x="226" y="705"/>
      <point x="271" y="732"/>
      <point x="344" y="734" type="curve"/>
      <point x="344" y="799" type="line"/>
      <point x="228" y="799"/>
      <point x="150" y="748"/>
      <point x="150" y="642" type="curve" smooth="yes"/>
      <point x="150" y="417" type="line" smooth="yes"/>
      <point x="150" y="350"/>
      <point x="106" y="325"/>
      <point x="25" y="324" type="curve"/>
      <point x="25" y="259" type="line"/>
      <point x="106" y="259"/>
      <point x="150" y="233"/>
      <point x="150" y="165" type="curve" smooth="yes"/>
      <point x="150" y="-57" type="line" smooth="yes"/>
      <point x="150" y="-164"/>
      <point x="222" y="-215"/>
    </contour>
  </outline>
</glyph>
<glyph name="bar.sinh" format="2">
  <advance width="551"/>
  <unicode hex="007C"/>
  <outline>
    <contour>
      <point x="239" y="799" type="line"/>
      <point x="239" y="-216" type="line"/>
      <point x="312" y="-216" type="line"/>
      <point x="312" y="799" type="line"/>
    </contour>
  </outline>
</glyph>
<glyph name="braceright.sinh" format="2">
  <advance width="389"/>
  <unicode hex="007D"/>
  <outline>
    <contour>
      <point x="45" y="799" type="curve"/>
      <point x="45" y="734" type="line"/>
      <point x="121" y="733"/>
      <point x="163" y="706"/>
      <point x="163" y="641" type="curve" smooth="yes"/>
      <point x="163" y="416" type="line" smooth="yes"/>
      <point x="163" y="348"/>
      <point x="194" y="307"/>
      <point x="265" y="294" type="curve"/>
      <point x="265" y="288" type="line"/>
      <point x="195" y="275"/>
      <point x="163" y="234"/>
      <point x="163" y="166" type="curve" smooth="yes"/>
      <point x="163" y="-57" type="line" smooth="yes"/>
      <point x="163" y="-122"/>
      <point x="118" y="-149"/>
      <point x="45" y="-151" type="curve"/>
      <point x="45" y="-216" type="line"/>
      <point x="161" y="-216"/>
      <point x="239" y="-165"/>
      <point x="239" y="-59" type="curve" smooth="yes"/>
      <point x="239" y="166" type="line" smooth="yes"/>
      <point x="239" y="233"/>
      <point x="283" y="258"/>
      <point x="364" y="259" type="curve"/>
      <point x="364" y="324" type="line"/>
      <point x="283" y="324"/>
      <point x="239" y="350"/>
      <point x="239" y="418" type="curve" smooth="yes"/>
      <point x="239" y="640" type="line" smooth="yes"/>
      <point x="239" y="747"/>
      <point x="167" y="798"/>
    </contour>
  </outline>
</glyph>
<glyph name="dbldanda.sinh" format="2">
  <advance width="503"/>
  <unicode hex="0965"/>
  <outline>
    <contour>
      <point x="154" y="662" type="line"/>
      <point x="154" y="-50" type="line"/>
      <point x="224" y="-50" type="line"/>
      <point x="224" y="662" type="line"/>
    </contour>
    <contour>
      <point x="329" y="662" type="line"/>
      <point x="329" y="-50" type="line"/>
      <point x="399" y="-50" type="line"/>
      <point x="399" y="662" type="line"/>
    </contour>
  </outline>
</glyph>
<glyph name="anusvarasinh" format="2">
  <advance width="369"/>
  <unicode hex="0D82"/>
  <outline>
    <contour>
      <point x="30" y="266" type="curve" smooth="yes"/>
      <point x="30" y="141"/>
      <point x="88" y="68"/>
      <point x="185" y="68" type="curve" smooth="yes"/>
      <point x="277" y="68"/>
      <point x="339" y="136"/>
      <point x="339" y="266" type="curve" smooth="yes"/>
      <point x="339" y="394"/>
      <point x="278" y="464"/>
      <point x="185" y="464" type="curve" smooth="yes"/>
      <point x="90" y="464"/>
      <point x="30" y="392"/>
    </contour>
    <contour>
      <point x="99" y="266" type="curve" smooth="yes"/>
      <point x="99" y="352"/>
      <point x="128" y="400"/>
      <point x="184" y="400" type="curve" smooth="yes"/>
      <point x="240" y="400"/>
      <point x="270" y="355"/>
      <point x="270" y="266" type="curve" smooth="yes"/>
      <point x="270" y="171"/>
      <point x="236" y="132"/>
      <point x="184" y="132" type="curve" smooth="yes"/>
      <point x="129" y="132"/>
      <point x="99" y="175"/>
    </contour>
  </outline>
</glyph>
<glyph name="visargasinh" format="2">
  <advance width="259"/>
  <unicode hex="0D83"/>
  <outline>
    <contour>
      <point x="230" y="424" type="curve" smooth="yes"/>
      <point x="230" y="500"/>
      <point x="191" y="544"/>
      <point x="129" y="544" type="curve" smooth="yes"/>
      <point x="69" y="544"/>
      <point x="29" y="501"/>
      <point x="29" y="423" type="curve" smooth="yes"/>
      <point x="29" y="349"/>
      <point x="65" y="301"/>
      <point x="129" y="301" type="curve" smooth="yes"/>
      <point x="190" y="301"/>
      <point x="230" y="344"/>
    </contour>
    <contour>
      <point x="173" y="423" type="curve" smooth="yes"/>
      <point x="173" y="380"/>
      <point x="159" y="357"/>
      <point x="128" y="357" type="curve" smooth="yes"/>
      <point x="94" y="357"/>
      <point x="86" y="389"/>
      <point x="86" y="424" type="curve" smooth="yes"/>
      <point x="86" y="462"/>
      <point x="99" y="488"/>
      <point x="129" y="488" type="curve" smooth="yes"/>
      <point x="162" y="488"/>
      <point x="173" y="459"/>
    </contour>
    <contour>
      <point x="230" y="123" type="curve" smooth="yes"/>
      <point x="230" y="199"/>
      <point x="191" y="243"/>
      <point x="129" y="243" type="curve" smooth="yes"/>
      <point x="69" y="243"/>
      <point x="29" y="200"/>
      <point x="29" y="122" type="curve" smooth="yes"/>
      <point x="29" y="48"/>
      <point x="65" y="0"/>
      <point x="129" y="0" type="curve" smooth="yes"/>
      <point x="190" y="0"/>
      <point x="230" y="43"/>
    </contour>
    <contour>
      <point x="173" y="122" type="curve" smooth="yes"/>
      <point x="173" y="79"/>
      <point x="159" y="56"/>
      <point x="128" y="56" type="curve" smooth="yes"/>
      <point x="94" y="56"/>
      <point x="86" y="88"/>
      <point x="86" y="123" type="curve" smooth="yes"/>
      <point x="86" y="161"/>
      <point x="99" y="187"/>
      <point x="129" y="187" type="curve" smooth="yes"/>
      <point x="162" y="187"/>
      <point x="173" y="158"/>
    </contour>
  </outline>
</glyph>
<glyph name="asinh" format="2">
  <advance width="549"/>
  <unicode hex="0D85"/>
  <outline>
    <contour>
      <point x="271" y="-11" type="curve" smooth="yes"/>
      <point x="325" y="-11"/>
      <point x="409" y="-8"/>
      <point x="481" y="30" type="curve"/>
      <point x="456" y="92" type="line"/>
      <point x="430" y="79"/>
      <point x="407" y="70"/>
      <point x="377" y="64" type="curve"/>
      <point x="345" y="60" type="line"/>
      <point x="329" y="58"/>
      <point x="303" y="57"/>
      <point x="281" y="57" type="curve" smooth="yes"/>
      <point x="153" y="57"/>
      <point x="103" y="125"/>
      <point x="103" y="229" type="curve" smooth="yes"/>
      <point x="103" y="280"/>
      <point x="118" y="317"/>
      <point x="145" y="343" type="curve" smooth="yes"/>
      <point x="181" y="378"/>
      <point x="236" y="393"/>
      <point x="326" y="393" type="curve" smooth="yes"/>
      <point x="390" y="393" type="line"/>
      <point x="390" y="413" type="line" smooth="yes"/>
      <point x="390" y="547"/>
      <point x="350" y="612"/>
      <point x="273" y="612" type="curve" smooth="yes"/>
      <point x="205" y="612"/>
      <point x="165" y="572"/>
      <point x="165" y="499" type="curve" smooth="yes"/>
      <point x="165" y="488"/>
      <point x="166" y="478"/>
      <point x="167" y="469" type="curve"/>
      <point x="234" y="475" type="line"/>
      <point x="233" y="479"/>
      <point x="233" y="487"/>
      <point x="233" y="492" type="curve" smooth="yes"/>
      <point x="233" y="526"/>
      <point x="247" y="549"/>
      <point x="278" y="549" type="curve" smooth="yes"/>
      <point x="311" y="549"/>
      <point x="330" y="519"/>
      <point x="332" y="455" type="curve"/>
      <point x="327" y="455" type="line" smooth="yes"/>
      <point x="222" y="455"/>
      <point x="164" y="440"/>
      <point x="114" y="405" type="curve" smooth="yes"/>
      <point x="65" y="370"/>
      <point x="33" y="307"/>
      <point x="33" y="228" type="curve" smooth="yes"/>
      <point x="33" y="68"/>
      <point x="132" y="-11"/>
    </contour>
    <contour>
      <point x="332" y="-202" type="line"/>
      <point x="398" y="-202" type="line"/>
      <point x="398" y="409" type="line" smooth="yes"/>
      <point x="398" y="462"/>
      <point x="414" y="498"/>
      <point x="437" y="528" type="curve" smooth="yes"/>
      <point x="447" y="541"/>
      <point x="461" y="558"/>
      <point x="479" y="572" type="curve"/>
      <point x="425" y="613" type="line"/>
      <point x="370" y="545"/>
      <point x="343" y="495"/>
      <point x="332" y="400" type="curve"/>
    </contour>
    <contour>
      <point x="429" y="277" type="curve" smooth="yes"/>
      <point x="500" y="277"/>
      <point x="532" y="312"/>
      <point x="532" y="372" type="curve" smooth="yes"/>
      <point x="532" y="404"/>
      <point x="518" y="434"/>
      <point x="498" y="477" type="curve" smooth="yes"/>
      <point x="480" y="515"/>
      <point x="473" y="532"/>
      <point x="473" y="548" type="curve" smooth="yes"/>
      <point x="473" y="557"/>
      <point x="475" y="564"/>
      <point x="479" y="572" type="curve"/>
      <point x="427" y="542" type="line"/>
      <point x="427" y="497"/>
      <point x="432" y="471"/>
      <point x="445" y="444" type="curve" smooth="yes"/>
      <point x="461" y="410"/>
      <point x="465" y="393"/>
      <point x="465" y="375" type="curve" smooth="yes"/>
      <point x="465" y="351"/>
      <point x="450" y="341"/>
      <point x="426" y="341" type="curve" smooth="yes"/>
      <point x="407" y="341"/>
      <point x="388" y="345"/>
      <point x="364" y="361" type="curve"/>
      <point x="351" y="301" type="line"/>
      <point x="374" y="284"/>
      <point x="407" y="277"/>
    </contour>
  </outline>
</glyph>
<glyph name="isinh" format="2">
  <advance width="582"/>
  <unicode hex="0D89"/>
  <outline>
    <contour>
      <point x="217" y="73" type="curve" smooth="yes"/>
      <point x="322" y="73"/>
      <point x="387" y="142"/>
      <point x="387" y="268" type="curve" smooth="yes"/>
      <point x="387" y="394"/>
      <point x="332" y="430"/>
      <point x="280" y="430" type="curve" smooth="yes"/>
      <point x="212" y="430"/>
      <point x="176" y="379"/>
      <point x="176" y="318" type="curve" smooth="yes"/>
      <point x="176" y="245"/>
      <point x="206" y="210"/>
      <point x="269" y="210" type="curve" smooth="yes"/>
      <point x="309" y="210"/>
      <point x="327" y="226"/>
      <point x="353" y="252" type="curve"/>
      <point x="334" y="298" type="line"/>
      <point x="312" y="274"/>
      <point x="296" y="269"/>
      <point x="274" y="269" type="curve" smooth="yes"/>
      <point x="250" y="269"/>
      <point x="237" y="284"/>
      <point x="237" y="317" type="curve" smooth="yes"/>
      <point x="237" y="353"/>
      <point x="255" y="369"/>
      <point x="278" y="369" type="curve" smooth="yes"/>
      <point x="308" y="369"/>
      <point x="324" y="340"/>
      <point x="324" y="272" type="curve"/>
      <point x="325" y="262" type="line"/>
      <point x="318" y="157"/>
      <point x="262" y="138"/>
      <point x="221" y="138" type="curve" smooth="yes"/>
      <point x="152" y="138"/>
      <point x="100" y="184"/>
      <point x="100" y="316" type="curve" smooth="yes"/>
      <point x="100" y="483"/>
      <point x="185" y="547"/>
      <point x="290" y="547" type="curve" smooth="yes"/>
      <point x="426" y="547"/>
      <point x="479" y="435"/>
      <point x="479" y="300" type="curve" smooth="yes"/>
      <point x="479" y="151"/>
      <point x="419" y="66"/>
      <point x="310" y="66" type="curve"/>
      <point x="309" y="0" type="line"/>
      <point x="466" y="0"/>
      <point x="549" y="127"/>
      <point x="549" y="301" type="curve" smooth="yes"/>
      <point x="549" y="480"/>
      <point x="465" y="612"/>
      <point x="291" y="612" type="curve" smooth="yes"/>
      <point x="146" y="612"/>
      <point x="31" y="518"/>
      <point x="31" y="319" type="curve" smooth="yes"/>
      <point x="31" y="155"/>
      <point x="106" y="73"/>
    </contour>
    <contour>
      <point x="288" y="-216" type="curve" smooth="yes"/>
      <point x="406" y="-216"/>
      <point x="445" y="-137"/>
      <point x="445" y="-51" type="curve" smooth="yes"/>
      <point x="445" y="-4"/>
      <point x="435" y="38"/>
      <point x="423" y="65" type="curve"/>
      <point x="366" y="62" type="line"/>
      <point x="355" y="45" type="line"/>
      <point x="367" y="17"/>
      <point x="376" y="-16"/>
      <point x="376" y="-54" type="curve" smooth="yes"/>
      <point x="376" y="-113"/>
      <point x="348" y="-150"/>
      <point x="289" y="-150" type="curve" smooth="yes"/>
      <point x="219" y="-150"/>
      <point x="208" y="-97"/>
      <point x="208" y="-48" type="curve" smooth="yes"/>
      <point x="208" y="-31"/>
      <point x="208" y="-18"/>
      <point x="210" y="-5" type="curve"/>
      <point x="142" y="0" type="line"/>
      <point x="140" y="-12"/>
      <point x="139" y="-26"/>
      <point x="139" y="-48" type="curve" smooth="yes"/>
      <point x="139" y="-133"/>
      <point x="175" y="-216"/>
    </contour>
  </outline>
</glyph>
<glyph name="iisinh" format="2">
  <advance width="528"/>
  <unicode hex="0D8A"/>
  <outline>
    <contour>
      <point x="257" y="-11" type="curve" smooth="yes"/>
      <point x="405" y="-11"/>
      <point x="494" y="86"/>
      <point x="494" y="283" type="curve" smooth="yes"/>
      <point x="494" y="483"/>
      <point x="406" y="564"/>
      <point x="297" y="564" type="curve" smooth="yes"/>
      <point x="259" y="564"/>
      <point x="237" y="559"/>
      <point x="222" y="553" type="curve"/>
      <point x="161" y="487" type="line"/>
      <point x="194" y="499"/>
      <point x="232" y="507"/>
      <point x="266" y="507" type="curve" smooth="yes"/>
      <point x="369" y="507"/>
      <point x="424" y="436"/>
      <point x="424" y="281" type="curve" smooth="yes"/>
      <point x="424" y="142"/>
      <point x="372" y="57"/>
      <point x="257" y="57" type="curve" smooth="yes"/>
      <point x="153" y="57"/>
      <point x="105" y="132"/>
      <point x="105" y="267" type="curve" smooth="yes"/>
      <point x="105" y="383"/>
      <point x="156" y="469"/>
      <point x="268" y="523" type="curve"/>
      <point x="276" y="538" type="line"/>
      <point x="337" y="586"/>
      <point x="386" y="663"/>
      <point x="437" y="777" type="curve"/>
      <point x="375" y="805" type="line"/>
      <point x="334" y="710"/>
      <point x="284" y="618"/>
      <point x="243" y="584" type="curve"/>
      <point x="114" y="511"/>
      <point x="35" y="424"/>
      <point x="35" y="264" type="curve" smooth="yes"/>
      <point x="35" y="84"/>
      <point x="115" y="-11"/>
    </contour>
    <contour>
      <point x="288" y="717" type="curve" smooth="yes"/>
      <point x="288" y="774"/>
      <point x="257" y="805"/>
      <point x="218" y="805" type="curve" smooth="yes"/>
      <point x="170" y="805"/>
      <point x="145" y="768"/>
      <point x="145" y="715" type="curve" smooth="yes"/>
      <point x="145" y="665"/>
      <point x="170" y="628"/>
      <point x="216" y="628" type="curve" smooth="yes"/>
      <point x="257" y="628"/>
      <point x="288" y="658"/>
    </contour>
    <contour>
      <point x="242" y="717" type="curve" smooth="yes"/>
      <point x="242" y="685"/>
      <point x="232" y="674"/>
      <point x="216" y="674" type="curve" smooth="yes"/>
      <point x="198" y="674"/>
      <point x="191" y="690"/>
      <point x="191" y="716" type="curve" smooth="yes"/>
      <point x="191" y="748"/>
      <point x="202" y="759"/>
      <point x="217" y="759" type="curve" smooth="yes"/>
      <point x="233" y="759"/>
      <point x="242" y="745"/>
    </contour>
    <contour>
      <point x="537" y="622" type="curve" smooth="yes"/>
      <point x="537" y="679"/>
      <point x="506" y="710"/>
      <point x="467" y="710" type="curve" smooth="yes"/>
      <point x="419" y="710"/>
      <point x="394" y="673"/>
      <point x="394" y="620" type="curve" smooth="yes"/>
      <point x="394" y="570"/>
      <point x="419" y="533"/>
      <point x="465" y="533" type="curve" smooth="yes"/>
      <point x="506" y="533"/>
      <point x="537" y="563"/>
    </contour>
    <contour>
      <point x="491" y="622" type="curve" smooth="yes"/>
      <point x="491" y="590"/>
      <point x="481" y="579"/>
      <point x="465" y="579" type="curve" smooth="yes"/>
      <point x="447" y="579"/>
      <point x="440" y="595"/>
      <point x="440" y="621" type="curve" smooth="yes"/>
      <point x="440" y="653"/>
      <point x="451" y="664"/>
      <point x="466" y="664" type="curve" smooth="yes"/>
      <point x="482" y="664"/>
      <point x="491" y="650"/>
    </contour>
  </outline>
</glyph>
<glyph name="usinh" format="2">
  <advance width="529"/>
  <unicode hex="0D8B"/>
  <outline>
    <contour>
      <point x="291" y="-211" type="curve" smooth="yes"/>
      <point x="441" y="-211"/>
      <point x="529" y="-124"/>
      <point x="529" y="44" type="curve" smooth="yes"/>
      <point x="529" y="61"/>
      <point x="528" y="72"/>
      <point x="527" y="80" type="curve"/>
      <point x="459" y="77" type="line"/>
      <point x="460" y="68"/>
      <point x="460" y="57"/>
      <point x="460" y="51" type="curve" smooth="yes"/>
      <point x="460" y="-86"/>
      <point x="391" y="-143"/>
      <point x="291" y="-143" type="curve" smooth="yes"/>
      <point x="161" y="-143"/>
      <point x="99" y="-56"/>
      <point x="99" y="104" type="curve" smooth="yes"/>
      <point x="99" y="199"/>
      <point x="119" y="260"/>
      <point x="153" y="303" type="curve" smooth="yes"/>
      <point x="203" y="367"/>
      <point x="281" y="393"/>
      <point x="409" y="393" type="curve" smooth="yes"/>
      <point x="494" y="393" type="line"/>
      <point x="494" y="431" type="line" smooth="yes"/>
      <point x="494" y="549"/>
      <point x="453" y="612"/>
      <point x="362" y="612" type="curve" smooth="yes"/>
      <point x="288" y="612"/>
      <point x="248" y="572"/>
      <point x="248" y="499" type="curve" smooth="yes"/>
      <point x="248" y="488"/>
      <point x="249" y="478"/>
      <point x="250" y="469" type="curve"/>
      <point x="317" y="475" type="line"/>
      <point x="316" y="479"/>
      <point x="316" y="487"/>
      <point x="316" y="492" type="curve" smooth="yes"/>
      <point x="316" y="527"/>
      <point x="330" y="549"/>
      <point x="367" y="549" type="curve" smooth="yes"/>
      <point x="407" y="549"/>
      <point x="426" y="519"/>
      <point x="428" y="455" type="curve"/>
      <point x="388" y="455" type="line" smooth="yes"/>
      <point x="258" y="455"/>
      <point x="174" y="425"/>
      <point x="111" y="359" type="curve" smooth="yes"/>
      <point x="60" y="307"/>
      <point x="28" y="220"/>
      <point x="28" y="103" type="curve" smooth="yes"/>
      <point x="28" y="-80"/>
      <point x="105" y="-211"/>
    </contour>
  </outline>
</glyph>
<glyph name="lvocalicsinh" format="2">
  <advance width="832"/>
  <unicode hex="0D8F"/>
  <outline>
    <contour>
      <point x="415" y="-11" type="curve" smooth="yes"/>
      <point x="589" y="-11"/>
      <point x="679" y="90"/>
      <point x="679" y="247" type="curve" smooth="yes"/>
      <point x="679" y="376"/>
      <point x="600" y="455"/>
      <point x="480" y="455" type="curve"/>
      <point x="463" y="455" type="line"/>
      <point x="495" y="452" type="line"/>
      <point x="497" y="519"/>
      <point x="515" y="549"/>
      <point x="547" y="549" type="curve" smooth="yes"/>
      <point x="577" y="549"/>
      <point x="593" y="529"/>
      <point x="593" y="489" type="curve" smooth="yes"/>
      <point x="593" y="481"/>
      <point x="591" y="464"/>
      <point x="590" y="457" type="curve"/>
      <point x="653" y="448" type="line"/>
      <point x="656" y="464"/>
      <point x="658" y="480"/>
      <point x="658" y="497" type="curve" smooth="yes"/>
      <point x="658" y="557"/>
      <point x="620" y="612"/>
      <point x="554" y="612" type="curve" smooth="yes"/>
      <point x="470" y="612"/>
      <point x="429" y="549"/>
      <point x="429" y="431" type="curve" smooth="yes"/>
      <point x="429" y="393" type="line"/>
      <point x="453" y="393" type="line" smooth="yes"/>
      <point x="510" y="393"/>
      <point x="550" y="379"/>
      <point x="575" y="353" type="curve" smooth="yes"/>
      <point x="598" y="328"/>
      <point x="610" y="296"/>
      <point x="610" y="246" type="curve" smooth="yes"/>
      <point x="610" y="139"/>
      <point x="556" y="57"/>
      <point x="416" y="57" type="curve" smooth="yes"/>
      <point x="274" y="57"/>
      <point x="222" y="139"/>
      <point x="222" y="246" type="curve" smooth="yes"/>
      <point x="222" y="296"/>
      <point x="234" y="328"/>
      <point x="257" y="353" type="curve" smooth="yes"/>
      <point x="282" y="379"/>
      <point x="322" y="393"/>
      <point x="379" y="393" type="curve" smooth="yes"/>
      <point x="403" y="393" type="line"/>
      <point x="403" y="431" type="line" smooth="yes"/>
      <point x="403" y="549"/>
      <point x="362" y="612"/>
      <point x="278" y="612" type="curve" smooth="yes"/>
      <point x="212" y="612"/>
      <point x="174" y="557"/>
      <point x="174" y="497" type="curve" smooth="yes"/>
      <point x="174" y="480"/>
      <point x="176" y="464"/>
      <point x="179" y="448" type="curve"/>
      <point x="242" y="457" type="line"/>
      <point x="241" y="464"/>
      <point x="239" y="481"/>
      <point x="239" y="489" type="curve" smooth="yes"/>
      <point x="239" y="529"/>
      <point x="255" y="549"/>
      <point x="284" y="549" type="curve" smooth="yes"/>
      <point x="317" y="549"/>
      <point x="335" y="519"/>
      <point x="337" y="452" type="curve"/>
      <point x="369" y="455" type="line"/>
      <point x="357" y="455" type="line"/>
      <point x="227" y="455"/>
      <point x="153" y="373"/>
      <point x="153" y="249" type="curve" smooth="yes"/>
      <point x="153" y="90"/>
      <point x="243" y="-11"/>
    </contour>
    <contour>
      <point x="34" y="347" type="curve" smooth="yes"/>
      <point x="34" y="238"/>
      <point x="62" y="140"/>
      <point x="84" y="83" type="curve"/>
      <point x="147" y="105" type="line"/>
      <point x="123" y="163"/>
      <point x="102" y="247"/>
      <point x="102" y="342" type="curve" smooth="yes"/>
      <point x="102" y="462"/>
      <point x="148" y="526"/>
      <point x="211" y="552" type="curve"/>
      <point x="228" y="556"/>
      <point x="247" y="556"/>
      <point x="273" y="556" type="curve" smooth="yes"/>
      <point x="279" y="556"/>
      <point x="292" y="554"/>
      <point x="297" y="554" type="curve"/>
      <point x="329" y="592" type="line"/>
      <point x="304" y="605"/>
      <point x="278" y="611"/>
      <point x="254" y="611" type="curve" smooth="yes"/>
      <point x="130" y="611"/>
      <point x="34" y="517"/>
    </contour>
    <contour>
      <point x="798" y="347" type="curve" smooth="yes"/>
      <point x="798" y="517"/>
      <point x="703" y="611"/>
      <point x="578" y="611" type="curve" smooth="yes"/>
      <point x="554" y="611"/>
      <point x="528" y="604"/>
      <point x="503" y="591" type="curve"/>
      <point x="535" y="554" type="line"/>
      <point x="540" y="554"/>
      <point x="553" y="556"/>
      <point x="559" y="556" type="curve" smooth="yes"/>
      <point x="585" y="556"/>
      <point x="604" y="556"/>
      <point x="621" y="552" type="curve"/>
      <point x="684" y="526"/>
      <point x="730" y="462"/>
      <point x="730" y="342" type="curve" smooth="yes"/>
      <point x="730" y="247"/>
      <point x="709" y="163"/>
      <point x="685" y="105" type="curve"/>
      <point x="748" y="83" type="line"/>
      <point x="770" y="140"/>
      <point x="798" y="238"/>
    </contour>
  </outline>
</glyph>
<glyph name="esinh" format="2">
  <advance width="610"/>
  <unicode hex="0D91"/>
  <outline>
    <contour>
      <point x="270" y="-11" type="curve" smooth="yes"/>
      <point x="490" y="-11"/>
      <point x="575" y="155"/>
      <point x="575" y="385" type="curve" smooth="yes"/>
      <point x="575" y="602"/>
      <point x="475" y="748"/>
      <point x="315" y="835" type="curve"/>
      <point x="282" y="782" type="line"/>
      <point x="296" y="775"/>
      <point x="314" y="766"/>
      <point x="326" y="758" type="curve" smooth="yes"/>
      <point x="438" y="687"/>
      <point x="505" y="562"/>
      <point x="505" y="387" type="curve" smooth="yes"/>
      <point x="505" y="216"/>
      <point x="456" y="57"/>
      <point x="273" y="57" type="curve"/>
      <point x="164" y="57"/>
      <point x="113" y="125"/>
      <point x="113" y="226" type="curve" smooth="yes"/>
      <point x="113" y="282"/>
      <point x="127" y="321"/>
      <point x="152" y="347" type="curve" smooth="yes"/>
      <point x="185" y="381"/>
      <point x="229" y="393"/>
      <point x="312" y="393" type="curve" smooth="yes"/>
      <point x="329" y="393" type="line"/>
      <point x="329" y="431" type="line" smooth="yes"/>
      <point x="329" y="549"/>
      <point x="286" y="612"/>
      <point x="204" y="612" type="curve" smooth="yes"/>
      <point x="137" y="612"/>
      <point x="97" y="572"/>
      <point x="97" y="497" type="curve" smooth="yes"/>
      <point x="97" y="490"/>
      <point x="97" y="481"/>
      <point x="98" y="474" type="curve"/>
      <point x="166" y="478" type="line"/>
      <point x="165" y="484"/>
      <point x="165" y="490"/>
      <point x="165" y="493" type="curve" smooth="yes"/>
      <point x="165" y="528"/>
      <point x="179" y="549"/>
      <point x="209" y="549" type="curve" smooth="yes"/>
      <point x="242" y="549"/>
      <point x="260" y="519"/>
      <point x="263" y="455" type="curve"/>
      <point x="26" y="455" type="line"/>
      <point x="26" y="393" type="line"/>
      <point x="59" y="393" type="line" smooth="yes"/>
      <point x="83" y="393"/>
      <point x="128" y="395"/>
      <point x="158" y="402" type="curve"/>
      <point x="166" y="416" type="line"/>
      <point x="97" y="392"/>
      <point x="45" y="326"/>
      <point x="45" y="222" type="curve" smooth="yes"/>
      <point x="45" y="91"/>
      <point x="120" y="-11"/>
    </contour>
    <contour>
      <point x="398" y="524" type="curve" smooth="yes"/>
      <point x="457" y="524"/>
      <point x="485" y="560"/>
      <point x="510" y="595" type="curve"/>
      <point x="473" y="646" type="line"/>
      <point x="447" y="599"/>
      <point x="429" y="588"/>
      <point x="404" y="588" type="curve" smooth="yes"/>
      <point x="381" y="588"/>
      <point x="370" y="608"/>
      <point x="369" y="654" type="curve" smooth="yes"/>
      <point x="367" y="736"/>
      <point x="350" y="766"/>
      <point x="314" y="801" type="curve"/>
      <point x="282" y="782" type="line"/>
      <point x="297" y="768"/>
      <point x="304" y="748"/>
      <point x="304" y="662" type="curve" smooth="yes"/>
      <point x="304" y="571"/>
      <point x="341" y="524"/>
    </contour>
  </outline>
</glyph>
<glyph name="eesinh" format="2">
  <advance width="610"/>
  <unicode hex="0D92"/>
  <outline>
    <contour>
      <point x="501" y="653" type="line"/>
      <point x="501" y="854" type="line"/>
      <point x="480" y="903" type="line"/>
      <point x="474" y="932"/>
      <point x="457" y="962"/>
      <point x="428" y="973" type="curve"/>
      <point x="391" y="918" type="line"/>
      <point x="407" y="909"/>
      <point x="417" y="900"/>
      <point x="425" y="889" type="curve" smooth="yes"/>
      <point x="440" y="867"/>
      <point x="442" y="847"/>
      <point x="442" y="807" type="curve" smooth="yes"/>
      <point x="442" y="796" type="line" smooth="yes"/>
      <point x="442" y="769"/>
      <point x="443" y="735"/>
      <point x="446" y="709" type="curve"/>
    </contour>
    <contour>
      <point x="533" y="783" type="curve" smooth="yes"/>
      <point x="583" y="783"/>
      <point x="610" y="822"/>
      <point x="610" y="881" type="curve" smooth="yes"/>
      <point x="610" y="942"/>
      <point x="583" y="973"/>
      <point x="540" y="973" type="curve" smooth="yes"/>
      <point x="495" y="973"/>
      <point x="477" y="941"/>
      <point x="469" y="905" type="curve"/>
      <point x="501" y="845" type="line"/>
      <point x="501" y="858" type="line" smooth="yes"/>
      <point x="501" y="898"/>
      <point x="509" y="919"/>
      <point x="532" y="919" type="curve" smooth="yes"/>
      <point x="548" y="919"/>
      <point x="560" y="909"/>
      <point x="560" y="880" type="curve" smooth="yes"/>
      <point x="560" y="850"/>
      <point x="550" y="837"/>
      <point x="525" y="837" type="curve" smooth="yes"/>
      <point x="504" y="837"/>
      <point x="490" y="843"/>
      <point x="474" y="850" type="curve"/>
      <point x="462" y="798" type="line"/>
      <point x="481" y="790"/>
      <point x="500" y="783"/>
    </contour>
    <component base="esinh"/>
  </outline>
</glyph>
<glyph name="osinh" format="2">
  <advance width="661"/>
  <unicode hex="0D94"/>
  <outline>
    <contour>
      <point x="448" y="-11" type="curve" smooth="yes"/>
      <point x="554" y="-11"/>
      <point x="623" y="69"/>
      <point x="623" y="351" type="curve" smooth="yes"/>
      <point x="623" y="692"/>
      <point x="512" y="836"/>
      <point x="297" y="836" type="curve" smooth="yes"/>
      <point x="199" y="836"/>
      <point x="125" y="811"/>
      <point x="57" y="772" type="curve"/>
      <point x="87" y="714" type="line"/>
      <point x="147" y="749"/>
      <point x="210" y="770"/>
      <point x="298" y="770" type="curve" smooth="yes"/>
      <point x="479" y="770"/>
      <point x="553" y="634"/>
      <point x="553" y="350" type="curve" smooth="yes"/>
      <point x="553" y="123"/>
      <point x="512" y="56"/>
      <point x="443" y="56" type="curve" smooth="yes"/>
      <point x="380" y="56"/>
      <point x="354" y="109"/>
      <point x="353" y="191" type="curve"/>
      <point x="289" y="191" type="line"/>
      <point x="288" y="109"/>
      <point x="262" y="56"/>
      <point x="201" y="56" type="curve" smooth="yes"/>
      <point x="142" y="56"/>
      <point x="107" y="108"/>
      <point x="107" y="271" type="curve" smooth="yes"/>
      <point x="107" y="411"/>
      <point x="139" y="513"/>
      <point x="174" y="513" type="curve" smooth="yes"/>
      <point x="190" y="513"/>
      <point x="192" y="499"/>
      <point x="192" y="476" type="curve" smooth="yes"/>
      <point x="192" y="452"/>
      <point x="183" y="422"/>
      <point x="183" y="383" type="curve" smooth="yes"/>
      <point x="183" y="303"/>
      <point x="220" y="231"/>
      <point x="327" y="231" type="curve" smooth="yes"/>
      <point x="419" y="231"/>
      <point x="476" y="297"/>
      <point x="476" y="414" type="curve" smooth="yes"/>
      <point x="476" y="532"/>
      <point x="427" y="576"/>
      <point x="369" y="576" type="curve" smooth="yes"/>
      <point x="301" y="576"/>
      <point x="265" y="525"/>
      <point x="265" y="464" type="curve" smooth="yes"/>
      <point x="265" y="391"/>
      <point x="295" y="356"/>
      <point x="358" y="356" type="curve" smooth="yes"/>
      <point x="398" y="356"/>
      <point x="416" y="372"/>
      <point x="442" y="398" type="curve"/>
      <point x="423" y="444" type="line"/>
      <point x="401" y="420"/>
      <point x="388" y="415"/>
      <point x="363" y="415" type="curve" smooth="yes"/>
      <point x="339" y="415"/>
      <point x="326" y="430"/>
      <point x="326" y="464" type="curve" smooth="yes"/>
      <point x="326" y="500"/>
      <point x="344" y="516"/>
      <point x="367" y="516" type="curve" smooth="yes"/>
      <point x="396" y="516"/>
      <point x="413" y="487"/>
      <point x="413" y="419" type="curve" smooth="yes"/>
      <point x="413" y="329"/>
      <point x="383" y="293"/>
      <point x="324" y="293" type="curve" smooth="yes"/>
      <point x="268" y="293"/>
      <point x="247" y="330"/>
      <point x="247" y="386" type="curve" smooth="yes"/>
      <point x="247" y="433"/>
      <point x="256" y="462"/>
      <point x="256" y="499" type="curve" smooth="yes"/>
      <point x="256" y="531"/>
      <point x="241" y="576"/>
      <point x="184" y="576" type="curve" smooth="yes"/>
      <point x="84" y="576"/>
      <point x="38" y="444"/>
      <point x="38" y="273" type="curve" smooth="yes"/>
      <point x="38" y="73"/>
      <point x="100" y="-11"/>
      <point x="196" y="-11" type="curve" smooth="yes"/>
      <point x="259" y="-11"/>
      <point x="296" y="23"/>
      <point x="320" y="77" type="curve"/>
      <point x="346" y="26"/>
      <point x="381" y="-11"/>
    </contour>
  </outline>
</glyph>
<glyph name="oosinh" format="2">
  <advance width="661"/>
  <unicode hex="0D95"/>
  <outline>
    <contour>
      <point x="448" y="-11" type="curve" smooth="yes"/>
      <point x="554" y="-11"/>
      <point x="623" y="62"/>
      <point x="623" y="329" type="curve" smooth="yes"/>
      <point x="623" y="629"/>
      <point x="512" y="758"/>
      <point x="294" y="758" type="curve" smooth="yes"/>
      <point x="191" y="758"/>
      <point x="124" y="740"/>
      <point x="50" y="713" type="curve"/>
      <point x="70" y="653" type="line"/>
      <point x="132" y="678"/>
      <point x="189" y="692"/>
      <point x="294" y="692" type="curve" smooth="yes"/>
      <point x="479" y="692"/>
      <point x="553" y="577"/>
      <point x="553" y="330" type="curve" smooth="yes"/>
      <point x="553" y="116"/>
      <point x="512" y="56"/>
      <point x="443" y="56" type="curve" smooth="yes"/>
      <point x="380" y="56"/>
      <point x="354" y="109"/>
      <point x="353" y="191" type="curve"/>
      <point x="289" y="191" type="line"/>
      <point x="288" y="109"/>
      <point x="262" y="56"/>
      <point x="201" y="56" type="curve" smooth="yes"/>
      <point x="142" y="56"/>
      <point x="107" y="108"/>
      <point x="107" y="271" type="curve" smooth="yes"/>
      <point x="107" y="411"/>
      <point x="139" y="513"/>
      <point x="174" y="513" type="curve" smooth="yes"/>
      <point x="190" y="513"/>
      <point x="192" y="499"/>
      <point x="192" y="476" type="curve" smooth="yes"/>
      <point x="192" y="452"/>
      <point x="183" y="422"/>
      <point x="183" y="383" type="curve" smooth="yes"/>
      <point x="183" y="303"/>
      <point x="220" y="231"/>
      <point x="327" y="231" type="curve" smooth="yes"/>
      <point x="419" y="231"/>
      <point x="476" y="297"/>
      <point x="476" y="414" type="curve" smooth="yes"/>
      <point x="476" y="532"/>
      <point x="427" y="576"/>
      <point x="369" y="576" type="curve" smooth="yes"/>
      <point x="301" y="576"/>
      <point x="265" y="525"/>
      <point x="265" y="464" type="curve" smooth="yes"/>
      <point x="265" y="391"/>
      <point x="295" y="356"/>
      <point x="358" y="356" type="curve" smooth="yes"/>
      <point x="398" y="356"/>
      <point x="416" y="372"/>
      <point x="442" y="398" type="curve"/>
      <point x="423" y="444" type="line"/>
      <point x="401" y="420"/>
      <point x="388" y="415"/>
      <point x="363" y="415" type="curve" smooth="yes"/>
      <point x="339" y="415"/>
      <point x="326" y="430"/>
      <point x="326" y="464" type="curve" smooth="yes"/>
      <point x="326" y="500"/>
      <point x="344" y="516"/>
      <point x="367" y="516" type="curve" smooth="yes"/>
      <point x="396" y="516"/>
      <point x="413" y="487"/>
      <point x="413" y="419" type="curve" smooth="yes"/>
      <point x="413" y="329"/>
      <point x="383" y="293"/>
      <point x="324" y="293" type="curve" smooth="yes"/>
      <point x="268" y="293"/>
      <point x="247" y="330"/>
      <point x="247" y="386" type="curve" smooth="yes"/>
      <point x="247" y="433"/>
      <point x="256" y="462"/>
      <point x="256" y="499" type="curve" smooth="yes"/>
      <point x="256" y="531"/>
      <point x="241" y="576"/>
      <point x="184" y="576" type="curve" smooth="yes"/>
      <point x="84" y="576"/>
      <point x="38" y="444"/>
      <point x="38" y="273" type="curve" smooth="yes"/>
      <point x="38" y="73"/>
      <point x="100" y="-11"/>
      <point x="196" y="-11" type="curve" smooth="yes"/>
      <point x="259" y="-11"/>
      <point x="296" y="23"/>
      <point x="320" y="77" type="curve"/>
      <point x="346" y="26"/>
      <point x="381" y="-11"/>
    </contour>
    <contour>
      <point x="324" y="957" type="curve" smooth="yes"/>
      <point x="130" y="957"/>
      <point x="89" y="863"/>
      <point x="89" y="795" type="curve" smooth="yes"/>
      <point x="89" y="760"/>
      <point x="98" y="724"/>
      <point x="107" y="702" type="curve"/>
      <point x="172" y="713" type="line"/>
      <point x="161" y="739"/>
      <point x="156" y="766"/>
      <point x="156" y="786" type="curve" smooth="yes"/>
      <point x="156" y="836"/>
      <point x="181" y="891"/>
      <point x="324" y="891" type="curve" smooth="yes"/>
      <point x="472" y="891"/>
      <point x="508" y="846"/>
      <point x="508" y="781" type="curve" smooth="yes"/>
      <point x="508" y="756"/>
      <point x="503" y="737"/>
      <point x="496" y="715" type="curve"/>
      <point x="557" y="692" type="line"/>
      <point x="567" y="721"/>
      <point x="575" y="750"/>
      <point x="575" y="780" type="curve" smooth="yes"/>
      <point x="575" y="864"/>
      <point x="539" y="957"/>
    </contour>
  </outline>
</glyph>
<glyph name="kasinh" format="2">
  <advance width="747"/>
  <unicode hex="0D9A"/>
  <outline>
    <contour>
      <point x="407" y="-11" type="curve" smooth="yes"/>
      <point x="490" y="-11"/>
      <point x="530" y="68"/>
      <point x="530" y="196" type="curve" smooth="yes"/>
      <point x="530" y="359"/>
      <point x="458" y="448"/>
      <point x="325" y="448" type="curve" smooth="yes"/>
      <point x="274" y="448"/>
      <point x="226" y="432"/>
      <point x="212" y="420" type="curve"/>
      <point x="155" y="355" type="line"/>
      <point x="208" y="377"/>
      <point x="253" y="383"/>
      <point x="309" y="383" type="curve" smooth="yes"/>
      <point x="424" y="383"/>
      <point x="461" y="309"/>
      <point x="461" y="191" type="curve" smooth="yes"/>
      <point x="461" y="105"/>
      <point x="445" y="56"/>
      <point x="400" y="56" type="curve" smooth="yes"/>
      <point x="353" y="56"/>
      <point x="334" y="107"/>
      <point x="334" y="182" type="curve" smooth="yes"/>
      <point x="334" y="213" type="line"/>
      <point x="271" y="213" type="line"/>
      <point x="271" y="185" type="line" smooth="yes"/>
      <point x="271" y="97"/>
      <point x="253" y="56"/>
      <point x="207" y="56" type="curve" smooth="yes"/>
      <point x="166" y="56"/>
      <point x="152" y="102"/>
      <point x="152" y="179" type="curve" smooth="yes"/>
      <point x="152" y="195"/>
      <point x="152" y="204"/>
      <point x="153" y="213" type="curve"/>
      <point x="94" y="213" type="line"/>
      <point x="91" y="200"/>
      <point x="89" y="184"/>
      <point x="89" y="170" type="curve" smooth="yes"/>
      <point x="89" y="26"/>
      <point x="139" y="-11"/>
      <point x="203" y="-11" type="curve" smooth="yes"/>
      <point x="250" y="-11"/>
      <point x="277" y="10"/>
      <point x="302" y="68" type="curve"/>
      <point x="325" y="20"/>
      <point x="357" y="-11"/>
    </contour>
    <contour>
      <point x="546" y="-3" type="curve" smooth="yes"/>
      <point x="643" y="-3"/>
      <point x="713" y="82"/>
      <point x="713" y="288" type="curve" smooth="yes"/>
      <point x="713" y="486"/>
      <point x="623" y="612"/>
      <point x="468" y="612" type="curve" smooth="yes"/>
      <point x="363" y="612"/>
      <point x="293" y="574"/>
      <point x="209" y="479" type="curve"/>
      <point x="194" y="462" type="line"/>
      <point x="144" y="396"/>
      <point x="87" y="309"/>
      <point x="19" y="176" type="curve"/>
      <point x="79" y="145" type="line"/>
      <point x="96" y="190" type="line"/>
      <point x="107" y="210" type="line"/>
      <point x="145" y="288"/>
      <point x="189" y="355"/>
      <point x="228" y="409" type="curve"/>
      <point x="239" y="420" type="line"/>
      <point x="299" y="498"/>
      <point x="363" y="545"/>
      <point x="462" y="545" type="curve" smooth="yes"/>
      <point x="578" y="545"/>
      <point x="643" y="448"/>
      <point x="643" y="277" type="curve" smooth="yes"/>
      <point x="643" y="153"/>
      <point x="615" y="63"/>
      <point x="538" y="63" type="curve" smooth="yes"/>
      <point x="532" y="63"/>
      <point x="527" y="64"/>
      <point x="522" y="65" type="curve"/>
      <point x="519" y="0" type="line"/>
      <point x="526" y="-2"/>
      <point x="539" y="-3"/>
    </contour>
    <contour>
      <point x="131" y="592" type="curve" smooth="yes"/>
      <point x="62" y="592"/>
      <point x="23" y="548"/>
      <point x="23" y="467" type="curve" smooth="yes"/>
      <point x="23" y="445"/>
      <point x="26" y="415"/>
      <point x="32" y="389" type="curve"/>
      <point x="97" y="400" type="line"/>
      <point x="94" y="417"/>
      <point x="91" y="438"/>
      <point x="91" y="460" type="curve" smooth="yes"/>
      <point x="91" y="508"/>
      <point x="101" y="529"/>
      <point x="128" y="529" type="curve" smooth="yes"/>
      <point x="159" y="529"/>
      <point x="176" y="486"/>
      <point x="179" y="402" type="curve"/>
      <point x="237" y="436" type="line"/>
      <point x="232" y="519"/>
      <point x="202" y="592"/>
    </contour>
  </outline>
</glyph>
<glyph name="khasinh" format="2">
  <advance width="667"/>
  <unicode hex="0D9B"/>
  <outline>
    <contour>
      <point x="191" y="-11" type="curve" smooth="yes"/>
      <point x="272" y="-11"/>
      <point x="305" y="47"/>
      <point x="305" y="112" type="curve" smooth="yes"/>
      <point x="305" y="172"/>
      <point x="275" y="230"/>
      <point x="198" y="230" type="curve" smooth="yes"/>
      <point x="146" y="230"/>
      <point x="106" y="201"/>
      <point x="71" y="159" type="curve"/>
      <point x="90" y="105" type="line"/>
      <point x="121" y="144"/>
      <point x="154" y="167"/>
      <point x="188" y="167" type="curve" smooth="yes"/>
      <point x="224" y="167"/>
      <point x="238" y="141"/>
      <point x="238" y="111" type="curve" smooth="yes"/>
      <point x="238" y="72"/>
      <point x="222" y="53"/>
      <point x="187" y="53" type="curve" smooth="yes"/>
      <point x="143" y="53"/>
      <point x="111" y="94"/>
      <point x="108" y="156" type="curve"/>
      <point x="105" y="179"/>
      <point x="103" y="206"/>
      <point x="103" y="237" type="curve" smooth="yes"/>
      <point x="103" y="397"/>
      <point x="163" y="489"/>
      <point x="259" y="489" type="curve" smooth="yes"/>
      <point x="334" y="489"/>
      <point x="376" y="425"/>
      <point x="376" y="311" type="curve" smooth="yes"/>
      <point x="376" y="203"/>
      <point x="341" y="111"/>
      <point x="291" y="23" type="curve"/>
      <point x="352" y="-11" type="line"/>
      <point x="403" y="88"/>
      <point x="445" y="196"/>
      <point x="445" y="320" type="curve" smooth="yes"/>
      <point x="445" y="453"/>
      <point x="384" y="555"/>
      <point x="260" y="555" type="curve" smooth="yes"/>
      <point x="118" y="555"/>
      <point x="35" y="428"/>
      <point x="35" y="237" type="curve" smooth="yes"/>
      <point x="35" y="98"/>
      <point x="81" y="-11"/>
    </contour>
    <contour>
      <point x="485" y="-11" type="curve" smooth="yes"/>
      <point x="573" y="-11"/>
      <point x="627" y="54"/>
      <point x="627" y="344" type="curve" smooth="yes"/>
      <point x="627" y="692"/>
      <point x="506" y="836"/>
      <point x="290" y="836" type="curve" smooth="yes"/>
      <point x="185" y="836"/>
      <point x="111" y="811"/>
      <point x="43" y="772" type="curve"/>
      <point x="73" y="714" type="line"/>
      <point x="133" y="748"/>
      <point x="200" y="770"/>
      <point x="290" y="770" type="curve" smooth="yes"/>
      <point x="475" y="770"/>
      <point x="558" y="633"/>
      <point x="558" y="348" type="curve" smooth="yes"/>
      <point x="558" y="108"/>
      <point x="525" y="54"/>
      <point x="485" y="54" type="curve" smooth="yes"/>
      <point x="458" y="54"/>
      <point x="444" y="75"/>
      <point x="442" y="134" type="curve"/>
      <point x="389" y="134" type="line"/>
      <point x="384" y="127" type="line"/>
      <point x="386" y="59"/>
      <point x="404" y="-11"/>
    </contour>
  </outline>
</glyph>
<glyph name="ghasinh" format="2">
  <advance width="622"/>
  <unicode hex="0D9D"/>
  <outline>
    <contour>
      <point x="211" y="-11" type="curve" smooth="yes"/>
      <point x="229" y="-11"/>
      <point x="258" y="-8"/>
      <point x="285" y="3" type="curve"/>
      <point x="276" y="65" type="line"/>
      <point x="245" y="55"/>
      <point x="233" y="52"/>
      <point x="218" y="52" type="curve" smooth="yes"/>
      <point x="149" y="52"/>
      <point x="110" y="90"/>
      <point x="110" y="198" type="curve" smooth="yes"/>
      <point x="110" y="264"/>
      <point x="127" y="322"/>
      <point x="159" y="352" type="curve" smooth="yes"/>
      <point x="185" y="377"/>
      <point x="218" y="393"/>
      <point x="285" y="393" type="curve" smooth="yes"/>
      <point x="305" y="393" type="line"/>
      <point x="305" y="431" type="line" smooth="yes"/>
      <point x="305" y="549"/>
      <point x="263" y="612"/>
      <point x="179" y="612" type="curve" smooth="yes"/>
      <point x="113" y="612"/>
      <point x="73" y="572"/>
      <point x="73" y="496" type="curve" smooth="yes"/>
      <point x="73" y="490"/>
      <point x="73" y="481"/>
      <point x="74" y="474" type="curve"/>
      <point x="142" y="478" type="line"/>
      <point x="141" y="482"/>
      <point x="141" y="486"/>
      <point x="141" y="489" type="curve" smooth="yes"/>
      <point x="141" y="527"/>
      <point x="156" y="549"/>
      <point x="185" y="549" type="curve" smooth="yes"/>
      <point x="218" y="549"/>
      <point x="237" y="519"/>
      <point x="239" y="455" type="curve"/>
      <point x="26" y="455" type="line"/>
      <point x="26" y="393" type="line"/>
      <point x="51" y="393" type="line" smooth="yes"/>
      <point x="82" y="393"/>
      <point x="117" y="393"/>
      <point x="147" y="400" type="curve"/>
      <point x="145" y="408" type="line"/>
      <point x="70" y="361"/>
      <point x="41" y="289"/>
      <point x="41" y="196" type="curve" smooth="yes"/>
      <point x="41" y="43"/>
      <point x="118" y="-11"/>
    </contour>
    <contour>
      <point x="422" y="-11" type="curve" smooth="yes"/>
      <point x="526" y="-11"/>
      <point x="589" y="68"/>
      <point x="589" y="207" type="curve" smooth="yes"/>
      <point x="589" y="386"/>
      <point x="486" y="455"/>
      <point x="383" y="455" type="curve" smooth="yes"/>
      <point x="369" y="455" type="line"/>
      <point x="395" y="452" type="line"/>
      <point x="397" y="519"/>
      <point x="416" y="549"/>
      <point x="449" y="549" type="curve" smooth="yes"/>
      <point x="478" y="549"/>
      <point x="493" y="528"/>
      <point x="493" y="488" type="curve" smooth="yes"/>
      <point x="493" y="480"/>
      <point x="491" y="464"/>
      <point x="490" y="457" type="curve"/>
      <point x="556" y="448" type="line"/>
      <point x="559" y="464"/>
      <point x="561" y="479"/>
      <point x="561" y="496" type="curve" smooth="yes"/>
      <point x="561" y="572"/>
      <point x="520" y="612"/>
      <point x="455" y="612" type="curve" smooth="yes"/>
      <point x="371" y="612"/>
      <point x="329" y="549"/>
      <point x="329" y="431" type="curve" smooth="yes"/>
      <point x="329" y="393" type="line"/>
      <point x="351" y="393" type="line" smooth="yes"/>
      <point x="414" y="393"/>
      <point x="446" y="380"/>
      <point x="474" y="352" type="curve" smooth="yes"/>
      <point x="504" y="322"/>
      <point x="520" y="271"/>
      <point x="520" y="206" type="curve" smooth="yes"/>
      <point x="520" y="97"/>
      <point x="485" y="52"/>
      <point x="409" y="52" type="curve" smooth="yes"/>
      <point x="396" y="52"/>
      <point x="381" y="56"/>
      <point x="360" y="63" type="curve"/>
      <point x="348" y="3" type="line"/>
      <point x="375" y="-8"/>
      <point x="401" y="-11"/>
    </contour>
    <contour>
      <point x="315" y="176" type="curve" smooth="yes"/>
      <point x="356" y="176"/>
      <point x="374" y="155"/>
      <point x="374" y="126" type="curve" smooth="yes"/>
      <point x="374" y="97"/>
      <point x="361" y="82"/>
      <point x="339" y="69" type="curve"/>
      <point x="348" y="3" type="line"/>
      <point x="379" y="41" type="line"/>
      <point x="419" y="63"/>
      <point x="439" y="92"/>
      <point x="439" y="139" type="curve" smooth="yes"/>
      <point x="439" y="199"/>
      <point x="394" y="242"/>
      <point x="317" y="242" type="curve" smooth="yes"/>
      <point x="314" y="242" type="line" smooth="yes"/>
      <point x="238" y="242"/>
      <point x="191" y="198"/>
      <point x="191" y="139" type="curve" smooth="yes"/>
      <point x="191" y="92"/>
      <point x="212" y="62"/>
      <point x="252" y="41" type="curve"/>
      <point x="285" y="3" type="line"/>
      <point x="291" y="69" type="line"/>
      <point x="269" y="82"/>
      <point x="256" y="99"/>
      <point x="256" y="126" type="curve" smooth="yes"/>
      <point x="256" y="155"/>
      <point x="274" y="176"/>
    </contour>
  </outline>
</glyph>
<glyph name="ngasinh" format="2">
  <advance width="668"/>
  <unicode hex="0D9E"/>
  <outline>
    <contour>
      <point x="458" y="-11" type="curve" smooth="yes"/>
      <point x="561" y="-11"/>
      <point x="630" y="69"/>
      <point x="630" y="351" type="curve" smooth="yes"/>
      <point x="630" y="692"/>
      <point x="519" y="836"/>
      <point x="302" y="836" type="curve" smooth="yes"/>
      <point x="203" y="836"/>
      <point x="130" y="810"/>
      <point x="62" y="771" type="curve"/>
      <point x="90" y="713" type="line"/>
      <point x="150" y="748"/>
      <point x="213" y="770"/>
      <point x="302" y="770" type="curve" smooth="yes"/>
      <point x="485" y="770"/>
      <point x="560" y="634"/>
      <point x="560" y="350" type="curve" smooth="yes"/>
      <point x="560" y="123"/>
      <point x="519" y="56"/>
      <point x="452" y="56" type="curve" smooth="yes"/>
      <point x="393" y="56"/>
      <point x="366" y="109"/>
      <point x="366" y="194" type="curve" smooth="yes"/>
      <point x="366" y="213" type="line"/>
      <point x="302" y="213" type="line"/>
      <point x="302" y="196" type="line" smooth="yes"/>
      <point x="302" y="109"/>
      <point x="277" y="56"/>
      <point x="211" y="56" type="curve" smooth="yes"/>
      <point x="161" y="56"/>
      <point x="133" y="92"/>
      <point x="133" y="172" type="curve" smooth="yes"/>
      <point x="133" y="251"/>
      <point x="170" y="286"/>
      <point x="225" y="321" type="curve" smooth="yes"/>
      <point x="266" y="347" type="line" smooth="yes"/>
      <point x="339" y="393"/>
      <point x="379" y="424"/>
      <point x="379" y="491" type="curve" smooth="yes"/>
      <point x="379" y="571"/>
      <point x="310" y="612"/>
      <point x="210" y="612" type="curve" smooth="yes"/>
      <point x="75" y="612"/>
      <point x="21" y="552"/>
      <point x="21" y="473" type="curve" smooth="yes"/>
      <point x="21" y="400"/>
      <point x="62" y="365"/>
      <point x="120" y="365" type="curve" smooth="yes"/>
      <point x="168" y="365"/>
      <point x="221" y="391"/>
      <point x="221" y="469" type="curve" smooth="yes"/>
      <point x="221" y="503"/>
      <point x="210" y="538"/>
      <point x="190" y="560" type="curve"/>
      <point x="133" y="550" type="line"/>
      <point x="149" y="528"/>
      <point x="158" y="503"/>
      <point x="158" y="472" type="curve" smooth="yes"/>
      <point x="158" y="440"/>
      <point x="145" y="426"/>
      <point x="122" y="426" type="curve" smooth="yes"/>
      <point x="97" y="426"/>
      <point x="85" y="442"/>
      <point x="85" y="476" type="curve" smooth="yes"/>
      <point x="85" y="514"/>
      <point x="103" y="546"/>
      <point x="162" y="548" type="curve"/>
      <point x="172" y="549"/>
      <point x="184" y="550"/>
      <point x="211" y="550" type="curve" smooth="yes"/>
      <point x="270" y="550"/>
      <point x="311" y="533"/>
      <point x="311" y="492" type="curve" smooth="yes"/>
      <point x="311" y="457"/>
      <point x="287" y="437"/>
      <point x="237" y="405" type="curve" smooth="yes"/>
      <point x="207" y="386" type="line" smooth="yes"/>
      <point x="150" y="350"/>
      <point x="122" y="326"/>
      <point x="101" y="296" type="curve" smooth="yes"/>
      <point x="80" y="266"/>
      <point x="64" y="229"/>
      <point x="64" y="176" type="curve" smooth="yes"/>
      <point x="64" y="53"/>
      <point x="119" y="-11"/>
      <point x="209" y="-11" type="curve" smooth="yes"/>
      <point x="269" y="-11"/>
      <point x="304" y="20"/>
      <point x="333" y="77" type="curve"/>
      <point x="359" y="26"/>
      <point x="392" y="-11"/>
    </contour>
  </outline>
</glyph>
<glyph name="casinh" format="2">
  <advance width="610"/>
  <unicode hex="0DA0"/>
  <outline>
    <contour>
      <point x="270" y="-11" type="curve" smooth="yes"/>
      <point x="490" y="-11"/>
      <point x="575" y="160"/>
      <point x="575" y="416" type="curve" smooth="yes"/>
      <point x="575" y="730"/>
      <point x="440" y="836"/>
      <point x="274" y="836" type="curve" smooth="yes"/>
      <point x="182" y="836"/>
      <point x="109" y="810"/>
      <point x="42" y="771" type="curve"/>
      <point x="72" y="713" type="line"/>
      <point x="132" y="748"/>
      <point x="190" y="770"/>
      <point x="275" y="770" type="curve" smooth="yes"/>
      <point x="390" y="770"/>
      <point x="505" y="698"/>
      <point x="505" y="418" type="curve" smooth="yes"/>
      <point x="505" y="223"/>
      <point x="456" y="57"/>
      <point x="269" y="57" type="curve" smooth="yes"/>
      <point x="164" y="57"/>
      <point x="113" y="125"/>
      <point x="113" y="226" type="curve" smooth="yes"/>
      <point x="113" y="282"/>
      <point x="127" y="321"/>
      <point x="152" y="347" type="curve" smooth="yes"/>
      <point x="185" y="381"/>
      <point x="229" y="393"/>
      <point x="312" y="393" type="curve" smooth="yes"/>
      <point x="339" y="393" type="line"/>
      <point x="339" y="431" type="line" smooth="yes"/>
      <point x="339" y="549"/>
      <point x="296" y="612"/>
      <point x="214" y="612" type="curve" smooth="yes"/>
      <point x="147" y="612"/>
      <point x="107" y="572"/>
      <point x="107" y="497" type="curve" smooth="yes"/>
      <point x="107" y="490"/>
      <point x="107" y="481"/>
      <point x="108" y="474" type="curve"/>
      <point x="176" y="478" type="line"/>
      <point x="175" y="484"/>
      <point x="175" y="490"/>
      <point x="175" y="493" type="curve" smooth="yes"/>
      <point x="175" y="528"/>
      <point x="189" y="549"/>
      <point x="219" y="549" type="curve" smooth="yes"/>
      <point x="252" y="549"/>
      <point x="270" y="519"/>
      <point x="273" y="455" type="curve"/>
      <point x="26" y="455" type="line"/>
      <point x="26" y="393" type="line"/>
      <point x="59" y="393" type="line" smooth="yes"/>
      <point x="83" y="393"/>
      <point x="128" y="395"/>
      <point x="158" y="402" type="curve"/>
      <point x="166" y="416" type="line"/>
      <point x="97" y="392"/>
      <point x="45" y="326"/>
      <point x="45" y="222" type="curve" smooth="yes"/>
      <point x="45" y="91"/>
      <point x="120" y="-11"/>
    </contour>
  </outline>
</glyph>
<glyph name="chasinh" format="2">
  <advance width="598"/>
  <unicode hex="0DA1"/>
  <outline>
    <contour>
      <point x="297" y="-11" type="curve" smooth="yes"/>
      <point x="475" y="-11"/>
      <point x="565" y="90"/>
      <point x="565" y="248" type="curve" smooth="yes"/>
      <point x="565" y="374"/>
      <point x="486" y="455"/>
      <point x="363" y="455" type="curve" smooth="yes"/>
      <point x="349" y="455" type="line"/>
      <point x="371" y="448" type="line"/>
      <point x="374" y="511"/>
      <point x="391" y="554"/>
      <point x="432" y="554" type="curve" smooth="yes"/>
      <point x="462" y="554"/>
      <point x="474" y="525"/>
      <point x="474" y="455" type="curve" smooth="yes"/>
      <point x="474" y="377"/>
      <point x="455" y="301"/>
      <point x="413" y="301" type="curve" smooth="yes"/>
      <point x="383" y="301"/>
      <point x="369" y="321"/>
      <point x="369" y="406" type="curve"/>
      <point x="351" y="440" type="line"/>
      <point x="388" y="556" type="line"/>
      <point x="430" y="651"/>
      <point x="524" y="719"/>
      <point x="584" y="753" type="curve"/>
      <point x="551" y="810" type="line"/>
      <point x="431" y="744"/>
      <point x="308" y="609"/>
      <point x="308" y="411" type="curve" smooth="yes"/>
      <point x="308" y="281"/>
      <point x="343" y="239"/>
      <point x="406" y="239" type="curve" smooth="yes"/>
      <point x="461" y="239"/>
      <point x="488" y="275"/>
      <point x="510" y="326" type="curve"/>
      <point x="520" y="340" type="line"/>
      <point x="530" y="370"/>
      <point x="539" y="415"/>
      <point x="539" y="461" type="curve" smooth="yes"/>
      <point x="539" y="560"/>
      <point x="504" y="612"/>
      <point x="445" y="612" type="curve" smooth="yes"/>
      <point x="381" y="612"/>
      <point x="334" y="517"/>
      <point x="334" y="433" type="curve" smooth="yes"/>
      <point x="334" y="393" type="line"/>
      <point x="352" y="393" type="line" smooth="yes"/>
      <point x="406" y="393"/>
      <point x="447" y="374"/>
      <point x="471" y="345" type="curve"/>
      <point x="485" y="321" type="line"/>
      <point x="493" y="300"/>
      <point x="497" y="281"/>
      <point x="497" y="246" type="curve" smooth="yes"/>
      <point x="497" y="139"/>
      <point x="444" y="57"/>
      <point x="298" y="57" type="curve" smooth="yes"/>
      <point x="154" y="57"/>
      <point x="102" y="139"/>
      <point x="102" y="246" type="curve" smooth="yes"/>
      <point x="102" y="296"/>
      <point x="114" y="328"/>
      <point x="137" y="353" type="curve"/>
      <point x="162" y="379"/>
      <point x="202" y="393"/>
      <point x="259" y="393" type="curve" smooth="yes"/>
      <point x="283" y="393" type="line"/>
      <point x="283" y="431" type="line" smooth="yes"/>
      <point x="283" y="549"/>
      <point x="242" y="612"/>
      <point x="158" y="612" type="curve" smooth="yes"/>
      <point x="92" y="612"/>
      <point x="51" y="573"/>
      <point x="51" y="497" type="curve" smooth="yes"/>
      <point x="51" y="480"/>
      <point x="53" y="464"/>
      <point x="56" y="448" type="curve"/>
      <point x="122" y="457" type="line"/>
      <point x="121" y="464"/>
      <point x="119" y="482"/>
      <point x="119" y="489" type="curve" smooth="yes"/>
      <point x="119" y="529"/>
      <point x="134" y="549"/>
      <point x="164" y="549" type="curve" smooth="yes"/>
      <point x="197" y="549"/>
      <point x="215" y="519"/>
      <point x="217" y="452" type="curve"/>
      <point x="249" y="455" type="line"/>
      <point x="237" y="455" type="line" smooth="yes"/>
      <point x="107" y="455"/>
      <point x="33" y="373"/>
      <point x="33" y="249" type="curve" smooth="yes"/>
      <point x="33" y="90"/>
      <point x="123" y="-11"/>
    </contour>
  </outline>
</glyph>
<glyph name="jasinh" format="2">
  <advance width="592"/>
  <unicode hex="0DA2"/>
  <outline>
    <contour>
      <point x="295" y="-11" type="curve" smooth="yes"/>
      <point x="469" y="-11"/>
      <point x="559" y="90"/>
      <point x="559" y="248" type="curve" smooth="yes"/>
      <point x="559" y="379"/>
      <point x="477" y="454"/>
      <point x="353" y="454" type="curve"/>
      <point x="343" y="455" type="line"/>
      <point x="362" y="449" type="line"/>
      <point x="363" y="532"/>
      <point x="402" y="551"/>
      <point x="438" y="551" type="curve" smooth="yes"/>
      <point x="464" y="551"/>
      <point x="476" y="535"/>
      <point x="476" y="501" type="curve" smooth="yes"/>
      <point x="476" y="468"/>
      <point x="463" y="453"/>
      <point x="449" y="453" type="curve" smooth="yes"/>
      <point x="428" y="453"/>
      <point x="420" y="470"/>
      <point x="420" y="509" type="curve" smooth="yes"/>
      <point x="420" y="548"/>
      <point x="426" y="563"/>
      <point x="431" y="581" type="curve"/>
      <point x="432" y="595" type="line"/>
      <point x="453" y="661"/>
      <point x="503" y="716"/>
      <point x="572" y="753" type="curve"/>
      <point x="539" y="810" type="line"/>
      <point x="438" y="754"/>
      <point x="368" y="657"/>
      <point x="368" y="551" type="curve"/>
      <point x="372" y="522" type="line"/>
      <point x="372" y="452"/>
      <point x="395" y="408"/>
      <point x="454" y="408" type="curve" smooth="yes"/>
      <point x="506" y="408"/>
      <point x="542" y="434"/>
      <point x="542" y="507" type="curve" smooth="yes"/>
      <point x="542" y="573"/>
      <point x="503" y="612"/>
      <point x="445" y="612" type="curve" smooth="yes"/>
      <point x="424" y="612"/>
      <point x="409" y="609"/>
      <point x="397" y="605" type="curve"/>
      <point x="383" y="601" type="line"/>
      <point x="334" y="573"/>
      <point x="309" y="525"/>
      <point x="309" y="425" type="curve" smooth="yes"/>
      <point x="309" y="393" type="line"/>
      <point x="333" y="393" type="line" smooth="yes"/>
      <point x="390" y="393"/>
      <point x="430" y="379"/>
      <point x="455" y="353" type="curve"/>
      <point x="478" y="328"/>
      <point x="490" y="296"/>
      <point x="490" y="246" type="curve" smooth="yes"/>
      <point x="490" y="139"/>
      <point x="438" y="57"/>
      <point x="296" y="57" type="curve" smooth="yes"/>
      <point x="154" y="57"/>
      <point x="102" y="139"/>
      <point x="102" y="246" type="curve" smooth="yes"/>
      <point x="102" y="296"/>
      <point x="114" y="328"/>
      <point x="137" y="353" type="curve"/>
      <point x="162" y="379"/>
      <point x="202" y="393"/>
      <point x="259" y="393" type="curve" smooth="yes"/>
      <point x="283" y="393" type="line"/>
      <point x="283" y="431" type="line" smooth="yes"/>
      <point x="283" y="549"/>
      <point x="242" y="612"/>
      <point x="158" y="612" type="curve" smooth="yes"/>
      <point x="92" y="612"/>
      <point x="51" y="573"/>
      <point x="51" y="497" type="curve" smooth="yes"/>
      <point x="51" y="480"/>
      <point x="53" y="464"/>
      <point x="56" y="448" type="curve"/>
      <point x="122" y="457" type="line"/>
      <point x="121" y="464"/>
      <point x="119" y="481"/>
      <point x="119" y="489" type="curve" smooth="yes"/>
      <point x="119" y="529"/>
      <point x="135" y="549"/>
      <point x="164" y="549" type="curve" smooth="yes"/>
      <point x="197" y="549"/>
      <point x="215" y="519"/>
      <point x="217" y="452" type="curve"/>
      <point x="249" y="455" type="line"/>
      <point x="237" y="455" type="line"/>
      <point x="107" y="455"/>
      <point x="33" y="373"/>
      <point x="33" y="249" type="curve" smooth="yes"/>
      <point x="33" y="90"/>
      <point x="123" y="-11"/>
    </contour>
  </outline>
</glyph>
<glyph name="jhasinh" format="2">
  <advance width="1049"/>
  <unicode hex="0DA3"/>
  <outline>
    <contour>
      <point x="407" y="-11" type="curve" smooth="yes"/>
      <point x="489" y="-11"/>
      <point x="514" y="81"/>
      <point x="514" y="196" type="curve" smooth="yes"/>
      <point x="514" y="362"/>
      <point x="458" y="448"/>
      <point x="325" y="448" type="curve" smooth="yes"/>
      <point x="274" y="448"/>
      <point x="226" y="432"/>
      <point x="212" y="420" type="curve"/>
      <point x="155" y="355" type="line"/>
      <point x="208" y="377"/>
      <point x="253" y="383"/>
      <point x="309" y="383" type="curve" smooth="yes"/>
      <point x="424" y="383"/>
      <point x="461" y="309"/>
      <point x="461" y="191" type="curve" smooth="yes"/>
      <point x="461" y="105"/>
      <point x="445" y="56"/>
      <point x="400" y="56" type="curve" smooth="yes"/>
      <point x="353" y="56"/>
      <point x="334" y="107"/>
      <point x="334" y="182" type="curve" smooth="yes"/>
      <point x="334" y="213" type="line"/>
      <point x="271" y="213" type="line"/>
      <point x="271" y="185" type="line" smooth="yes"/>
      <point x="271" y="97"/>
      <point x="253" y="56"/>
      <point x="207" y="56" type="curve" smooth="yes"/>
      <point x="166" y="56"/>
      <point x="152" y="102"/>
      <point x="152" y="179" type="curve" smooth="yes"/>
      <point x="152" y="195"/>
      <point x="152" y="204"/>
      <point x="153" y="213" type="curve"/>
      <point x="94" y="213" type="line"/>
      <point x="91" y="200"/>
      <point x="89" y="184"/>
      <point x="89" y="170" type="curve" smooth="yes"/>
      <point x="89" y="26"/>
      <point x="139" y="-11"/>
      <point x="203" y="-11" type="curve" smooth="yes"/>
      <point x="250" y="-11"/>
      <point x="277" y="10"/>
      <point x="302" y="68" type="curve"/>
      <point x="325" y="20"/>
      <point x="357" y="-11"/>
    </contour>
    <contour>
      <point x="453" y="548" type="curve" smooth="yes"/>
      <point x="535" y="548"/>
      <point x="588" y="502"/>
      <point x="643" y="438" type="curve"/>
      <point x="682" y="491" type="line"/>
      <point x="628" y="552"/>
      <point x="555" y="612"/>
      <point x="454" y="612" type="curve" smooth="yes"/>
      <point x="363" y="612"/>
      <point x="291" y="574"/>
      <point x="209" y="479" type="curve" smooth="yes"/>
      <point x="194" y="462" type="line"/>
      <point x="144" y="396"/>
      <point x="87" y="309"/>
      <point x="19" y="176" type="curve"/>
      <point x="79" y="145" type="line"/>
      <point x="96" y="190" type="line"/>
      <point x="107" y="210" type="line"/>
      <point x="145" y="288"/>
      <point x="189" y="355"/>
      <point x="228" y="409" type="curve"/>
      <point x="239" y="420" type="line"/>
      <point x="298" y="501"/>
      <point x="363" y="548"/>
    </contour>
    <contour>
      <point x="131" y="592" type="curve" smooth="yes"/>
      <point x="62" y="592"/>
      <point x="23" y="548"/>
      <point x="23" y="467" type="curve" smooth="yes"/>
      <point x="23" y="445"/>
      <point x="26" y="415"/>
      <point x="32" y="389" type="curve"/>
      <point x="97" y="400" type="line"/>
      <point x="94" y="417"/>
      <point x="91" y="438"/>
      <point x="91" y="460" type="curve" smooth="yes"/>
      <point x="91" y="508"/>
      <point x="101" y="529"/>
      <point x="128" y="529" type="curve" smooth="yes"/>
      <point x="159" y="529"/>
      <point x="176" y="486"/>
      <point x="179" y="402" type="curve"/>
      <point x="237" y="436" type="line"/>
      <point x="232" y="519"/>
      <point x="202" y="592"/>
    </contour>
    <contour>
      <point x="845" y="-11" type="curve" smooth="yes"/>
      <point x="944" y="-11"/>
      <point x="1011" y="69"/>
      <point x="1011" y="351" type="curve" smooth="yes"/>
      <point x="1011" y="692"/>
      <point x="903" y="836"/>
      <point x="698" y="836" type="curve" smooth="yes"/>
      <point x="605" y="836"/>
      <point x="533" y="811"/>
      <point x="467" y="772" type="curve"/>
      <point x="497" y="714" type="line"/>
      <point x="555" y="749"/>
      <point x="616" y="770"/>
      <point x="698" y="770" type="curve" smooth="yes"/>
      <point x="870" y="770"/>
      <point x="941" y="634"/>
      <point x="941" y="350" type="curve" smooth="yes"/>
      <point x="941" y="123"/>
      <point x="903" y="56"/>
      <point x="838" y="56" type="curve" smooth="yes"/>
      <point x="782" y="56"/>
      <point x="755" y="109"/>
      <point x="755" y="194" type="curve" smooth="yes"/>
      <point x="755" y="213" type="line"/>
      <point x="691" y="213" type="line"/>
      <point x="691" y="199" type="line" smooth="yes"/>
      <point x="691" y="109"/>
      <point x="666" y="56"/>
      <point x="608" y="56" type="curve" smooth="yes"/>
      <point x="556" y="56"/>
      <point x="528" y="105"/>
      <point x="528" y="220" type="curve" smooth="yes"/>
      <point x="528" y="355"/>
      <point x="580" y="414"/>
      <point x="659" y="420" type="curve"/>
      <point x="682" y="491" type="line"/>
      <point x="640" y="480" type="line"/>
      <point x="513" y="468"/>
      <point x="469" y="356"/>
      <point x="469" y="225" type="curve" smooth="yes"/>
      <point x="469" y="56"/>
      <point x="524" y="-11"/>
      <point x="604" y="-11" type="curve" smooth="yes"/>
      <point x="665" y="-11"/>
      <point x="699" y="23"/>
      <point x="722" y="77" type="curve"/>
      <point x="747" y="26"/>
      <point x="780" y="-11"/>
    </contour>
  </outline>
</glyph>
<glyph name="jnyasinh" format="2">
  <advance width="875"/>
  <unicode hex="0DA5"/>
  <outline>
    <contour>
      <point x="363" y="-11" type="curve" smooth="yes"/>
      <point x="495" y="-11"/>
      <point x="546" y="93"/>
      <point x="546" y="225" type="curve" smooth="yes"/>
      <point x="546" y="311"/>
      <point x="519" y="358"/>
      <point x="475" y="358" type="curve" smooth="yes"/>
      <point x="462" y="358"/>
      <point x="443" y="351"/>
      <point x="434" y="341" type="curve"/>
      <point x="443" y="339" type="line"/>
      <point x="472" y="495"/>
      <point x="545" y="551"/>
      <point x="613" y="551" type="curve" smooth="yes"/>
      <point x="643" y="551"/>
      <point x="666" y="543"/>
      <point x="681" y="537" type="curve"/>
      <point x="726" y="586" type="line"/>
      <point x="692" y="604"/>
      <point x="653" y="612"/>
      <point x="617" y="612" type="curve" smooth="yes"/>
      <point x="499" y="612"/>
      <point x="408" y="537"/>
      <point x="370" y="291" type="curve"/>
      <point x="432" y="271" type="line"/>
      <point x="440" y="288"/>
      <point x="451" y="294"/>
      <point x="463" y="294" type="curve" smooth="yes"/>
      <point x="483" y="294"/>
      <point x="492" y="275"/>
      <point x="492" y="221" type="curve" smooth="yes"/>
      <point x="492" y="113"/>
      <point x="447" y="56"/>
      <point x="364" y="56" type="curve" smooth="yes"/>
      <point x="264" y="56"/>
      <point x="235" y="149"/>
      <point x="235" y="270" type="curve" smooth="yes"/>
      <point x="235" y="407"/>
      <point x="288" y="491"/>
      <point x="383" y="504" type="curve"/>
      <point x="409" y="571" type="line"/>
      <point x="363" y="551" type="line"/>
      <point x="233" y="531"/>
      <point x="166" y="430"/>
      <point x="166" y="270" type="curve" smooth="yes"/>
      <point x="166" y="100"/>
      <point x="226" y="-11"/>
    </contour>
    <contour>
      <point x="34" y="325" type="curve" smooth="yes"/>
      <point x="34" y="223"/>
      <point x="57" y="142"/>
      <point x="78" y="83" type="curve"/>
      <point x="141" y="107" type="line"/>
      <point x="116" y="170"/>
      <point x="102" y="246"/>
      <point x="102" y="323" type="curve" smooth="yes"/>
      <point x="102" y="470"/>
      <point x="169" y="552"/>
      <point x="279" y="552" type="curve" smooth="yes"/>
      <point x="326" y="552"/>
      <point x="347" y="546"/>
      <point x="375" y="530" type="curve"/>
      <point x="409" y="571" type="line"/>
      <point x="366" y="597"/>
      <point x="327" y="612"/>
      <point x="270" y="612" type="curve" smooth="yes"/>
      <point x="128" y="612"/>
      <point x="34" y="506"/>
    </contour>
    <contour>
      <point x="715" y="-11" type="curve" smooth="yes"/>
      <point x="781" y="-11"/>
      <point x="821" y="-1"/>
      <point x="871" y="32" type="curve"/>
      <point x="846" y="91" type="line"/>
      <point x="805" y="65"/>
      <point x="768" y="57"/>
      <point x="723" y="57" type="curve" smooth="yes"/>
      <point x="609" y="57"/>
      <point x="560" y="125"/>
      <point x="560" y="229" type="curve" smooth="yes"/>
      <point x="560" y="280"/>
      <point x="573" y="317"/>
      <point x="599" y="343" type="curve" smooth="yes"/>
      <point x="633" y="378"/>
      <point x="684" y="393"/>
      <point x="777" y="393" type="curve" smooth="yes"/>
      <point x="853" y="393" type="line"/>
      <point x="853" y="431" type="line" smooth="yes"/>
      <point x="853" y="549"/>
      <point x="812" y="612"/>
      <point x="728" y="612" type="curve" smooth="yes"/>
      <point x="660" y="612"/>
      <point x="620" y="572"/>
      <point x="620" y="499" type="curve" smooth="yes"/>
      <point x="620" y="488"/>
      <point x="621" y="478"/>
      <point x="622" y="469" type="curve"/>
      <point x="689" y="475" type="line"/>
      <point x="688" y="479"/>
      <point x="688" y="487"/>
      <point x="688" y="492" type="curve" smooth="yes"/>
      <point x="688" y="527"/>
      <point x="702" y="549"/>
      <point x="733" y="549" type="curve" smooth="yes"/>
      <point x="766" y="549"/>
      <point x="785" y="519"/>
      <point x="787" y="455" type="curve"/>
      <point x="767" y="455" type="line" smooth="yes"/>
      <point x="667" y="455"/>
      <point x="615" y="442"/>
      <point x="569" y="405" type="curve" smooth="yes"/>
      <point x="522" y="368"/>
      <point x="504" y="312"/>
      <point x="504" y="223" type="curve" smooth="yes"/>
      <point x="504" y="68"/>
      <point x="585" y="-11"/>
    </contour>
    <contour>
      <point x="815" y="-271" type="curve" smooth="yes"/>
      <point x="846" y="-271"/>
      <point x="866" y="-267"/>
      <point x="890" y="-257" type="curve"/>
      <point x="872" y="-196" type="line"/>
      <point x="855" y="-203"/>
      <point x="841" y="-206"/>
      <point x="822" y="-206" type="curve" smooth="yes"/>
      <point x="787" y="-206"/>
      <point x="758" y="-184"/>
      <point x="758" y="-136" type="curve" smooth="yes"/>
      <point x="758" y="-64"/>
      <point x="802" y="-11"/>
      <point x="854" y="27" type="curve"/>
      <point x="846" y="62" type="line"/>
      <point x="814" y="48" type="line"/>
      <point x="744" y="6"/>
      <point x="690" y="-50"/>
      <point x="690" y="-140" type="curve" smooth="yes"/>
      <point x="690" y="-215"/>
      <point x="730" y="-271"/>
    </contour>
  </outline>
</glyph>
<glyph name="ttasinh" format="2">
  <advance width="596"/>
  <unicode hex="0DA7"/>
  <outline>
    <contour>
      <point x="271" y="-11" type="curve" smooth="yes"/>
      <point x="476" y="-11"/>
      <point x="561" y="153"/>
      <point x="561" y="416" type="curve" smooth="yes"/>
      <point x="561" y="727"/>
      <point x="426" y="836"/>
      <point x="264" y="836" type="curve" smooth="yes"/>
      <point x="180" y="836"/>
      <point x="107" y="810"/>
      <point x="39" y="771" type="curve"/>
      <point x="69" y="713" type="line"/>
      <point x="129" y="748"/>
      <point x="187" y="770"/>
      <point x="262" y="770" type="curve" smooth="yes"/>
      <point x="376" y="770"/>
      <point x="491" y="698"/>
      <point x="491" y="418" type="curve" smooth="yes"/>
      <point x="491" y="218"/>
      <point x="442" y="57"/>
      <point x="272" y="57" type="curve" smooth="yes"/>
      <point x="154" y="57"/>
      <point x="102" y="133"/>
      <point x="102" y="240" type="curve" smooth="yes"/>
      <point x="102" y="377"/>
      <point x="169" y="421"/>
      <point x="250" y="421" type="curve" smooth="yes"/>
      <point x="275" y="421"/>
      <point x="296" y="419"/>
      <point x="314" y="416" type="curve"/>
      <point x="320" y="480" type="line"/>
      <point x="301" y="483"/>
      <point x="278" y="486"/>
      <point x="255" y="486" type="curve" smooth="yes"/>
      <point x="134" y="486"/>
      <point x="33" y="411"/>
      <point x="33" y="241" type="curve" smooth="yes"/>
      <point x="33" y="91"/>
      <point x="118" y="-11"/>
    </contour>
  </outline>
</glyph>
<glyph name="tthasinh" format="2">
  <advance width="639"/>
  <unicode hex="0DA8"/>
  <outline>
    <contour>
      <point x="429" y="-11" type="curve" smooth="yes"/>
      <point x="532" y="-11"/>
      <point x="601" y="69"/>
      <point x="601" y="312" type="curve" smooth="yes"/>
      <point x="601" y="563"/>
      <point x="499" y="737"/>
      <point x="317" y="835" type="curve"/>
      <point x="280" y="784" type="line"/>
      <point x="294" y="777"/>
      <point x="312" y="768"/>
      <point x="324" y="760" type="curve" smooth="yes"/>
      <point x="443" y="684"/>
      <point x="531" y="544"/>
      <point x="531" y="313" type="curve" smooth="yes"/>
      <point x="531" y="123"/>
      <point x="490" y="56"/>
      <point x="423" y="56" type="curve" smooth="yes"/>
      <point x="364" y="56"/>
      <point x="337" y="109"/>
      <point x="337" y="194" type="curve" smooth="yes"/>
      <point x="337" y="213" type="line"/>
      <point x="273" y="213" type="line"/>
      <point x="273" y="199" type="line" smooth="yes"/>
      <point x="273" y="109"/>
      <point x="246" y="56"/>
      <point x="185" y="56" type="curve" smooth="yes"/>
      <point x="131" y="56"/>
      <point x="102" y="105"/>
      <point x="102" y="220" type="curve" smooth="yes"/>
      <point x="102" y="355"/>
      <point x="154" y="421"/>
      <point x="252" y="421" type="curve" smooth="yes"/>
      <point x="278" y="421"/>
      <point x="298" y="419"/>
      <point x="317" y="415" type="curve"/>
      <point x="324" y="479" type="line"/>
      <point x="305" y="484"/>
      <point x="276" y="486"/>
      <point x="250" y="486" type="curve" smooth="yes"/>
      <point x="107" y="486"/>
      <point x="33" y="374"/>
      <point x="33" y="217" type="curve" smooth="yes"/>
      <point x="33" y="62"/>
      <point x="93" y="-11"/>
      <point x="182" y="-11" type="curve" smooth="yes"/>
      <point x="246" y="-11"/>
      <point x="280" y="23"/>
      <point x="304" y="77" type="curve"/>
      <point x="330" y="26"/>
      <point x="363" y="-11"/>
    </contour>
    <contour>
      <point x="396" y="524" type="curve" smooth="yes"/>
      <point x="455" y="524"/>
      <point x="483" y="560"/>
      <point x="508" y="595" type="curve"/>
      <point x="471" y="646" type="line"/>
      <point x="445" y="599"/>
      <point x="427" y="588"/>
      <point x="402" y="588" type="curve" smooth="yes"/>
      <point x="379" y="588"/>
      <point x="368" y="608"/>
      <point x="367" y="654" type="curve" smooth="yes"/>
      <point x="365" y="736"/>
      <point x="348" y="768"/>
      <point x="312" y="803" type="curve"/>
      <point x="280" y="784" type="line"/>
      <point x="295" y="770"/>
      <point x="302" y="748"/>
      <point x="302" y="662" type="curve" smooth="yes"/>
      <point x="302" y="571"/>
      <point x="339" y="524"/>
    </contour>
  </outline>
</glyph>
<glyph name="ddasinh" format="2">
  <advance width="650"/>
  <unicode hex="0DA9"/>
  <outline>
    <contour>
      <point x="440" y="-11" type="curve" smooth="yes"/>
      <point x="543" y="-11"/>
      <point x="612" y="69"/>
      <point x="612" y="351" type="curve" smooth="yes"/>
      <point x="612" y="692"/>
      <point x="501" y="836"/>
      <point x="287" y="836" type="curve" smooth="yes"/>
      <point x="189" y="836"/>
      <point x="115" y="810"/>
      <point x="47" y="771" type="curve"/>
      <point x="77" y="713" type="line"/>
      <point x="137" y="748"/>
      <point x="200" y="770"/>
      <point x="287" y="770" type="curve" smooth="yes"/>
      <point x="467" y="770"/>
      <point x="542" y="634"/>
      <point x="542" y="350" type="curve" smooth="yes"/>
      <point x="542" y="123"/>
      <point x="501" y="56"/>
      <point x="434" y="56" type="curve" smooth="yes"/>
      <point x="375" y="56"/>
      <point x="348" y="109"/>
      <point x="348" y="194" type="curve" smooth="yes"/>
      <point x="348" y="213" type="line"/>
      <point x="284" y="213" type="line"/>
      <point x="284" y="196" type="line" smooth="yes"/>
      <point x="284" y="109"/>
      <point x="258" y="56"/>
      <point x="196" y="56" type="curve" smooth="yes"/>
      <point x="140" y="56"/>
      <point x="110" y="100"/>
      <point x="110" y="198" type="curve" smooth="yes"/>
      <point x="110" y="264"/>
      <point x="127" y="322"/>
      <point x="159" y="352" type="curve" smooth="yes"/>
      <point x="185" y="377"/>
      <point x="218" y="393"/>
      <point x="287" y="393" type="curve" smooth="yes"/>
      <point x="317" y="393" type="line"/>
      <point x="317" y="431" type="line" smooth="yes"/>
      <point x="317" y="549"/>
      <point x="274" y="612"/>
      <point x="192" y="612" type="curve" smooth="yes"/>
      <point x="125" y="612"/>
      <point x="85" y="572"/>
      <point x="85" y="497" type="curve" smooth="yes"/>
      <point x="85" y="490"/>
      <point x="85" y="481"/>
      <point x="86" y="474" type="curve"/>
      <point x="154" y="478" type="line"/>
      <point x="153" y="484"/>
      <point x="153" y="490"/>
      <point x="153" y="493" type="curve" smooth="yes"/>
      <point x="153" y="528"/>
      <point x="167" y="549"/>
      <point x="197" y="549" type="curve" smooth="yes"/>
      <point x="230" y="549"/>
      <point x="248" y="519"/>
      <point x="251" y="455" type="curve"/>
      <point x="26" y="455" type="line"/>
      <point x="26" y="393" type="line"/>
      <point x="51" y="393" type="line" smooth="yes"/>
      <point x="82" y="393"/>
      <point x="117" y="394"/>
      <point x="147" y="400" type="curve"/>
      <point x="145" y="408" type="line"/>
      <point x="70" y="361"/>
      <point x="41" y="289"/>
      <point x="41" y="196" type="curve" smooth="yes"/>
      <point x="41" y="59"/>
      <point x="101" y="-11"/>
      <point x="191" y="-11" type="curve" smooth="yes"/>
      <point x="255" y="-11"/>
      <point x="286" y="20"/>
      <point x="315" y="77" type="curve"/>
      <point x="341" y="26"/>
      <point x="374" y="-11"/>
    </contour>
  </outline>
</glyph>
<glyph name="nnasinh" format="2">
  <advance width="922"/>
  <unicode hex="0DAB"/>
  <outline>
    <contour>
      <point x="647" y="791" type="curve"/>
      <point x="597" y="835" type="line"/>
      <point x="524" y="752"/>
      <point x="452" y="669"/>
      <point x="379" y="583" type="curve"/>
      <point x="359" y="558" type="line"/>
      <point x="219" y="398"/>
      <point x="92" y="247"/>
      <point x="-3" y="129" type="curve"/>
      <point x="50" y="90" type="line"/>
      <point x="82" y="137"/>
      <point x="118" y="177"/>
      <point x="159" y="227" type="curve"/>
      <point x="175" y="250" type="line"/>
      <point x="287" y="388"/>
      <point x="462" y="588"/>
    </contour>
    <contour>
      <point x="317" y="-11" type="curve" smooth="yes"/>
      <point x="462" y="-11"/>
      <point x="576" y="81"/>
      <point x="576" y="300" type="curve" smooth="yes"/>
      <point x="576" y="463"/>
      <point x="510" y="544"/>
      <point x="440" y="582" type="curve"/>
      <point x="420" y="592" type="line"/>
      <point x="389" y="606"/>
      <point x="361" y="612"/>
      <point x="323" y="612" type="curve" smooth="yes"/>
      <point x="150" y="612"/>
      <point x="82" y="501"/>
      <point x="82" y="390" type="curve" smooth="yes"/>
      <point x="82" y="265"/>
      <point x="171" y="158"/>
      <point x="303" y="158" type="curve" smooth="yes"/>
      <point x="388" y="158"/>
      <point x="442" y="203"/>
      <point x="442" y="282" type="curve" smooth="yes"/>
      <point x="442" y="354"/>
      <point x="404" y="396"/>
      <point x="348" y="396" type="curve" smooth="yes"/>
      <point x="293" y="396"/>
      <point x="255" y="347"/>
      <point x="255" y="291" type="curve" smooth="yes"/>
      <point x="255" y="263"/>
      <point x="263" y="233"/>
      <point x="273" y="214" type="curve"/>
      <point x="330" y="217" type="line"/>
      <point x="319" y="236"/>
      <point x="311" y="256"/>
      <point x="311" y="285" type="curve" smooth="yes"/>
      <point x="311" y="315"/>
      <point x="323" y="334"/>
      <point x="348" y="334" type="curve" smooth="yes"/>
      <point x="371" y="334"/>
      <point x="380" y="315"/>
      <point x="380" y="284" type="curve" smooth="yes"/>
      <point x="380" y="243"/>
      <point x="352" y="221"/>
      <point x="316" y="221" type="curve" smooth="yes"/>
      <point x="311" y="221"/>
      <point x="306" y="221"/>
      <point x="301" y="221" type="curve" smooth="yes"/>
      <point x="272" y="222" type="line"/>
      <point x="227" y="230"/>
      <point x="196" y="255"/>
      <point x="178" y="282" type="curve"/>
      <point x="168" y="299" type="line"/>
      <point x="155" y="326"/>
      <point x="150" y="356"/>
      <point x="150" y="390" type="curve" smooth="yes"/>
      <point x="150" y="475"/>
      <point x="200" y="549"/>
      <point x="319" y="549" type="curve" smooth="yes"/>
      <point x="439" y="549"/>
      <point x="508" y="458"/>
      <point x="508" y="299" type="curve" smooth="yes"/>
      <point x="508" y="133"/>
      <point x="435" y="56"/>
      <point x="311" y="56" type="curve" smooth="yes"/>
      <point x="223" y="56"/>
      <point x="152" y="96"/>
      <point x="103" y="202" type="curve"/>
      <point x="57" y="152" type="line"/>
      <point x="125" y="38"/>
      <point x="201" y="-11"/>
    </contour>
    <contour>
      <point x="740" y="-11" type="curve" smooth="yes"/>
      <point x="833" y="-11"/>
      <point x="884" y="50"/>
      <point x="884" y="271" type="curve" smooth="yes"/>
      <point x="884" y="509"/>
      <point x="825" y="556"/>
      <point x="758" y="556" type="curve" smooth="yes"/>
      <point x="703" y="556"/>
      <point x="673" y="524"/>
      <point x="657" y="472" type="curve"/>
      <point x="642" y="516"/>
      <point x="616" y="529"/>
      <point x="587" y="529" type="curve" smooth="yes"/>
      <point x="546" y="529"/>
      <point x="516" y="503"/>
      <point x="498" y="463" type="curve"/>
      <point x="535" y="347" type="line"/>
      <point x="535" y="414"/>
      <point x="555" y="464"/>
      <point x="589" y="464" type="curve" smooth="yes"/>
      <point x="616" y="464"/>
      <point x="632" y="436"/>
      <point x="632" y="378" type="curve" smooth="yes"/>
      <point x="632" y="340" type="line"/>
      <point x="695" y="340" type="line"/>
      <point x="695" y="378" type="line" smooth="yes"/>
      <point x="695" y="451"/>
      <point x="711" y="491"/>
      <point x="749" y="491" type="curve" smooth="yes"/>
      <point x="795" y="491"/>
      <point x="814" y="409"/>
      <point x="814" y="273" type="curve" smooth="yes"/>
      <point x="814" y="116"/>
      <point x="795" y="54"/>
      <point x="741" y="54" type="curve" smooth="yes"/>
      <point x="702" y="54"/>
      <point x="684" y="84"/>
      <point x="666" y="146" type="curve"/>
      <point x="601" y="123" type="line"/>
      <point x="623" y="50"/>
      <point x="659" y="-11"/>
    </contour>
  </outline>
</glyph>
<glyph name="nnddasinh" format="2">
  <advance width="774"/>
  <unicode hex="0DAC"/>
  <outline>
    <contour>
      <point x="564" y="-11" type="curve" smooth="yes"/>
      <point x="667" y="-11"/>
      <point x="736" y="69"/>
      <point x="736" y="351" type="curve" smooth="yes"/>
      <point x="736" y="692"/>
      <point x="625" y="836"/>
      <point x="411" y="836" type="curve" smooth="yes"/>
      <point x="313" y="836"/>
      <point x="239" y="810"/>
      <point x="171" y="771" type="curve"/>
      <point x="201" y="713" type="line"/>
      <point x="261" y="748"/>
      <point x="324" y="770"/>
      <point x="411" y="770" type="curve" smooth="yes"/>
      <point x="591" y="770"/>
      <point x="666" y="634"/>
      <point x="666" y="350" type="curve" smooth="yes"/>
      <point x="666" y="123"/>
      <point x="625" y="56"/>
      <point x="558" y="56" type="curve" smooth="yes"/>
      <point x="499" y="56"/>
      <point x="472" y="109"/>
      <point x="472" y="194" type="curve" smooth="yes"/>
      <point x="472" y="213" type="line"/>
      <point x="408" y="213" type="line"/>
      <point x="408" y="196" type="line" smooth="yes"/>
      <point x="408" y="109"/>
      <point x="382" y="56"/>
      <point x="320" y="56" type="curve" smooth="yes"/>
      <point x="264" y="56"/>
      <point x="234" y="100"/>
      <point x="234" y="198" type="curve" smooth="yes"/>
      <point x="234" y="264"/>
      <point x="251" y="322"/>
      <point x="283" y="352" type="curve" smooth="yes"/>
      <point x="309" y="377"/>
      <point x="342" y="393"/>
      <point x="411" y="393" type="curve" smooth="yes"/>
      <point x="451" y="393" type="line"/>
      <point x="451" y="431" type="line" smooth="yes"/>
      <point x="451" y="549"/>
      <point x="408" y="612"/>
      <point x="326" y="612" type="curve" smooth="yes"/>
      <point x="259" y="612"/>
      <point x="219" y="564"/>
      <point x="219" y="497" type="curve" smooth="yes"/>
      <point x="219" y="490"/>
      <point x="219" y="481"/>
      <point x="220" y="474" type="curve"/>
      <point x="288" y="478" type="line"/>
      <point x="287" y="484"/>
      <point x="287" y="490"/>
      <point x="287" y="493" type="curve" smooth="yes"/>
      <point x="287" y="528"/>
      <point x="301" y="549"/>
      <point x="331" y="549" type="curve" smooth="yes"/>
      <point x="364" y="549"/>
      <point x="382" y="519"/>
      <point x="385" y="455" type="curve"/>
      <point x="153" y="455" type="line"/>
      <point x="153" y="393" type="line"/>
      <point x="175" y="393" type="line" smooth="yes"/>
      <point x="206" y="393"/>
      <point x="241" y="394"/>
      <point x="271" y="400" type="curve"/>
      <point x="269" y="408" type="line"/>
      <point x="194" y="361"/>
      <point x="165" y="289"/>
      <point x="165" y="196" type="curve" smooth="yes"/>
      <point x="165" y="59"/>
      <point x="225" y="-11"/>
      <point x="315" y="-11" type="curve" smooth="yes"/>
      <point x="379" y="-11"/>
      <point x="410" y="20"/>
      <point x="439" y="77" type="curve"/>
      <point x="465" y="26"/>
      <point x="498" y="-11"/>
    </contour>
    <contour>
      <point x="34" y="347" type="curve" smooth="yes"/>
      <point x="34" y="238"/>
      <point x="62" y="140"/>
      <point x="84" y="83" type="curve"/>
      <point x="147" y="105" type="line"/>
      <point x="123" y="163"/>
      <point x="102" y="247"/>
      <point x="102" y="342" type="curve" smooth="yes"/>
      <point x="102" y="477"/>
      <point x="165" y="552"/>
      <point x="263" y="552" type="curve" smooth="yes"/>
      <point x="277" y="552"/>
      <point x="289" y="551"/>
      <point x="297" y="550" type="curve"/>
      <point x="336" y="606" type="line"/>
      <point x="311" y="611"/>
      <point x="293" y="612"/>
      <point x="276" y="612" type="curve" smooth="yes"/>
      <point x="130" y="612"/>
      <point x="34" y="517"/>
    </contour>
  </outline>
</glyph>
<glyph name="thasinh" format="2">
  <advance width="596"/>
  <unicode hex="0DAE"/>
  <outline>
    <contour>
      <point x="271" y="-11" type="curve" smooth="yes"/>
      <point x="475" y="-11"/>
      <point x="561" y="155"/>
      <point x="561" y="385" type="curve" smooth="yes"/>
      <point x="561" y="602"/>
      <point x="461" y="748"/>
      <point x="301" y="835" type="curve"/>
      <point x="268" y="782" type="line"/>
      <point x="282" y="775"/>
      <point x="300" y="766"/>
      <point x="312" y="758" type="curve" smooth="yes"/>
      <point x="424" y="687"/>
      <point x="491" y="562"/>
      <point x="491" y="387" type="curve" smooth="yes"/>
      <point x="491" y="216"/>
      <point x="442" y="57"/>
      <point x="272" y="57" type="curve" smooth="yes"/>
      <point x="154" y="57"/>
      <point x="102" y="133"/>
      <point x="102" y="243" type="curve" smooth="yes"/>
      <point x="102" y="377"/>
      <point x="169" y="421"/>
      <point x="250" y="421" type="curve" smooth="yes"/>
      <point x="275" y="421"/>
      <point x="296" y="419"/>
      <point x="314" y="416" type="curve"/>
      <point x="320" y="479" type="line"/>
      <point x="301" y="483"/>
      <point x="278" y="486"/>
      <point x="255" y="486" type="curve" smooth="yes"/>
      <point x="133" y="486"/>
      <point x="33" y="409"/>
      <point x="33" y="244" type="curve" smooth="yes"/>
      <point x="33" y="91"/>
      <point x="121" y="-11"/>
    </contour>
    <contour>
      <point x="384" y="524" type="curve" smooth="yes"/>
      <point x="443" y="524"/>
      <point x="471" y="560"/>
      <point x="496" y="595" type="curve"/>
      <point x="459" y="646" type="line"/>
      <point x="433" y="599"/>
      <point x="415" y="588"/>
      <point x="390" y="588" type="curve" smooth="yes"/>
      <point x="367" y="588"/>
      <point x="356" y="608"/>
      <point x="355" y="654" type="curve" smooth="yes"/>
      <point x="353" y="736"/>
      <point x="336" y="766"/>
      <point x="300" y="801" type="curve"/>
      <point x="268" y="782" type="line"/>
      <point x="283" y="768"/>
      <point x="290" y="748"/>
      <point x="290" y="662" type="curve" smooth="yes"/>
      <point x="290" y="571"/>
      <point x="327" y="524"/>
    </contour>
  </outline>
</glyph>
<glyph name="dasinh" format="2">
  <advance width="434"/>
  <unicode hex="0DAF"/>
  <outline>
    <contour>
      <point x="267" y="-11" type="curve" smooth="yes"/>
      <point x="336" y="-11"/>
      <point x="378" y="-1"/>
      <point x="430" y="32" type="curve"/>
      <point x="405" y="91" type="line"/>
      <point x="362" y="65"/>
      <point x="323" y="57"/>
      <point x="275" y="57" type="curve" smooth="yes"/>
      <point x="155" y="57"/>
      <point x="103" y="125"/>
      <point x="103" y="228" type="curve" smooth="yes"/>
      <point x="103" y="278"/>
      <point x="117" y="317"/>
      <point x="144" y="343" type="curve" smooth="yes"/>
      <point x="180" y="378"/>
      <point x="231" y="393"/>
      <point x="324" y="393" type="curve" smooth="yes"/>
      <point x="412" y="393" type="line"/>
      <point x="412" y="431" type="line" smooth="yes"/>
      <point x="412" y="549"/>
      <point x="371" y="612"/>
      <point x="287" y="612" type="curve" smooth="yes"/>
      <point x="219" y="612"/>
      <point x="179" y="572"/>
      <point x="179" y="499" type="curve" smooth="yes"/>
      <point x="179" y="488"/>
      <point x="180" y="478"/>
      <point x="181" y="469" type="curve"/>
      <point x="248" y="475" type="line"/>
      <point x="247" y="479"/>
      <point x="247" y="487"/>
      <point x="247" y="492" type="curve" smooth="yes"/>
      <point x="247" y="527"/>
      <point x="261" y="549"/>
      <point x="292" y="549" type="curve" smooth="yes"/>
      <point x="325" y="549"/>
      <point x="344" y="519"/>
      <point x="346" y="455" type="curve"/>
      <point x="325" y="455" type="line" smooth="yes"/>
      <point x="220" y="455"/>
      <point x="163" y="440"/>
      <point x="113" y="405" type="curve" smooth="yes"/>
      <point x="64" y="370"/>
      <point x="33" y="307"/>
      <point x="33" y="228" type="curve" smooth="yes"/>
      <point x="33" y="68"/>
      <point x="132" y="-11"/>
    </contour>
    <contour>
      <point x="374" y="-271" type="curve" smooth="yes"/>
      <point x="405" y="-271"/>
      <point x="425" y="-267"/>
      <point x="449" y="-257" type="curve"/>
      <point x="431" y="-196" type="line"/>
      <point x="414" y="-203"/>
      <point x="400" y="-206"/>
      <point x="381" y="-206" type="curve" smooth="yes"/>
      <point x="346" y="-206"/>
      <point x="317" y="-184"/>
      <point x="317" y="-136" type="curve" smooth="yes"/>
      <point x="317" y="-64"/>
      <point x="361" y="-11"/>
      <point x="413" y="27" type="curve"/>
      <point x="405" y="62" type="line"/>
      <point x="373" y="48" type="line"/>
      <point x="303" y="6"/>
      <point x="249" y="-50"/>
      <point x="249" y="-140" type="curve" smooth="yes"/>
      <point x="249" y="-215"/>
      <point x="289" y="-271"/>
    </contour>
  </outline>
</glyph>
<glyph name="dhasinh" format="2">
  <advance width="639"/>
  <unicode hex="0DB0"/>
  <outline>
    <contour>
      <point x="429" y="-11" type="curve" smooth="yes"/>
      <point x="532" y="-11"/>
      <point x="601" y="69"/>
      <point x="601" y="351" type="curve" smooth="yes"/>
      <point x="601" y="692"/>
      <point x="490" y="836"/>
      <point x="279" y="836" type="curve" smooth="yes"/>
      <point x="183" y="836"/>
      <point x="109" y="811"/>
      <point x="41" y="772" type="curve"/>
      <point x="71" y="714" type="line"/>
      <point x="131" y="749"/>
      <point x="194" y="770"/>
      <point x="279" y="770" type="curve" smooth="yes"/>
      <point x="457" y="770"/>
      <point x="531" y="634"/>
      <point x="531" y="350" type="curve" smooth="yes"/>
      <point x="531" y="123"/>
      <point x="490" y="56"/>
      <point x="423" y="56" type="curve" smooth="yes"/>
      <point x="364" y="56"/>
      <point x="337" y="109"/>
      <point x="337" y="194" type="curve" smooth="yes"/>
      <point x="337" y="213" type="line"/>
      <point x="273" y="213" type="line"/>
      <point x="273" y="199" type="line" smooth="yes"/>
      <point x="273" y="109"/>
      <point x="246" y="56"/>
      <point x="185" y="56" type="curve" smooth="yes"/>
      <point x="131" y="56"/>
      <point x="102" y="105"/>
      <point x="102" y="220" type="curve" smooth="yes"/>
      <point x="102" y="355"/>
      <point x="154" y="421"/>
      <point x="252" y="421" type="curve" smooth="yes"/>
      <point x="278" y="421"/>
      <point x="298" y="419"/>
      <point x="317" y="415" type="curve"/>
      <point x="324" y="479" type="line"/>
      <point x="305" y="484"/>
      <point x="276" y="486"/>
      <point x="250" y="486" type="curve" smooth="yes"/>
      <point x="107" y="486"/>
      <point x="33" y="374"/>
      <point x="33" y="217" type="curve" smooth="yes"/>
      <point x="33" y="62"/>
      <point x="93" y="-11"/>
      <point x="182" y="-11" type="curve" smooth="yes"/>
      <point x="246" y="-11"/>
      <point x="280" y="23"/>
      <point x="304" y="77" type="curve"/>
      <point x="330" y="26"/>
      <point x="363" y="-11"/>
    </contour>
  </outline>
</glyph>
<glyph name="nasinh" format="2">
  <advance width="713"/>
  <unicode hex="0DB1"/>
  <outline>
    <contour>
      <point x="281" y="-11" type="curve" smooth="yes"/>
      <point x="437" y="-11"/>
      <point x="488" y="109"/>
      <point x="488" y="231" type="curve" smooth="yes"/>
      <point x="488" y="371"/>
      <point x="423" y="448"/>
      <point x="310" y="448" type="curve" smooth="yes"/>
      <point x="278" y="448"/>
      <point x="244" y="437"/>
      <point x="222" y="422" type="curve"/>
      <point x="224" y="372" type="line"/>
      <point x="251" y="379"/>
      <point x="277" y="384"/>
      <point x="302" y="384" type="curve" smooth="yes"/>
      <point x="373" y="384"/>
      <point x="419" y="336"/>
      <point x="419" y="229" type="curve" smooth="yes"/>
      <point x="419" y="114"/>
      <point x="369" y="56"/>
      <point x="278" y="56" type="curve" smooth="yes"/>
      <point x="172" y="56"/>
      <point x="110" y="128"/>
      <point x="91" y="311" type="curve"/>
      <point x="24" y="300" type="line"/>
      <point x="52" y="68"/>
      <point x="154" y="-11"/>
    </contour>
    <contour>
      <point x="499" y="-3" type="curve" smooth="yes"/>
      <point x="601" y="-3"/>
      <point x="679" y="77"/>
      <point x="679" y="288" type="curve" smooth="yes"/>
      <point x="679" y="487"/>
      <point x="592" y="612"/>
      <point x="441" y="612" type="curve" smooth="yes"/>
      <point x="341" y="612"/>
      <point x="279" y="546"/>
      <point x="244" y="465" type="curve"/>
      <point x="224" y="442" type="line"/>
      <point x="206" y="295"/>
      <point x="150" y="277"/>
      <point x="105" y="277" type="curve" smooth="yes"/>
      <point x="86" y="277"/>
      <point x="69" y="279"/>
      <point x="55" y="285" type="curve"/>
      <point x="54" y="226" type="line"/>
      <point x="64" y="221"/>
      <point x="80" y="215"/>
      <point x="98" y="215" type="curve" smooth="yes"/>
      <point x="186" y="215"/>
      <point x="257" y="250"/>
      <point x="275" y="394" type="curve"/>
      <point x="280" y="412" type="line"/>
      <point x="314" y="491"/>
      <point x="361" y="545"/>
      <point x="439" y="545" type="curve" smooth="yes"/>
      <point x="540" y="545"/>
      <point x="609" y="457"/>
      <point x="609" y="277" type="curve" smooth="yes"/>
      <point x="609" y="153"/>
      <point x="580" y="63"/>
      <point x="489" y="63" type="curve" smooth="yes"/>
      <point x="483" y="63"/>
      <point x="470" y="64"/>
      <point x="465" y="65" type="curve"/>
      <point x="462" y="-1" type="line"/>
      <point x="474" y="-3"/>
      <point x="483" y="-3"/>
    </contour>
    <contour>
      <point x="165" y="592" type="curve" smooth="yes"/>
      <point x="96" y="592"/>
      <point x="57" y="548"/>
      <point x="57" y="467" type="curve" smooth="yes"/>
      <point x="57" y="445"/>
      <point x="61" y="415"/>
      <point x="66" y="389" type="curve"/>
      <point x="131" y="400" type="line"/>
      <point x="128" y="417"/>
      <point x="125" y="438"/>
      <point x="125" y="460" type="curve" smooth="yes"/>
      <point x="125" y="508"/>
      <point x="136" y="529"/>
      <point x="162" y="529" type="curve" smooth="yes"/>
      <point x="192" y="529"/>
      <point x="209" y="485"/>
      <point x="219" y="398" type="curve"/>
      <point x="268" y="436" type="line"/>
      <point x="263" y="516"/>
      <point x="236" y="592"/>
    </contour>
  </outline>
</glyph>
<glyph name="ndasinh" format="2">
  <advance width="534"/>
  <unicode hex="0DB3"/>
  <outline>
    <contour>
      <point x="374" y="-11" type="curve" smooth="yes"/>
      <point x="440" y="-11"/>
      <point x="480" y="-1"/>
      <point x="530" y="32" type="curve"/>
      <point x="505" y="91" type="line"/>
      <point x="464" y="65"/>
      <point x="427" y="57"/>
      <point x="382" y="57" type="curve" smooth="yes"/>
      <point x="268" y="57"/>
      <point x="219" y="125"/>
      <point x="219" y="229" type="curve" smooth="yes"/>
      <point x="219" y="280"/>
      <point x="232" y="317"/>
      <point x="258" y="343" type="curve" smooth="yes"/>
      <point x="292" y="378"/>
      <point x="343" y="393"/>
      <point x="440" y="393" type="curve" smooth="yes"/>
      <point x="512" y="393" type="line"/>
      <point x="512" y="431" type="line" smooth="yes"/>
      <point x="512" y="549"/>
      <point x="471" y="612"/>
      <point x="387" y="612" type="curve" smooth="yes"/>
      <point x="319" y="612"/>
      <point x="279" y="568"/>
      <point x="279" y="499" type="curve" smooth="yes"/>
      <point x="279" y="488"/>
      <point x="280" y="478"/>
      <point x="281" y="469" type="curve"/>
      <point x="348" y="475" type="line"/>
      <point x="347" y="479"/>
      <point x="347" y="487"/>
      <point x="347" y="492" type="curve" smooth="yes"/>
      <point x="347" y="527"/>
      <point x="361" y="549"/>
      <point x="392" y="549" type="curve" smooth="yes"/>
      <point x="425" y="549"/>
      <point x="444" y="519"/>
      <point x="446" y="455" type="curve"/>
      <point x="427" y="455" type="line" smooth="yes"/>
      <point x="327" y="455"/>
      <point x="273" y="440"/>
      <point x="226" y="405" type="curve" smooth="yes"/>
      <point x="179" y="370"/>
      <point x="150" y="307"/>
      <point x="150" y="228" type="curve" smooth="yes"/>
      <point x="150" y="68"/>
      <point x="246" y="-11"/>
    </contour>
    <contour>
      <point x="474" y="-271" type="curve" smooth="yes"/>
      <point x="505" y="-271"/>
      <point x="525" y="-267"/>
      <point x="549" y="-257" type="curve"/>
      <point x="531" y="-196" type="line"/>
      <point x="514" y="-203"/>
      <point x="500" y="-206"/>
      <point x="481" y="-206" type="curve" smooth="yes"/>
      <point x="446" y="-206"/>
      <point x="417" y="-184"/>
      <point x="417" y="-136" type="curve" smooth="yes"/>
      <point x="417" y="-64"/>
      <point x="461" y="-11"/>
      <point x="513" y="27" type="curve"/>
      <point x="505" y="62" type="line"/>
      <point x="473" y="48" type="line"/>
      <point x="403" y="6"/>
      <point x="349" y="-50"/>
      <point x="349" y="-140" type="curve" smooth="yes"/>
      <point x="349" y="-215"/>
      <point x="389" y="-271"/>
    </contour>
    <contour>
      <point x="34" y="330" type="curve" smooth="yes"/>
      <point x="34" y="223"/>
      <point x="58" y="149"/>
      <point x="80" y="83" type="curve"/>
      <point x="144" y="107" type="line"/>
      <point x="117" y="176"/>
      <point x="102" y="246"/>
      <point x="102" y="329" type="curve" smooth="yes"/>
      <point x="102" y="463"/>
      <point x="162" y="553"/>
      <point x="276" y="553" type="curve" smooth="yes"/>
      <point x="291" y="553"/>
      <point x="304" y="552"/>
      <point x="314" y="551" type="curve"/>
      <point x="362" y="604" type="line"/>
      <point x="331" y="610"/>
      <point x="317" y="612"/>
      <point x="271" y="612" type="curve" smooth="yes"/>
      <point x="131" y="612"/>
      <point x="34" y="513"/>
    </contour>
  </outline>
</glyph>
<glyph name="pasinh" format="2">
  <advance width="592"/>
  <unicode hex="0DB4"/>
  <outline>
    <contour>
      <point x="295" y="-11" type="curve" smooth="yes"/>
      <point x="469" y="-11"/>
      <point x="559" y="90"/>
      <point x="559" y="248" type="curve" smooth="yes"/>
      <point x="559" y="376"/>
      <point x="480" y="455"/>
      <point x="360" y="455" type="curve"/>
      <point x="343" y="455" type="line"/>
      <point x="375" y="452" type="line"/>
      <point x="377" y="519"/>
      <point x="395" y="549"/>
      <point x="427" y="549" type="curve" smooth="yes"/>
      <point x="457" y="549"/>
      <point x="473" y="529"/>
      <point x="473" y="489" type="curve" smooth="yes"/>
      <point x="473" y="481"/>
      <point x="471" y="464"/>
      <point x="470" y="457" type="curve"/>
      <point x="536" y="448" type="line"/>
      <point x="539" y="464"/>
      <point x="541" y="480"/>
      <point x="541" y="497" type="curve" smooth="yes"/>
      <point x="541" y="573"/>
      <point x="500" y="612"/>
      <point x="434" y="612" type="curve" smooth="yes"/>
      <point x="350" y="612"/>
      <point x="309" y="549"/>
      <point x="309" y="431" type="curve" smooth="yes"/>
      <point x="309" y="393" type="line"/>
      <point x="333" y="393" type="line" smooth="yes"/>
      <point x="390" y="393"/>
      <point x="430" y="379"/>
      <point x="455" y="353" type="curve" smooth="yes"/>
      <point x="478" y="328"/>
      <point x="490" y="296"/>
      <point x="490" y="246" type="curve" smooth="yes"/>
      <point x="490" y="139"/>
      <point x="438" y="57"/>
      <point x="296" y="57" type="curve" smooth="yes"/>
      <point x="154" y="57"/>
      <point x="102" y="139"/>
      <point x="102" y="246" type="curve" smooth="yes"/>
      <point x="102" y="296"/>
      <point x="114" y="328"/>
      <point x="137" y="353" type="curve" smooth="yes"/>
      <point x="162" y="379"/>
      <point x="202" y="393"/>
      <point x="259" y="393" type="curve" smooth="yes"/>
      <point x="283" y="393" type="line"/>
      <point x="283" y="431" type="line" smooth="yes"/>
      <point x="283" y="549"/>
      <point x="242" y="612"/>
      <point x="158" y="612" type="curve" smooth="yes"/>
      <point x="92" y="612"/>
      <point x="51" y="573"/>
      <point x="51" y="497" type="curve" smooth="yes"/>
      <point x="51" y="480"/>
      <point x="53" y="464"/>
      <point x="56" y="448" type="curve"/>
      <point x="122" y="457" type="line"/>
      <point x="121" y="464"/>
      <point x="119" y="481"/>
      <point x="119" y="489" type="curve" smooth="yes"/>
      <point x="119" y="529"/>
      <point x="135" y="549"/>
      <point x="164" y="549" type="curve" smooth="yes"/>
      <point x="197" y="549"/>
      <point x="215" y="519"/>
      <point x="217" y="452" type="curve"/>
      <point x="249" y="455" type="line"/>
      <point x="237" y="455" type="line" smooth="yes"/>
      <point x="107" y="455"/>
      <point x="33" y="373"/>
      <point x="33" y="249" type="curve" smooth="yes"/>
      <point x="33" y="90"/>
      <point x="123" y="-11"/>
    </contour>
  </outline>
</glyph>
<glyph name="basinh" format="2">
  <advance width="657"/>
  <unicode hex="0DB6"/>
  <outline>
    <contour>
      <point x="423" y="-11" type="curve" smooth="yes"/>
      <point x="557" y="-11"/>
      <point x="620" y="155"/>
      <point x="620" y="387" type="curve" smooth="yes"/>
      <point x="620" y="654"/>
      <point x="520" y="836"/>
      <point x="292" y="836" type="curve" smooth="yes"/>
      <point x="185" y="836"/>
      <point x="111" y="811"/>
      <point x="43" y="772" type="curve"/>
      <point x="73" y="714" type="line"/>
      <point x="132" y="748"/>
      <point x="200" y="770"/>
      <point x="292" y="770" type="curve" smooth="yes"/>
      <point x="477" y="770"/>
      <point x="550" y="612"/>
      <point x="550" y="385" type="curve" smooth="yes"/>
      <point x="550" y="193"/>
      <point x="501" y="54"/>
      <point x="427" y="54" type="curve" smooth="yes"/>
      <point x="401" y="54"/>
      <point x="384" y="68"/>
      <point x="384" y="105" type="curve" smooth="yes"/>
      <point x="384" y="134"/>
      <point x="392" y="170"/>
      <point x="407" y="223" type="curve" smooth="yes"/>
      <point x="422" y="277"/>
      <point x="431" y="317"/>
      <point x="431" y="370" type="curve" smooth="yes"/>
      <point x="431" y="472"/>
      <point x="378" y="555"/>
      <point x="261" y="555" type="curve" smooth="yes"/>
      <point x="118" y="555"/>
      <point x="35" y="428"/>
      <point x="35" y="237" type="curve" smooth="yes"/>
      <point x="35" y="98"/>
      <point x="81" y="-11"/>
      <point x="191" y="-11" type="curve" smooth="yes"/>
      <point x="272" y="-11"/>
      <point x="305" y="47"/>
      <point x="305" y="112" type="curve" smooth="yes"/>
      <point x="305" y="172"/>
      <point x="275" y="230"/>
      <point x="198" y="230" type="curve" smooth="yes"/>
      <point x="146" y="230"/>
      <point x="106" y="201"/>
      <point x="71" y="159" type="curve"/>
      <point x="90" y="105" type="line"/>
      <point x="121" y="144"/>
      <point x="154" y="167"/>
      <point x="188" y="167" type="curve" smooth="yes"/>
      <point x="224" y="167"/>
      <point x="238" y="141"/>
      <point x="238" y="111" type="curve" smooth="yes"/>
      <point x="238" y="72"/>
      <point x="222" y="53"/>
      <point x="187" y="53" type="curve" smooth="yes"/>
      <point x="143" y="53"/>
      <point x="111" y="94"/>
      <point x="108" y="156" type="curve"/>
      <point x="105" y="179"/>
      <point x="103" y="206"/>
      <point x="103" y="237" type="curve" smooth="yes"/>
      <point x="103" y="397"/>
      <point x="164" y="489"/>
      <point x="260" y="489" type="curve" smooth="yes"/>
      <point x="327" y="489"/>
      <point x="362" y="439"/>
      <point x="362" y="358" type="curve" smooth="yes"/>
      <point x="362" y="319"/>
      <point x="353" y="282"/>
      <point x="341" y="236" type="curve" smooth="yes"/>
      <point x="325" y="176"/>
      <point x="317" y="141"/>
      <point x="317" y="102" type="curve" smooth="yes"/>
      <point x="317" y="41"/>
      <point x="354" y="-11"/>
    </contour>
  </outline>
</glyph>
<glyph name="bhasinh" format="2">
  <advance width="727"/>
  <unicode hex="0DB7"/>
  <outline>
    <contour>
      <point x="489" y="-3" type="curve" smooth="yes"/>
      <point x="608" y="-3"/>
      <point x="691" y="89"/>
      <point x="691" y="315" type="curve" smooth="yes"/>
      <point x="691" y="496"/>
      <point x="632" y="612"/>
      <point x="509" y="612" type="curve" smooth="yes"/>
      <point x="406" y="612"/>
      <point x="329" y="541"/>
      <point x="291" y="291" type="curve"/>
      <point x="353" y="271" type="line"/>
      <point x="361" y="288"/>
      <point x="372" y="294"/>
      <point x="384" y="294" type="curve" smooth="yes"/>
      <point x="404" y="294"/>
      <point x="413" y="275"/>
      <point x="413" y="231" type="curve" smooth="yes"/>
      <point x="413" y="121"/>
      <point x="357" y="56"/>
      <point x="263" y="56" type="curve" smooth="yes"/>
      <point x="167" y="56"/>
      <point x="113" y="124"/>
      <point x="113" y="228" type="curve" smooth="yes"/>
      <point x="113" y="282"/>
      <point x="127" y="321"/>
      <point x="152" y="347" type="curve" smooth="yes"/>
      <point x="185" y="381"/>
      <point x="229" y="393"/>
      <point x="288" y="393" type="curve" smooth="yes"/>
      <point x="295" y="393" type="line"/>
      <point x="295" y="431" type="line" smooth="yes"/>
      <point x="295" y="551"/>
      <point x="252" y="612"/>
      <point x="170" y="612" type="curve" smooth="yes"/>
      <point x="103" y="612"/>
      <point x="63" y="572"/>
      <point x="63" y="497" type="curve" smooth="yes"/>
      <point x="63" y="490"/>
      <point x="63" y="481"/>
      <point x="64" y="474" type="curve"/>
      <point x="132" y="478" type="line"/>
      <point x="131" y="484"/>
      <point x="131" y="490"/>
      <point x="131" y="493" type="curve" smooth="yes"/>
      <point x="131" y="528"/>
      <point x="145" y="549"/>
      <point x="176" y="549" type="curve" smooth="yes"/>
      <point x="208" y="549"/>
      <point x="226" y="520"/>
      <point x="229" y="455" type="curve"/>
      <point x="26" y="455" type="line"/>
      <point x="26" y="393" type="line"/>
      <point x="59" y="393" type="line" smooth="yes"/>
      <point x="83" y="393"/>
      <point x="128" y="395"/>
      <point x="158" y="402" type="curve"/>
      <point x="166" y="416" type="line"/>
      <point x="97" y="393"/>
      <point x="45" y="326"/>
      <point x="45" y="228" type="curve" smooth="yes"/>
      <point x="45" y="88"/>
      <point x="120" y="-11"/>
      <point x="264" y="-11" type="curve" smooth="yes"/>
      <point x="423" y="-11"/>
      <point x="481" y="112"/>
      <point x="481" y="228" type="curve" smooth="yes"/>
      <point x="481" y="314"/>
      <point x="451" y="358"/>
      <point x="396" y="358" type="curve" smooth="yes"/>
      <point x="383" y="358"/>
      <point x="364" y="351"/>
      <point x="355" y="341" type="curve"/>
      <point x="364" y="339" type="line"/>
      <point x="394" y="494"/>
      <point x="442" y="545"/>
      <point x="505" y="545" type="curve" smooth="yes"/>
      <point x="579" y="545"/>
      <point x="621" y="473"/>
      <point x="621" y="314" type="curve" smooth="yes"/>
      <point x="621" y="142"/>
      <point x="577" y="63"/>
      <point x="481" y="63" type="curve" smooth="yes"/>
      <point x="471" y="63"/>
      <point x="464" y="64"/>
      <point x="458" y="65" type="curve"/>
      <point x="455" y="0" type="line"/>
      <point x="465" y="-2"/>
      <point x="476" y="-3"/>
    </contour>
  </outline>
</glyph>
<glyph name="masinh" format="2">
  <advance width="644"/>
  <unicode hex="0DB8"/>
  <outline>
    <contour>
      <point x="305" y="-11" type="curve" smooth="yes"/>
      <point x="522" y="-11"/>
      <point x="609" y="150"/>
      <point x="609" y="416" type="curve" smooth="yes"/>
      <point x="609" y="730"/>
      <point x="473" y="836"/>
      <point x="292" y="836" type="curve" smooth="yes"/>
      <point x="188" y="836"/>
      <point x="114" y="808"/>
      <point x="47" y="771" type="curve"/>
      <point x="77" y="713" type="line"/>
      <point x="137" y="748"/>
      <point x="198" y="770"/>
      <point x="294" y="770" type="curve" smooth="yes"/>
      <point x="424" y="770"/>
      <point x="539" y="698"/>
      <point x="539" y="418" type="curve" smooth="yes"/>
      <point x="539" y="209"/>
      <point x="486" y="57"/>
      <point x="307" y="57" type="curve" smooth="yes"/>
      <point x="177" y="57"/>
      <point x="104" y="140"/>
      <point x="104" y="336" type="curve" smooth="yes"/>
      <point x="104" y="447"/>
      <point x="131" y="513"/>
      <point x="160" y="513" type="curve" smooth="yes"/>
      <point x="176" y="513"/>
      <point x="178" y="499"/>
      <point x="178" y="476" type="curve" smooth="yes"/>
      <point x="178" y="452"/>
      <point x="169" y="422"/>
      <point x="169" y="383" type="curve" smooth="yes"/>
      <point x="169" y="303"/>
      <point x="206" y="231"/>
      <point x="313" y="231" type="curve" smooth="yes"/>
      <point x="405" y="231"/>
      <point x="462" y="297"/>
      <point x="462" y="414" type="curve" smooth="yes"/>
      <point x="462" y="532"/>
      <point x="413" y="576"/>
      <point x="355" y="576" type="curve" smooth="yes"/>
      <point x="287" y="576"/>
      <point x="251" y="525"/>
      <point x="251" y="464" type="curve" smooth="yes"/>
      <point x="251" y="391"/>
      <point x="281" y="356"/>
      <point x="344" y="356" type="curve" smooth="yes"/>
      <point x="384" y="356"/>
      <point x="402" y="372"/>
      <point x="428" y="398" type="curve"/>
      <point x="409" y="444" type="line"/>
      <point x="387" y="420"/>
      <point x="374" y="415"/>
      <point x="349" y="415" type="curve" smooth="yes"/>
      <point x="325" y="415"/>
      <point x="312" y="430"/>
      <point x="312" y="464" type="curve" smooth="yes"/>
      <point x="312" y="500"/>
      <point x="330" y="516"/>
      <point x="353" y="516" type="curve" smooth="yes"/>
      <point x="382" y="516"/>
      <point x="399" y="487"/>
      <point x="399" y="419" type="curve" smooth="yes"/>
      <point x="399" y="329"/>
      <point x="369" y="293"/>
      <point x="310" y="293" type="curve" smooth="yes"/>
      <point x="254" y="293"/>
      <point x="233" y="330"/>
      <point x="233" y="386" type="curve" smooth="yes"/>
      <point x="233" y="433"/>
      <point x="242" y="462"/>
      <point x="242" y="499" type="curve" smooth="yes"/>
      <point x="242" y="531"/>
      <point x="227" y="576"/>
      <point x="170" y="576" type="curve" smooth="yes"/>
      <point x="92" y="576"/>
      <point x="35" y="491"/>
      <point x="35" y="332" type="curve" smooth="yes"/>
      <point x="35" y="115"/>
      <point x="126" y="-11"/>
    </contour>
  </outline>
</glyph>
<glyph name="mbasinh" format="2">
  <advance width="679"/>
  <unicode hex="0DB9"/>
  <outline>
    <contour>
      <point x="231" y="-11" type="curve" smooth="yes"/>
      <point x="262" y="-11"/>
      <point x="279" y="-5"/>
      <point x="295" y="1" type="curve"/>
      <point x="270" y="57" type="line"/>
      <point x="260" y="54"/>
      <point x="252" y="53"/>
      <point x="240" y="53" type="curve" smooth="yes"/>
      <point x="148" y="53"/>
      <point x="107" y="129"/>
      <point x="107" y="294" type="curve" smooth="yes"/>
      <point x="107" y="419"/>
      <point x="141" y="513"/>
      <point x="178" y="513" type="curve" smooth="yes"/>
      <point x="194" y="513"/>
      <point x="196" y="499"/>
      <point x="196" y="476" type="curve" smooth="yes"/>
      <point x="196" y="452"/>
      <point x="187" y="422"/>
      <point x="187" y="383" type="curve" smooth="yes"/>
      <point x="187" y="303"/>
      <point x="224" y="231"/>
      <point x="329" y="231" type="curve" smooth="yes"/>
      <point x="423" y="231"/>
      <point x="480" y="297"/>
      <point x="480" y="414" type="curve" smooth="yes"/>
      <point x="480" y="531"/>
      <point x="431" y="576"/>
      <point x="373" y="576" type="curve" smooth="yes"/>
      <point x="305" y="576"/>
      <point x="269" y="525"/>
      <point x="269" y="464" type="curve" smooth="yes"/>
      <point x="269" y="391"/>
      <point x="299" y="356"/>
      <point x="362" y="356" type="curve" smooth="yes"/>
      <point x="402" y="356"/>
      <point x="420" y="372"/>
      <point x="446" y="398" type="curve"/>
      <point x="427" y="444" type="line"/>
      <point x="405" y="420"/>
      <point x="392" y="415"/>
      <point x="367" y="415" type="curve" smooth="yes"/>
      <point x="343" y="415"/>
      <point x="330" y="430"/>
      <point x="330" y="464" type="curve" smooth="yes"/>
      <point x="330" y="500"/>
      <point x="348" y="516"/>
      <point x="371" y="516" type="curve" smooth="yes"/>
      <point x="400" y="516"/>
      <point x="417" y="487"/>
      <point x="417" y="419" type="curve" smooth="yes"/>
      <point x="417" y="329"/>
      <point x="387" y="293"/>
      <point x="328" y="293" type="curve" smooth="yes"/>
      <point x="272" y="293"/>
      <point x="251" y="330"/>
      <point x="251" y="386" type="curve" smooth="yes"/>
      <point x="251" y="433"/>
      <point x="260" y="462"/>
      <point x="260" y="499" type="curve" smooth="yes"/>
      <point x="260" y="531"/>
      <point x="245" y="576"/>
      <point x="187" y="576" type="curve" smooth="yes"/>
      <point x="98" y="576"/>
      <point x="38" y="472"/>
      <point x="38" y="293" type="curve" smooth="yes"/>
      <point x="38" y="89"/>
      <point x="113" y="-11"/>
    </contour>
    <contour>
      <point x="424" y="-11" type="curve" smooth="yes"/>
      <point x="584" y="-11"/>
      <point x="641" y="158"/>
      <point x="641" y="375" type="curve" smooth="yes"/>
      <point x="641" y="714"/>
      <point x="504" y="836"/>
      <point x="315" y="836" type="curve" smooth="yes"/>
      <point x="206" y="836"/>
      <point x="128" y="808"/>
      <point x="57" y="771" type="curve"/>
      <point x="87" y="713" type="line"/>
      <point x="149" y="746"/>
      <point x="220" y="770"/>
      <point x="312" y="770" type="curve" smooth="yes"/>
      <point x="472" y="770"/>
      <point x="571" y="659"/>
      <point x="571" y="376" type="curve" smooth="yes"/>
      <point x="571" y="182"/>
      <point x="532" y="52"/>
      <point x="421" y="52" type="curve" smooth="yes"/>
      <point x="405" y="52"/>
      <point x="392" y="53"/>
      <point x="380" y="56" type="curve"/>
      <point x="356" y="1" type="line"/>
      <point x="374" y="-5"/>
      <point x="397" y="-11"/>
    </contour>
    <contour>
      <point x="325" y="168" type="curve" smooth="yes"/>
      <point x="366" y="168"/>
      <point x="384" y="147"/>
      <point x="384" y="118" type="curve" smooth="yes"/>
      <point x="384" y="89"/>
      <point x="371" y="74"/>
      <point x="349" y="61" type="curve"/>
      <point x="356" y="1" type="line"/>
      <point x="387" y="33" type="line"/>
      <point x="427" y="55"/>
      <point x="449" y="84"/>
      <point x="449" y="131" type="curve" smooth="yes"/>
      <point x="449" y="191"/>
      <point x="399" y="226"/>
      <point x="330" y="226" type="curve" smooth="yes"/>
      <point x="324" y="226" type="line" smooth="yes"/>
      <point x="252" y="226"/>
      <point x="201" y="190"/>
      <point x="201" y="131" type="curve" smooth="yes"/>
      <point x="201" y="84"/>
      <point x="224" y="54"/>
      <point x="264" y="33" type="curve"/>
      <point x="295" y="1" type="line"/>
      <point x="301" y="61" type="line"/>
      <point x="279" y="74"/>
      <point x="266" y="91"/>
      <point x="266" y="118" type="curve" smooth="yes"/>
      <point x="266" y="148"/>
      <point x="284" y="168"/>
    </contour>
  </outline>
</glyph>
<glyph name="yasinh" format="2">
  <advance width="611"/>
  <unicode hex="0DBA"/>
  <outline>
    <contour>
      <point x="431" y="-11" type="curve" smooth="yes"/>
      <point x="514" y="-11"/>
      <point x="578" y="53"/>
      <point x="578" y="212" type="curve" smooth="yes"/>
      <point x="578" y="403"/>
      <point x="457" y="455"/>
      <point x="372" y="455" type="curve"/>
      <point x="356" y="455" type="line"/>
      <point x="380" y="452" type="line"/>
      <point x="382" y="519"/>
      <point x="400" y="549"/>
      <point x="432" y="549" type="curve" smooth="yes"/>
      <point x="464" y="549"/>
      <point x="478" y="528"/>
      <point x="478" y="488" type="curve" smooth="yes"/>
      <point x="478" y="480"/>
      <point x="476" y="464"/>
      <point x="475" y="457" type="curve"/>
      <point x="541" y="448" type="line"/>
      <point x="544" y="464"/>
      <point x="546" y="479"/>
      <point x="546" y="496" type="curve" smooth="yes"/>
      <point x="546" y="572"/>
      <point x="505" y="612"/>
      <point x="440" y="612" type="curve" smooth="yes"/>
      <point x="356" y="612"/>
      <point x="314" y="549"/>
      <point x="314" y="431" type="curve" smooth="yes"/>
      <point x="314" y="393" type="line"/>
      <point x="338" y="393" type="line" smooth="yes"/>
      <point x="404" y="393"/>
      <point x="435" y="379"/>
      <point x="461" y="355" type="curve" smooth="yes"/>
      <point x="494" y="325"/>
      <point x="509" y="273"/>
      <point x="509" y="211" type="curve" smooth="yes"/>
      <point x="509" y="97"/>
      <point x="479" y="56"/>
      <point x="424" y="56" type="curve" smooth="yes"/>
      <point x="363" y="56"/>
      <point x="337" y="103"/>
      <point x="337" y="200" type="curve" smooth="yes"/>
      <point x="337" y="213" type="line"/>
      <point x="273" y="213" type="line"/>
      <point x="273" y="199" type="line" smooth="yes"/>
      <point x="273" y="107"/>
      <point x="244" y="56"/>
      <point x="185" y="56" type="curve" smooth="yes"/>
      <point x="131" y="56"/>
      <point x="102" y="105"/>
      <point x="102" y="220" type="curve" smooth="yes"/>
      <point x="102" y="355"/>
      <point x="154" y="421"/>
      <point x="246" y="421" type="curve" smooth="yes"/>
      <point x="259" y="421"/>
      <point x="266" y="420"/>
      <point x="272" y="419" type="curve"/>
      <point x="277" y="483" type="line"/>
      <point x="268" y="485"/>
      <point x="255" y="486"/>
      <point x="243" y="486" type="curve" smooth="yes"/>
      <point x="108" y="486"/>
      <point x="33" y="374"/>
      <point x="33" y="217" type="curve" smooth="yes"/>
      <point x="33" y="62"/>
      <point x="93" y="-11"/>
      <point x="182" y="-11" type="curve" smooth="yes"/>
      <point x="246" y="-11"/>
      <point x="280" y="23"/>
      <point x="304" y="77" type="curve"/>
      <point x="328" y="26"/>
      <point x="362" y="-11"/>
    </contour>
  </outline>
</glyph>
<glyph name="rasinh" format="2">
  <advance width="528"/>
  <unicode hex="0DBB"/>
  <outline>
    <contour>
      <point x="257" y="-11" type="curve" smooth="yes"/>
      <point x="406" y="-11"/>
      <point x="494" y="86"/>
      <point x="494" y="283" type="curve" smooth="yes"/>
      <point x="494" y="483"/>
      <point x="406" y="564"/>
      <point x="297" y="564" type="curve" smooth="yes"/>
      <point x="259" y="564"/>
      <point x="237" y="559"/>
      <point x="222" y="553" type="curve"/>
      <point x="161" y="487" type="line"/>
      <point x="194" y="499"/>
      <point x="232" y="507"/>
      <point x="266" y="507" type="curve" smooth="yes"/>
      <point x="369" y="507"/>
      <point x="424" y="436"/>
      <point x="424" y="281" type="curve" smooth="yes"/>
      <point x="424" y="142"/>
      <point x="372" y="57"/>
      <point x="257" y="57" type="curve" smooth="yes"/>
      <point x="153" y="57"/>
      <point x="105" y="132"/>
      <point x="105" y="267" type="curve" smooth="yes"/>
      <point x="105" y="383"/>
      <point x="156" y="469"/>
      <point x="268" y="523" type="curve"/>
      <point x="296" y="552" type="line"/>
      <point x="364" y="591"/>
      <point x="457" y="681"/>
      <point x="520" y="758" type="curve"/>
      <point x="468" y="805" type="line"/>
      <point x="384" y="708"/>
      <point x="307" y="633"/>
      <point x="243" y="584" type="curve"/>
      <point x="114" y="511"/>
      <point x="35" y="424"/>
      <point x="35" y="264" type="curve" smooth="yes"/>
      <point x="35" y="84"/>
      <point x="115" y="-11"/>
    </contour>
  </outline>
</glyph>
<glyph name="lasinh" format="2">
  <advance width="653"/>
  <unicode hex="0DBD"/>
  <outline>
    <contour>
      <point x="342" y="-204" type="curve" smooth="yes"/>
      <point x="500" y="-204"/>
      <point x="623" y="-115"/>
      <point x="623" y="122" type="curve" smooth="yes"/>
      <point x="623" y="137"/>
      <point x="623" y="151"/>
      <point x="621" y="165" type="curve"/>
      <point x="553" y="162" type="line"/>
      <point x="554" y="150"/>
      <point x="554" y="132"/>
      <point x="554" y="123" type="curve" smooth="yes"/>
      <point x="554" y="-69"/>
      <point x="467" y="-136"/>
      <point x="347" y="-136" type="curve" smooth="yes"/>
      <point x="183" y="-136"/>
      <point x="105" y="-32"/>
      <point x="105" y="188" type="curve" smooth="yes"/>
      <point x="105" y="404"/>
      <point x="193" y="548"/>
      <point x="374" y="548" type="curve" smooth="yes"/>
      <point x="505" y="548"/>
      <point x="549" y="474"/>
      <point x="549" y="379" type="curve" smooth="yes"/>
      <point x="549" y="306"/>
      <point x="520" y="263"/>
      <point x="458" y="263" type="curve" smooth="yes"/>
      <point x="409" y="263"/>
      <point x="388" y="295"/>
      <point x="388" y="329" type="curve" smooth="yes"/>
      <point x="388" y="359"/>
      <point x="394" y="376"/>
      <point x="413" y="400" type="curve"/>
      <point x="377" y="371" type="line"/>
      <point x="495" y="371" type="line"/>
      <point x="495" y="434" type="line"/>
      <point x="222" y="434" type="line"/>
      <point x="222" y="371" type="line"/>
      <point x="335" y="371" type="line"/>
      <point x="365" y="378" type="line"/>
      <point x="342" y="398" type="line"/>
      <point x="330" y="378"/>
      <point x="321" y="355"/>
      <point x="321" y="325" type="curve" smooth="yes"/>
      <point x="321" y="257"/>
      <point x="360" y="198"/>
      <point x="457" y="198" type="curve" smooth="yes"/>
      <point x="560" y="198"/>
      <point x="616" y="271"/>
      <point x="616" y="380" type="curve" smooth="yes"/>
      <point x="616" y="510"/>
      <point x="546" y="612"/>
      <point x="373" y="612" type="curve" smooth="yes"/>
      <point x="160" y="612"/>
      <point x="35" y="449"/>
      <point x="35" y="185" type="curve" smooth="yes"/>
      <point x="35" y="-55"/>
      <point x="128" y="-204"/>
    </contour>
  </outline>
</glyph>
<glyph name="vasinh" format="2">
  <advance width="607"/>
  <unicode hex="0DC0"/>
  <outline>
    <contour>
      <point x="267" y="-11" type="curve" smooth="yes"/>
      <point x="487" y="-11"/>
      <point x="572" y="160"/>
      <point x="572" y="416" type="curve" smooth="yes"/>
      <point x="572" y="730"/>
      <point x="437" y="836"/>
      <point x="271" y="836" type="curve" smooth="yes"/>
      <point x="180" y="836"/>
      <point x="106" y="810"/>
      <point x="39" y="771" type="curve"/>
      <point x="69" y="713" type="line"/>
      <point x="129" y="748"/>
      <point x="187" y="770"/>
      <point x="272" y="770" type="curve" smooth="yes"/>
      <point x="387" y="770"/>
      <point x="502" y="698"/>
      <point x="502" y="418" type="curve" smooth="yes"/>
      <point x="502" y="224"/>
      <point x="453" y="57"/>
      <point x="267" y="57" type="curve" smooth="yes"/>
      <point x="157" y="57"/>
      <point x="102" y="125"/>
      <point x="102" y="232" type="curve" smooth="yes"/>
      <point x="102" y="290"/>
      <point x="119" y="327"/>
      <point x="147" y="352" type="curve" smooth="yes"/>
      <point x="180" y="381"/>
      <point x="222" y="393"/>
      <point x="302" y="393" type="curve" smooth="yes"/>
      <point x="336" y="393" type="line"/>
      <point x="336" y="431" type="line" smooth="yes"/>
      <point x="336" y="549"/>
      <point x="293" y="612"/>
      <point x="211" y="612" type="curve" smooth="yes"/>
      <point x="144" y="612"/>
      <point x="104" y="572"/>
      <point x="104" y="496" type="curve" smooth="yes"/>
      <point x="104" y="479"/>
      <point x="106" y="465"/>
      <point x="107" y="455" type="curve"/>
      <point x="174" y="466" type="line"/>
      <point x="173" y="473"/>
      <point x="172" y="480"/>
      <point x="172" y="488" type="curve" smooth="yes"/>
      <point x="172" y="528"/>
      <point x="186" y="549"/>
      <point x="216" y="549" type="curve" smooth="yes"/>
      <point x="249" y="549"/>
      <point x="267" y="519"/>
      <point x="270" y="455" type="curve"/>
      <point x="263" y="455" type="line" smooth="yes"/>
      <point x="200" y="455"/>
      <point x="143" y="436"/>
      <point x="104" y="403" type="curve" smooth="yes"/>
      <point x="60" y="365"/>
      <point x="33" y="309"/>
      <point x="33" y="233" type="curve" smooth="yes"/>
      <point x="33" y="81"/>
      <point x="123" y="-11"/>
    </contour>
  </outline>
</glyph>
<glyph name="shasinh" format="2">
  <advance width="690"/>
  <unicode hex="0DC1"/>
  <outline>
    <contour>
      <point x="240" y="-11" type="curve" smooth="yes"/>
      <point x="363" y="-11"/>
      <point x="430" y="83"/>
      <point x="430" y="228" type="curve" smooth="yes"/>
      <point x="430" y="314"/>
      <point x="400" y="358"/>
      <point x="345" y="358" type="curve" smooth="yes"/>
      <point x="332" y="358"/>
      <point x="313" y="351"/>
      <point x="304" y="341" type="curve"/>
      <point x="313" y="339" type="line"/>
      <point x="342" y="490"/>
      <point x="389" y="545"/>
      <point x="465" y="545" type="curve" smooth="yes"/>
      <point x="536" y="545"/>
      <point x="586" y="491"/>
      <point x="586" y="337" type="curve" smooth="yes"/>
      <point x="586" y="168"/>
      <point x="528" y="107"/>
      <point x="479" y="59" type="curve"/>
      <point x="449" y="42" type="line"/>
      <point x="492" y="-10" type="line"/>
      <point x="565" y="42"/>
      <point x="655" y="138"/>
      <point x="655" y="335" type="curve" smooth="yes"/>
      <point x="655" y="500"/>
      <point x="594" y="612"/>
      <point x="470" y="612" type="curve" smooth="yes"/>
      <point x="359" y="612"/>
      <point x="279" y="545"/>
      <point x="240" y="291" type="curve"/>
      <point x="302" y="271" type="line"/>
      <point x="310" y="288"/>
      <point x="321" y="294"/>
      <point x="333" y="294" type="curve" smooth="yes"/>
      <point x="353" y="294"/>
      <point x="362" y="275"/>
      <point x="362" y="228" type="curve" smooth="yes"/>
      <point x="362" y="113"/>
      <point x="323" y="56"/>
      <point x="238" y="56" type="curve" smooth="yes"/>
      <point x="155" y="56"/>
      <point x="106" y="114"/>
      <point x="106" y="281" type="curve" smooth="yes"/>
      <point x="106" y="468"/>
      <point x="157" y="547"/>
      <point x="258" y="547" type="curve" smooth="yes"/>
      <point x="268" y="547"/>
      <point x="279" y="547"/>
      <point x="287" y="546" type="curve"/>
      <point x="290" y="609" type="line"/>
      <point x="280" y="611"/>
      <point x="265" y="612"/>
      <point x="255" y="612" type="curve" smooth="yes"/>
      <point x="127" y="612"/>
      <point x="36" y="515"/>
      <point x="36" y="281" type="curve" smooth="yes"/>
      <point x="36" y="78"/>
      <point x="108" y="-11"/>
    </contour>
    <contour>
      <point x="449" y="42" type="curve"/>
      <point x="483" y="28" type="line"/>
      <point x="511" y="47"/>
      <point x="517" y="94"/>
      <point x="517" y="108" type="curve" smooth="yes"/>
      <point x="517" y="154"/>
      <point x="506" y="175"/>
      <point x="506" y="218" type="curve" smooth="yes"/>
      <point x="506" y="247"/>
      <point x="520" y="270"/>
      <point x="551" y="270" type="curve" smooth="yes"/>
      <point x="575" y="270"/>
      <point x="596" y="259"/>
      <point x="621" y="238" type="curve"/>
      <point x="649" y="294" type="line"/>
      <point x="617" y="316"/>
      <point x="582" y="334"/>
      <point x="547" y="334" type="curve" smooth="yes"/>
      <point x="489" y="334"/>
      <point x="443" y="305"/>
      <point x="443" y="222" type="curve" smooth="yes"/>
      <point x="443" y="166"/>
      <point x="463" y="130"/>
      <point x="463" y="82" type="curve" smooth="yes"/>
      <point x="463" y="54"/>
      <point x="458" y="49"/>
    </contour>
  </outline>
</glyph>
<glyph name="ssasinh" format="2">
  <advance width="592"/>
  <unicode hex="0DC2"/>
  <outline>
    <contour>
      <point x="295" y="-11" type="curve" smooth="yes"/>
      <point x="469" y="-11"/>
      <point x="559" y="90"/>
      <point x="559" y="247" type="curve" smooth="yes"/>
      <point x="559" y="374"/>
      <point x="480" y="455"/>
      <point x="360" y="455" type="curve" smooth="yes"/>
      <point x="343" y="455" type="line"/>
      <point x="375" y="452" type="line"/>
      <point x="378" y="515"/>
      <point x="396" y="549"/>
      <point x="433" y="549" type="curve" smooth="yes"/>
      <point x="461" y="549"/>
      <point x="475" y="524"/>
      <point x="475" y="488" type="curve" smooth="yes"/>
      <point x="475" y="441"/>
      <point x="465" y="423"/>
      <point x="453" y="404" type="curve"/>
      <point x="448" y="386" type="line"/>
      <point x="419" y="341"/>
      <point x="381" y="327"/>
      <point x="328" y="327" type="curve" smooth="yes"/>
      <point x="294" y="327" type="line" smooth="yes"/>
      <point x="235" y="327"/>
      <point x="212" y="319"/>
      <point x="191" y="305" type="curve" smooth="yes"/>
      <point x="167" y="289"/>
      <point x="155" y="264"/>
      <point x="155" y="232" type="curve" smooth="yes"/>
      <point x="155" y="174"/>
      <point x="193" y="125"/>
      <point x="291" y="125" type="curve" smooth="yes"/>
      <point x="395" y="125"/>
      <point x="430" y="176"/>
      <point x="430" y="233" type="curve" smooth="yes"/>
      <point x="430" y="261"/>
      <point x="420" y="285"/>
      <point x="403" y="305" type="curve"/>
      <point x="342" y="287" type="line"/>
      <point x="357" y="271"/>
      <point x="366" y="255"/>
      <point x="366" y="234" type="curve" smooth="yes"/>
      <point x="366" y="202"/>
      <point x="345" y="185"/>
      <point x="292" y="185" type="curve" smooth="yes"/>
      <point x="237" y="185"/>
      <point x="219" y="202"/>
      <point x="219" y="230" type="curve" smooth="yes"/>
      <point x="219" y="253"/>
      <point x="234" y="267"/>
      <point x="272" y="267" type="curve" smooth="yes"/>
      <point x="315" y="267" type="line" smooth="yes"/>
      <point x="401" y="267"/>
      <point x="454" y="295"/>
      <point x="496" y="354" type="curve"/>
      <point x="525" y="390"/>
      <point x="542" y="432"/>
      <point x="542" y="490" type="curve" smooth="yes"/>
      <point x="542" y="567"/>
      <point x="500" y="612"/>
      <point x="438" y="612" type="curve" smooth="yes"/>
      <point x="350" y="612"/>
      <point x="309" y="544"/>
      <point x="309" y="425" type="curve" smooth="yes"/>
      <point x="309" y="393" type="line"/>
      <point x="333" y="393" type="line" smooth="yes"/>
      <point x="396" y="393"/>
      <point x="431" y="381"/>
      <point x="456" y="357" type="curve" smooth="yes"/>
      <point x="481" y="333"/>
      <point x="491" y="295"/>
      <point x="491" y="246" type="curve" smooth="yes"/>
      <point x="491" y="139"/>
      <point x="436" y="57"/>
      <point x="296" y="57" type="curve" smooth="yes"/>
      <point x="154" y="57"/>
      <point x="102" y="139"/>
      <point x="102" y="246" type="curve" smooth="yes"/>
      <point x="102" y="296"/>
      <point x="114" y="328"/>
      <point x="137" y="353" type="curve"/>
      <point x="162" y="379"/>
      <point x="202" y="393"/>
      <point x="259" y="393" type="curve" smooth="yes"/>
      <point x="283" y="393" type="line"/>
      <point x="283" y="431" type="line" smooth="yes"/>
      <point x="283" y="549"/>
      <point x="242" y="612"/>
      <point x="158" y="612" type="curve" smooth="yes"/>
      <point x="92" y="612"/>
      <point x="51" y="573"/>
      <point x="51" y="497" type="curve" smooth="yes"/>
      <point x="51" y="480"/>
      <point x="53" y="464"/>
      <point x="56" y="448" type="curve"/>
      <point x="122" y="457" type="line"/>
      <point x="121" y="464"/>
      <point x="119" y="481"/>
      <point x="119" y="489" type="curve" smooth="yes"/>
      <point x="119" y="529"/>
      <point x="135" y="549"/>
      <point x="164" y="549" type="curve" smooth="yes"/>
      <point x="197" y="549"/>
      <point x="215" y="519"/>
      <point x="217" y="452" type="curve"/>
      <point x="249" y="455" type="line"/>
      <point x="237" y="455" type="line" smooth="yes"/>
      <point x="107" y="455"/>
      <point x="33" y="373"/>
      <point x="33" y="249" type="curve" smooth="yes"/>
      <point x="33" y="90"/>
      <point x="123" y="-11"/>
    </contour>
  </outline>
</glyph>
<glyph name="sasinh" format="2">
  <advance width="622"/>
  <unicode hex="0DC3"/>
  <outline>
    <contour>
      <point x="442" y="-11" type="curve" smooth="yes"/>
      <point x="525" y="-11"/>
      <point x="589" y="53"/>
      <point x="589" y="212" type="curve" smooth="yes"/>
      <point x="589" y="403"/>
      <point x="468" y="455"/>
      <point x="383" y="455" type="curve"/>
      <point x="367" y="455" type="line"/>
      <point x="395" y="452" type="line"/>
      <point x="397" y="519"/>
      <point x="415" y="549"/>
      <point x="449" y="549" type="curve" smooth="yes"/>
      <point x="479" y="549"/>
      <point x="493" y="528"/>
      <point x="493" y="488" type="curve" smooth="yes"/>
      <point x="493" y="480"/>
      <point x="491" y="464"/>
      <point x="490" y="457" type="curve"/>
      <point x="556" y="448" type="line"/>
      <point x="559" y="464"/>
      <point x="561" y="479"/>
      <point x="561" y="496" type="curve" smooth="yes"/>
      <point x="561" y="572"/>
      <point x="520" y="612"/>
      <point x="455" y="612" type="curve" smooth="yes"/>
      <point x="371" y="612"/>
      <point x="329" y="549"/>
      <point x="329" y="431" type="curve" smooth="yes"/>
      <point x="329" y="393" type="line"/>
      <point x="349" y="393" type="line" smooth="yes"/>
      <point x="415" y="393"/>
      <point x="446" y="379"/>
      <point x="472" y="355" type="curve" smooth="yes"/>
      <point x="505" y="325"/>
      <point x="520" y="273"/>
      <point x="520" y="211" type="curve" smooth="yes"/>
      <point x="520" y="97"/>
      <point x="490" y="56"/>
      <point x="435" y="56" type="curve" smooth="yes"/>
      <point x="374" y="56"/>
      <point x="348" y="103"/>
      <point x="348" y="199" type="curve" smooth="yes"/>
      <point x="348" y="213" type="line"/>
      <point x="284" y="213" type="line"/>
      <point x="284" y="196" type="line" smooth="yes"/>
      <point x="284" y="109"/>
      <point x="258" y="56"/>
      <point x="196" y="56" type="curve" smooth="yes"/>
      <point x="140" y="56"/>
      <point x="110" y="100"/>
      <point x="110" y="198" type="curve" smooth="yes"/>
      <point x="110" y="264"/>
      <point x="127" y="322"/>
      <point x="159" y="352" type="curve" smooth="yes"/>
      <point x="185" y="377"/>
      <point x="218" y="393"/>
      <point x="287" y="393" type="curve" smooth="yes"/>
      <point x="305" y="393" type="line"/>
      <point x="305" y="431" type="line" smooth="yes"/>
      <point x="305" y="549"/>
      <point x="263" y="612"/>
      <point x="179" y="612" type="curve" smooth="yes"/>
      <point x="113" y="612"/>
      <point x="73" y="572"/>
      <point x="73" y="496" type="curve" smooth="yes"/>
      <point x="73" y="490"/>
      <point x="73" y="481"/>
      <point x="74" y="474" type="curve"/>
      <point x="142" y="478" type="line"/>
      <point x="141" y="482"/>
      <point x="141" y="486"/>
      <point x="141" y="489" type="curve"/>
      <point x="141" y="527"/>
      <point x="156" y="549"/>
      <point x="185" y="549" type="curve" smooth="yes"/>
      <point x="218" y="549"/>
      <point x="237" y="519"/>
      <point x="239" y="455" type="curve"/>
      <point x="26" y="455" type="line"/>
      <point x="26" y="393" type="line"/>
      <point x="51" y="393" type="line" smooth="yes"/>
      <point x="82" y="393"/>
      <point x="117" y="394"/>
      <point x="147" y="400" type="curve"/>
      <point x="145" y="408" type="line"/>
      <point x="70" y="361"/>
      <point x="41" y="289"/>
      <point x="41" y="196" type="curve" smooth="yes"/>
      <point x="41" y="59"/>
      <point x="101" y="-11"/>
      <point x="191" y="-11" type="curve" smooth="yes"/>
      <point x="256" y="-11"/>
      <point x="286" y="21"/>
      <point x="315" y="77" type="curve"/>
      <point x="339" y="26"/>
      <point x="373" y="-11"/>
    </contour>
  </outline>
</glyph>
<glyph name="hasinh" format="2">
  <advance width="715"/>
  <unicode hex="0DC4"/>
  <outline>
    <contour>
      <point x="251" y="-11" type="curve" smooth="yes"/>
      <point x="411" y="-11"/>
      <point x="469" y="113"/>
      <point x="469" y="228" type="curve" smooth="yes"/>
      <point x="469" y="314"/>
      <point x="439" y="358"/>
      <point x="384" y="358" type="curve" smooth="yes"/>
      <point x="371" y="358"/>
      <point x="352" y="351"/>
      <point x="343" y="341" type="curve"/>
      <point x="352" y="339" type="line"/>
      <point x="382" y="494"/>
      <point x="430" y="545"/>
      <point x="494" y="545" type="curve" smooth="yes"/>
      <point x="567" y="545"/>
      <point x="609" y="473"/>
      <point x="609" y="315" type="curve" smooth="yes"/>
      <point x="609" y="142"/>
      <point x="565" y="63"/>
      <point x="469" y="63" type="curve" smooth="yes"/>
      <point x="459" y="63"/>
      <point x="452" y="64"/>
      <point x="446" y="65" type="curve"/>
      <point x="443" y="0" type="line"/>
      <point x="453" y="-2"/>
      <point x="464" y="-3"/>
      <point x="477" y="-3" type="curve" smooth="yes"/>
      <point x="596" y="-3"/>
      <point x="679" y="89"/>
      <point x="679" y="315" type="curve" smooth="yes"/>
      <point x="679" y="494"/>
      <point x="620" y="612"/>
      <point x="499" y="612" type="curve" smooth="yes"/>
      <point x="394" y="612"/>
      <point x="317" y="541"/>
      <point x="279" y="291" type="curve"/>
      <point x="341" y="271" type="line"/>
      <point x="349" y="288"/>
      <point x="360" y="294"/>
      <point x="372" y="294" type="curve" smooth="yes"/>
      <point x="392" y="294"/>
      <point x="401" y="275"/>
      <point x="401" y="231" type="curve" smooth="yes"/>
      <point x="401" y="123"/>
      <point x="345" y="56"/>
      <point x="251" y="56" type="curve" smooth="yes"/>
      <point x="161" y="56"/>
      <point x="102" y="114"/>
      <point x="102" y="246" type="curve" smooth="yes"/>
      <point x="102" y="296"/>
      <point x="114" y="328"/>
      <point x="137" y="353" type="curve"/>
      <point x="162" y="379"/>
      <point x="202" y="393"/>
      <point x="259" y="393" type="curve" smooth="yes"/>
      <point x="283" y="393" type="line"/>
      <point x="283" y="431" type="line" smooth="yes"/>
      <point x="283" y="549"/>
      <point x="242" y="612"/>
      <point x="158" y="612" type="curve" smooth="yes"/>
      <point x="92" y="612"/>
      <point x="51" y="573"/>
      <point x="51" y="497" type="curve" smooth="yes"/>
      <point x="51" y="480"/>
      <point x="53" y="464"/>
      <point x="56" y="448" type="curve"/>
      <point x="122" y="457" type="line"/>
      <point x="121" y="464"/>
      <point x="119" y="481"/>
      <point x="119" y="489" type="curve" smooth="yes"/>
      <point x="119" y="529"/>
      <point x="135" y="549"/>
      <point x="164" y="549" type="curve" smooth="yes"/>
      <point x="197" y="549"/>
      <point x="215" y="519"/>
      <point x="217" y="452" type="curve"/>
      <point x="249" y="455" type="line"/>
      <point x="237" y="455" type="line"/>
      <point x="107" y="455"/>
      <point x="33" y="373"/>
      <point x="33" y="249" type="curve" smooth="yes"/>
      <point x="33" y="79"/>
      <point x="116" y="-11"/>
    </contour>
  </outline>
</glyph>
<glyph name="llasinh" format="2">
  <advance width="572"/>
  <unicode hex="0DC5"/>
  <outline>
    <contour>
      <point x="306" y="-211" type="curve" smooth="yes"/>
      <point x="459" y="-211"/>
      <point x="559" y="-118"/>
      <point x="559" y="44" type="curve" smooth="yes"/>
      <point x="559" y="61"/>
      <point x="558" y="72"/>
      <point x="557" y="81" type="curve"/>
      <point x="489" y="77" type="line"/>
      <point x="490" y="68"/>
      <point x="490" y="57"/>
      <point x="490" y="43" type="curve" smooth="yes"/>
      <point x="490" y="-68"/>
      <point x="431" y="-143"/>
      <point x="308" y="-143" type="curve" smooth="yes"/>
      <point x="158" y="-143"/>
      <point x="98" y="-45"/>
      <point x="98" y="111" type="curve" smooth="yes"/>
      <point x="98" y="205"/>
      <point x="114" y="262"/>
      <point x="149" y="311" type="curve"/>
      <point x="162" y="315" type="line"/>
      <point x="210" y="369"/>
      <point x="288" y="393"/>
      <point x="437" y="393" type="curve" smooth="yes"/>
      <point x="535" y="393" type="line"/>
      <point x="535" y="433" type="line" smooth="yes"/>
      <point x="535" y="551"/>
      <point x="492" y="612"/>
      <point x="416" y="612" type="curve" smooth="yes"/>
      <point x="375" y="612"/>
      <point x="349" y="592"/>
      <point x="331" y="561" type="curve"/>
      <point x="319" y="580"/>
      <point x="298" y="612"/>
      <point x="251" y="612" type="curve" smooth="yes"/>
      <point x="175" y="612"/>
      <point x="125" y="540"/>
      <point x="125" y="412" type="curve" smooth="yes"/>
      <point x="125" y="385"/>
      <point x="128" y="357"/>
      <point x="131" y="332" type="curve"/>
      <point x="145" y="192"/>
      <point x="198" y="101"/>
      <point x="328" y="101" type="curve" smooth="yes"/>
      <point x="460" y="101"/>
      <point x="522" y="176"/>
      <point x="530" y="306" type="curve"/>
      <point x="464" y="309" type="line"/>
      <point x="458" y="209"/>
      <point x="413" y="168"/>
      <point x="330" y="168" type="curve" smooth="yes"/>
      <point x="238" y="168"/>
      <point x="191" y="235"/>
      <point x="191" y="399" type="curve" smooth="yes"/>
      <point x="191" y="509"/>
      <point x="213" y="549"/>
      <point x="251" y="549" type="curve" smooth="yes"/>
      <point x="282" y="549"/>
      <point x="297" y="519"/>
      <point x="299" y="481" type="curve"/>
      <point x="362" y="481" type="line"/>
      <point x="364" y="532"/>
      <point x="383" y="549"/>
      <point x="413" y="549" type="curve" smooth="yes"/>
      <point x="449" y="549"/>
      <point x="467" y="519"/>
      <point x="469" y="455" type="curve"/>
      <point x="435" y="455" type="line" smooth="yes"/>
      <point x="285" y="455"/>
      <point x="214" y="436"/>
      <point x="151" y="386" type="curve"/>
      <point x="129" y="374" type="line"/>
      <point x="63" y="314"/>
      <point x="28" y="224"/>
      <point x="28" y="110" type="curve" smooth="yes"/>
      <point x="28" y="-64"/>
      <point x="97" y="-211"/>
    </contour>
  </outline>
</glyph>
<glyph name="fasinh" format="2">
  <advance width="638"/>
  <unicode hex="0DC6"/>
  <outline>
    <contour>
      <point x="417" y="-11" type="curve" smooth="yes"/>
      <point x="538" y="-11"/>
      <point x="602" y="91"/>
      <point x="602" y="309" type="curve" smooth="yes"/>
      <point x="602" y="517"/>
      <point x="537" y="612"/>
      <point x="439" y="612" type="curve" smooth="yes"/>
      <point x="381" y="612"/>
      <point x="340" y="577"/>
      <point x="319" y="517" type="curve"/>
      <point x="301" y="568"/>
      <point x="265" y="612"/>
      <point x="200" y="612" type="curve" smooth="yes"/>
      <point x="100" y="612"/>
      <point x="36" y="514"/>
      <point x="36" y="308" type="curve" smooth="yes"/>
      <point x="36" y="90"/>
      <point x="100" y="-11"/>
      <point x="220" y="-11" type="curve" smooth="yes"/>
      <point x="239" y="-11"/>
      <point x="249" y="-10"/>
      <point x="262" y="-8" type="curve"/>
      <point x="259" y="57" type="line"/>
      <point x="251" y="56"/>
      <point x="242" y="55"/>
      <point x="235" y="55" type="curve" smooth="yes"/>
      <point x="135" y="55"/>
      <point x="106" y="141"/>
      <point x="106" y="309" type="curve" smooth="yes"/>
      <point x="106" y="459"/>
      <point x="139" y="545"/>
      <point x="205" y="545" type="curve" smooth="yes"/>
      <point x="227" y="545"/>
      <point x="243" y="536"/>
      <point x="255" y="523" type="curve" smooth="yes"/>
      <point x="281" y="495"/>
      <point x="287" y="446"/>
      <point x="287" y="387" type="curve" smooth="yes"/>
      <point x="287" y="349" type="line"/>
      <point x="351" y="349" type="line"/>
      <point x="351" y="387" type="line" smooth="yes"/>
      <point x="351" y="446"/>
      <point x="357" y="495"/>
      <point x="383" y="523" type="curve" smooth="yes"/>
      <point x="395" y="536"/>
      <point x="411" y="545"/>
      <point x="434" y="545" type="curve" smooth="yes"/>
      <point x="499" y="545"/>
      <point x="532" y="459"/>
      <point x="532" y="309" type="curve" smooth="yes"/>
      <point x="532" y="142"/>
      <point x="503" y="55"/>
      <point x="402" y="55" type="curve" smooth="yes"/>
      <point x="393" y="55"/>
      <point x="386" y="55"/>
      <point x="378" y="57" type="curve"/>
      <point x="375" y="-8" type="line"/>
      <point x="388" y="-10"/>
      <point x="397" y="-11"/>
    </contour>
  </outline>
</glyph>
<glyph name="viramasinh" format="2">
  <unicode hex="0DCA"/>
  <outline>
    <contour>
      <point x="-168" y="535" type="line"/>
      <point x="-109" y="531" type="line"/>
      <point x="-109" y="854" type="line"/>
      <point x="-130" y="903" type="line"/>
      <point x="-136" y="932"/>
      <point x="-153" y="962"/>
      <point x="-182" y="973" type="curve"/>
      <point x="-219" y="918" type="line"/>
      <point x="-203" y="909"/>
      <point x="-193" y="900"/>
      <point x="-185" y="889" type="curve" smooth="yes"/>
      <point x="-170" y="867"/>
      <point x="-168" y="847"/>
      <point x="-168" y="807" type="curve" smooth="yes"/>
    </contour>
    <contour>
      <point x="-77" y="783" type="curve" smooth="yes"/>
      <point x="-27" y="783"/>
      <point x="0" y="822"/>
      <point x="0" y="881" type="curve" smooth="yes"/>
      <point x="0" y="942"/>
      <point x="-27" y="973"/>
      <point x="-70" y="973" type="curve" smooth="yes"/>
      <point x="-115" y="973"/>
      <point x="-133" y="941"/>
      <point x="-141" y="905" type="curve"/>
      <point x="-109" y="845" type="line"/>
      <point x="-109" y="858" type="line" smooth="yes"/>
      <point x="-109" y="898"/>
      <point x="-101" y="919"/>
      <point x="-78" y="919" type="curve" smooth="yes"/>
      <point x="-62" y="919"/>
      <point x="-50" y="909"/>
      <point x="-50" y="880" type="curve" smooth="yes"/>
      <point x="-50" y="850"/>
      <point x="-60" y="837"/>
      <point x="-85" y="837" type="curve" smooth="yes"/>
      <point x="-106" y="837"/>
      <point x="-120" y="843"/>
      <point x="-136" y="850" type="curve"/>
      <point x="-148" y="798" type="line"/>
      <point x="-129" y="790"/>
      <point x="-110" y="783"/>
    </contour>
  </outline>
</glyph>
<glyph name="aavowelsignsinh" format="2">
  <advance width="280"/>
  <unicode hex="0DCF"/>
  <outline>
    <contour>
      <point x="70" y="-11" type="curve" smooth="yes"/>
      <point x="171" y="-11"/>
      <point x="242" y="33"/>
      <point x="242" y="272" type="curve" smooth="yes"/>
      <point x="242" y="509"/>
      <point x="174" y="555"/>
      <point x="76" y="555" type="curve" smooth="yes"/>
      <point x="52" y="555"/>
      <point x="30" y="550"/>
      <point x="9" y="544" type="curve"/>
      <point x="19" y="483" type="line"/>
      <point x="33" y="487"/>
      <point x="52" y="489"/>
      <point x="67" y="489" type="curve" smooth="yes"/>
      <point x="139" y="489"/>
      <point x="171" y="451"/>
      <point x="171" y="272" type="curve" smooth="yes"/>
      <point x="171" y="93"/>
      <point x="140" y="55"/>
      <point x="66" y="55" type="curve" smooth="yes"/>
      <point x="53" y="55"/>
      <point x="34" y="57"/>
      <point x="22" y="61" type="curve"/>
      <point x="9" y="-1" type="line"/>
      <point x="28" y="-8"/>
      <point x="51" y="-11"/>
    </contour>
  </outline>
</glyph>
<glyph name="aevowelsignsinh" format="2">
  <advance width="239"/>
  <unicode hex="0DD0"/>
  <outline>
    <contour>
      <point x="159" y="-165" type="curve" smooth="yes"/>
      <point x="200" y="-165"/>
      <point x="222" y="-159"/>
      <point x="246" y="-147" type="curve"/>
      <point x="227" y="-86" type="line"/>
      <point x="209" y="-95"/>
      <point x="191" y="-99"/>
      <point x="169" y="-99" type="curve" smooth="yes"/>
      <point x="127" y="-99"/>
      <point x="91" y="-78"/>
      <point x="91" y="10" type="curve" smooth="yes"/>
      <point x="91" y="104"/>
      <point x="120" y="190"/>
      <point x="226" y="337" type="curve"/>
      <point x="202" y="402" type="line"/>
      <point x="13" y="402" type="line"/>
      <point x="13" y="337" type="line"/>
      <point x="103" y="337" type="line" smooth="yes"/>
      <point x="132" y="337"/>
      <point x="157" y="339"/>
      <point x="171" y="342" type="curve"/>
      <point x="160" y="347" type="line"/>
      <point x="45" y="200"/>
      <point x="21" y="90"/>
      <point x="21" y="12" type="curve" smooth="yes"/>
      <point x="21" y="-112"/>
      <point x="76" y="-165"/>
    </contour>
  </outline>
</glyph>
<glyph name="aaevowelsignsinh" format="2">
  <advance width="244"/>
  <unicode hex="0DD1"/>
  <outline>
    <contour>
      <point x="159" y="-165" type="curve" smooth="yes"/>
      <point x="194" y="-165"/>
      <point x="222" y="-159"/>
      <point x="246" y="-147" type="curve"/>
      <point x="227" y="-86" type="line"/>
      <point x="209" y="-95"/>
      <point x="191" y="-99"/>
      <point x="169" y="-99" type="curve" smooth="yes"/>
      <point x="127" y="-99"/>
      <point x="91" y="-72"/>
      <point x="91" y="-11" type="curve" smooth="yes"/>
      <point x="91" y="55"/>
      <point x="131" y="106"/>
      <point x="221" y="183" type="curve"/>
      <point x="200" y="242" type="line"/>
      <point x="165" y="240" type="line" smooth="yes"/>
      <point x="122" y="238"/>
      <point x="86" y="233"/>
      <point x="63" y="229" type="curve"/>
      <point x="68" y="218" type="line"/>
      <point x="122" y="258"/>
      <point x="187" y="308"/>
      <point x="221" y="341" type="curve"/>
      <point x="200" y="402" type="line"/>
      <point x="13" y="402" type="line"/>
      <point x="13" y="337" type="line"/>
      <point x="80" y="337" type="line" smooth="yes"/>
      <point x="110" y="337"/>
      <point x="134" y="338"/>
      <point x="155" y="342" type="curve"/>
      <point x="174" y="362" type="line"/>
      <point x="125" y="326"/>
      <point x="58" y="276"/>
      <point x="15" y="234" type="curve"/>
      <point x="38" y="181" type="line"/>
      <point x="56" y="182" type="line" smooth="yes"/>
      <point x="96" y="184"/>
      <point x="144" y="188"/>
      <point x="169" y="194" type="curve"/>
      <point x="160" y="199" type="line"/>
      <point x="76" y="139"/>
      <point x="21" y="72"/>
      <point x="21" y="-7" type="curve" smooth="yes"/>
      <point x="21" y="-108"/>
      <point x="76" y="-165"/>
    </contour>
  </outline>
</glyph>
<glyph name="ivowelsignsinh" format="2">
  <unicode hex="0DD2"/>
  <outline>
    <contour>
      <point x="-312" y="876" type="curve" smooth="yes"/>
      <point x="-472" y="876"/>
      <point x="-517" y="791"/>
      <point x="-517" y="702" type="curve" smooth="yes"/>
      <point x="-517" y="671"/>
      <point x="-512" y="646"/>
      <point x="-505" y="625" type="curve"/>
      <point x="-440" y="634" type="line"/>
      <point x="-445" y="651"/>
      <point x="-450" y="672"/>
      <point x="-450" y="696" type="curve" smooth="yes"/>
      <point x="-450" y="757"/>
      <point x="-425" y="810"/>
      <point x="-312" y="810" type="curve" smooth="yes"/>
      <point x="-200" y="810"/>
      <point x="-174" y="757"/>
      <point x="-174" y="696" type="curve" smooth="yes"/>
      <point x="-174" y="674"/>
      <point x="-178" y="652"/>
      <point x="-184" y="634" type="curve"/>
      <point x="-119" y="625" type="line"/>
      <point x="-112" y="647"/>
      <point x="-107" y="671"/>
      <point x="-107" y="702" type="curve" smooth="yes"/>
      <point x="-107" y="791"/>
      <point x="-152" y="876"/>
    </contour>
  </outline>
</glyph>
<glyph name="iivowelsignsinh" format="2">
  <unicode hex="0DD3"/>
  <outline>
    <contour>
      <point x="-312" y="876" type="curve" smooth="yes"/>
      <point x="-472" y="876"/>
      <point x="-517" y="791"/>
      <point x="-517" y="702" type="curve" smooth="yes"/>
      <point x="-517" y="671"/>
      <point x="-512" y="646"/>
      <point x="-505" y="625" type="curve"/>
      <point x="-440" y="634" type="line"/>
      <point x="-445" y="651"/>
      <point x="-450" y="672"/>
      <point x="-450" y="696" type="curve" smooth="yes"/>
      <point x="-450" y="757"/>
      <point x="-425" y="810"/>
      <point x="-312" y="810" type="curve" smooth="yes"/>
      <point x="-278" y="810"/>
      <point x="-246" y="805"/>
      <point x="-224" y="796" type="curve" smooth="yes"/>
      <point x="-175" y="778"/>
      <point x="-155" y="739"/>
      <point x="-155" y="698" type="curve" smooth="yes"/>
      <point x="-155" y="665"/>
      <point x="-169" y="650"/>
      <point x="-194" y="650" type="curve" smooth="yes"/>
      <point x="-221" y="650"/>
      <point x="-236" y="668"/>
      <point x="-236" y="700" type="curve" smooth="yes"/>
      <point x="-236" y="741"/>
      <point x="-216" y="772"/>
      <point x="-184" y="796" type="curve"/>
      <point x="-234" y="824" type="line"/>
      <point x="-264" y="797"/>
      <point x="-297" y="759"/>
      <point x="-297" y="700" type="curve" smooth="yes"/>
      <point x="-297" y="629"/>
      <point x="-260" y="592"/>
      <point x="-194" y="592" type="curve" smooth="yes"/>
      <point x="-126" y="592"/>
      <point x="-93" y="634"/>
      <point x="-93" y="700" type="curve" smooth="yes"/>
      <point x="-93" y="784"/>
      <point x="-145" y="876"/>
    </contour>
  </outline>
</glyph>
<glyph name="uvowelsignsinh" format="2">
  <unicode hex="0DD4"/>
  <outline>
    <contour>
      <point x="-557" y="-148" type="curve" smooth="yes"/>
      <point x="-557" y="-176"/>
      <point x="-549" y="-203"/>
      <point x="-535" y="-220" type="curve" smooth="yes"/>
      <point x="-513" y="-247"/>
      <point x="-480" y="-261"/>
      <point x="-401" y="-261" type="curve" smooth="yes"/>
      <point x="-80" y="-261" type="line"/>
      <point x="-80" y="42" type="line"/>
      <point x="-146" y="42" type="line"/>
      <point x="-146" y="-197" type="line"/>
      <point x="-391" y="-197" type="line" smooth="yes"/>
      <point x="-446" y="-197"/>
      <point x="-461" y="-194"/>
      <point x="-473" y="-186" type="curve" smooth="yes"/>
      <point x="-483" y="-179"/>
      <point x="-489" y="-169"/>
      <point x="-489" y="-149" type="curve" smooth="yes"/>
      <point x="-489" y="-120"/>
      <point x="-471" y="-96"/>
      <point x="-449" y="-73" type="curve"/>
      <point x="-499" y="-27" type="line"/>
      <point x="-537" y="-65"/>
      <point x="-557" y="-101"/>
    </contour>
  </outline>
</glyph>
<glyph name="uuvowelsignsinh" format="2">
  <unicode hex="0DD6"/>
  <outline>
    <contour>
      <point x="-557" y="-148" type="curve" smooth="yes"/>
      <point x="-557" y="-229"/>
      <point x="-502" y="-261"/>
      <point x="-458" y="-261" type="curve" smooth="yes"/>
      <point x="-409" y="-261"/>
      <point x="-379" y="-243"/>
      <point x="-328" y="-210" type="curve" smooth="yes"/>
      <point x="-299" y="-191"/>
      <point x="-279" y="-181"/>
      <point x="-251" y="-181" type="curve" smooth="yes"/>
      <point x="-212" y="-181"/>
      <point x="-172" y="-211"/>
      <point x="-134" y="-261" type="curve"/>
      <point x="-80" y="-261" type="line"/>
      <point x="-80" y="42" type="line"/>
      <point x="-146" y="42" type="line"/>
      <point x="-146" y="-112" type="line" smooth="yes"/>
      <point x="-146" y="-139"/>
      <point x="-144" y="-181"/>
      <point x="-141" y="-207" type="curve"/>
      <point x="-125" y="-187" type="line"/>
      <point x="-175" y="-133"/>
      <point x="-215" y="-114"/>
      <point x="-257" y="-114" type="curve" smooth="yes"/>
      <point x="-297" y="-114"/>
      <point x="-325" y="-129"/>
      <point x="-366" y="-157" type="curve" smooth="yes"/>
      <point x="-413" y="-189"/>
      <point x="-427" y="-194"/>
      <point x="-451" y="-194" type="curve" smooth="yes"/>
      <point x="-473" y="-194"/>
      <point x="-489" y="-181"/>
      <point x="-489" y="-149" type="curve" smooth="yes"/>
      <point x="-489" y="-120"/>
      <point x="-471" y="-96"/>
      <point x="-449" y="-73" type="curve"/>
      <point x="-499" y="-27" type="line"/>
      <point x="-537" y="-65"/>
      <point x="-557" y="-101"/>
    </contour>
  </outline>
</glyph>
<glyph name="rvocalicvowelsignsinh" format="2">
  <advance width="344"/>
  <unicode hex="0DD8"/>
  <outline>
    <contour>
      <point x="137" y="-11" type="curve" smooth="yes"/>
      <point x="173" y="-11"/>
      <point x="192" y="4"/>
      <point x="212" y="26" type="curve"/>
      <point x="241" y="0" type="line"/>
      <point x="268" y="45" type="line"/>
      <point x="217" y="83" type="line"/>
      <point x="190" y="83" type="line"/>
      <point x="178" y="64"/>
      <point x="164" y="55"/>
      <point x="144" y="55" type="curve" smooth="yes"/>
      <point x="110" y="55"/>
      <point x="87" y="74"/>
      <point x="87" y="152" type="curve" smooth="yes"/>
      <point x="87" y="194"/>
      <point x="96" y="230"/>
      <point x="120" y="250" type="curve" smooth="yes"/>
      <point x="139" y="266"/>
      <point x="163" y="275"/>
      <point x="221" y="275" type="curve" smooth="yes"/>
      <point x="255" y="275" type="line"/>
      <point x="259" y="337" type="line"/>
      <point x="228" y="337" type="line" smooth="yes"/>
      <point x="166" y="337"/>
      <point x="109" y="330"/>
      <point x="69" y="292" type="curve" smooth="yes"/>
      <point x="40" y="265"/>
      <point x="20" y="224"/>
      <point x="20" y="152" type="curve" smooth="yes"/>
      <point x="20" y="49"/>
      <point x="66" y="-11"/>
    </contour>
    <contour>
      <point x="241" y="0" type="line"/>
      <point x="299" y="0" type="line"/>
      <point x="299" y="336" type="line" smooth="yes"/>
      <point x="299" y="434"/>
      <point x="287" y="482"/>
      <point x="246" y="520" type="curve" smooth="yes"/>
      <point x="222" y="541"/>
      <point x="190" y="555"/>
      <point x="137" y="555" type="curve" smooth="yes"/>
      <point x="103" y="555"/>
      <point x="63" y="547"/>
      <point x="27" y="535" type="curve"/>
      <point x="45" y="473" type="line"/>
      <point x="73" y="483"/>
      <point x="99" y="489"/>
      <point x="133" y="489" type="curve" smooth="yes"/>
      <point x="166" y="489"/>
      <point x="186" y="480"/>
      <point x="200" y="465" type="curve" smooth="yes"/>
      <point x="226" y="438"/>
      <point x="229" y="388"/>
      <point x="229" y="328" type="curve" smooth="yes"/>
      <point x="229" y="51" type="line"/>
    </contour>
  </outline>
</glyph>
<glyph name="evowelsignsinh" format="2">
  <advance width="479"/>
  <unicode hex="0DD9"/>
  <outline>
    <contour>
      <point x="259" y="-11" type="curve" smooth="yes"/>
      <point x="396" y="-11"/>
      <point x="455" y="73"/>
      <point x="455" y="200" type="curve" smooth="yes"/>
      <point x="455" y="305"/>
      <point x="401" y="386"/>
      <point x="287" y="386" type="curve" smooth="yes"/>
      <point x="211" y="386"/>
      <point x="162" y="343"/>
      <point x="162" y="266" type="curve" smooth="yes"/>
      <point x="162" y="187"/>
      <point x="201" y="152"/>
      <point x="258" y="152" type="curve" smooth="yes"/>
      <point x="313" y="152"/>
      <point x="352" y="179"/>
      <point x="352" y="254" type="curve" smooth="yes"/>
      <point x="352" y="282"/>
      <point x="345" y="305"/>
      <point x="332" y="327" type="curve"/>
      <point x="274" y="332" type="line"/>
      <point x="287" y="314"/>
      <point x="293" y="290"/>
      <point x="293" y="263" type="curve" smooth="yes"/>
      <point x="293" y="230"/>
      <point x="281" y="213"/>
      <point x="258" y="213" type="curve" smooth="yes"/>
      <point x="232" y="213"/>
      <point x="224" y="233"/>
      <point x="224" y="265" type="curve" smooth="yes"/>
      <point x="224" y="302"/>
      <point x="241" y="325"/>
      <point x="281" y="325" type="curve" smooth="yes"/>
      <point x="288" y="325"/>
      <point x="297" y="325"/>
      <point x="304" y="324" type="curve"/>
      <point x="369" y="323"/>
      <point x="389" y="264"/>
      <point x="389" y="196" type="curve" smooth="yes"/>
      <point x="389" y="111"/>
      <point x="354" y="56"/>
      <point x="257" y="56" type="curve" smooth="yes"/>
      <point x="142" y="56"/>
      <point x="101" y="143"/>
      <point x="101" y="263" type="curve" smooth="yes"/>
      <point x="101" y="421"/>
      <point x="169" y="491"/>
      <point x="294" y="491" type="curve" smooth="yes"/>
      <point x="337" y="491"/>
      <point x="382" y="483"/>
      <point x="429" y="465" type="curve"/>
      <point x="448" y="529" type="line"/>
      <point x="394" y="547"/>
      <point x="351" y="556"/>
      <point x="293" y="556" type="curve" smooth="yes"/>
      <point x="121" y="556"/>
      <point x="33" y="448"/>
      <point x="33" y="265" type="curve" smooth="yes"/>
      <point x="33" y="123"/>
      <point x="88" y="-11"/>
    </contour>
  </outline>
</glyph>
<glyph name="uni0DE6" format="2">
  <advance width="281"/>
  <unicode hex="0DE6"/>
  <outline>
    <contour>
      <point x="74" y="0" type="line"/>
      <point x="141" y="0" type="line"/>
      <point x="141" y="483" type="line"/>
      <point x="117" y="535" type="line"/>
      <point x="113" y="564"/>
      <point x="89" y="601"/>
      <point x="60" y="612" type="curve"/>
      <point x="19" y="552" type="line"/>
      <point x="37" y="542"/>
      <point x="47" y="532"/>
      <point x="56" y="520" type="curve" smooth="yes"/>
      <point x="74" y="496"/>
      <point x="74" y="471"/>
      <point x="74" y="430" type="curve" smooth="yes"/>
    </contour>
    <contour>
      <point x="175" y="403" type="curve" smooth="yes"/>
      <point x="229" y="403"/>
      <point x="261" y="446"/>
      <point x="261" y="510" type="curve" smooth="yes"/>
      <point x="261" y="578"/>
      <point x="229" y="612"/>
      <point x="182" y="612" type="curve" smooth="yes"/>
      <point x="137" y="612"/>
      <point x="114" y="582"/>
      <point x="105" y="540" type="curve"/>
      <point x="141" y="474" type="line"/>
      <point x="141" y="491" type="line" smooth="yes"/>
      <point x="141" y="530"/>
      <point x="150" y="553"/>
      <point x="174" y="553" type="curve" smooth="yes"/>
      <point x="191" y="553"/>
      <point x="202" y="537"/>
      <point x="202" y="509" type="curve" smooth="yes"/>
      <point x="202" y="475"/>
      <point x="191" y="462"/>
      <point x="166" y="462" type="curve" smooth="yes"/>
      <point x="145" y="462"/>
      <point x="124" y="469"/>
      <point x="110" y="477" type="curve"/>
      <point x="97" y="420" type="line"/>
      <point x="117" y="409"/>
      <point x="146" y="403"/>
    </contour>
  </outline>
</glyph>
